{"glyphs":{"0":{"ha":772,"x_min":0,"x_max":0,"o":""},"1":{"ha":772,"x_min":0,"x_max":0,"o":""},"2":{"ha":772,"x_min":0,"x_max":0,"o":""},"3":{"ha":772,"x_min":0,"x_max":0,"o":""},"4":{"ha":772,"x_min":0,"x_max":0,"o":""},"5":{"ha":772,"x_min":0,"x_max":0,"o":""},"6":{"ha":772,"x_min":0,"x_max":0,"o":""},"7":{"ha":772,"x_min":0,"x_max":0,"o":""},"8":{"ha":772,"x_min":0,"x_max":0,"o":""},"9":{"ha":772,"x_min":0,"x_max":0,"o":""}," ":{"ha":386,"x_min":0,"x_max":0,"o":""}," ":{"ha":386,"x_min":0,"x_max":0,"o":""},"!":{"ha":386,"x_min":0,"x_max":0,"o":""},"\"":{"ha":493,"x_min":0,"x_max":0,"o":""},"#":{"ha":772,"x_min":0,"x_max":0,"o":""},"$":{"ha":772,"x_min":0,"x_max":0,"o":""},"%":{"ha":1235,"x_min":0,"x_max":0,"o":""},"&":{"ha":926,"x_min":0,"x_max":0,"o":""},"'":{"ha":265,"x_min":0,"x_max":0,"o":""},"(":{"ha":0,"x_min":-632,"x_max":231,"o":"m -456 623 l -458 621 l -464 626 l -461 629 l -456 623 m -57 604 l -49 599 q -57 604 -54 600 m -109 599 q -122 574 -112 586 l -109 599 m 160 596 l 163 588 l 157 588 l 160 596 m -81 580 l -79 572 l -84 577 l -81 580 m -71 574 q -49 564 -59 571 l -62 558 l -71 574 m -507 566 q -502 561 -504 566 l -507 566 m -138 564 l -133 564 l -136 558 l -138 564 m -127 558 q -136 545 -129 550 l -127 558 m -109 547 q -114 553 -112 548 l -109 547 m -68 547 l -65 536 l -73 536 l -68 547 m -486 542 l -467 526 q -475 504 -468 515 l -486 509 l -477 523 l -486 542 m -144 539 q -138 528 -140 535 l -144 539 m -41 528 l -35 528 l -38 523 l -41 528 m -79 526 l -68 520 l -79 517 l -79 526 m -621 523 l -613 515 q -621 523 -618 517 m -529 523 q -524 517 -526 522 l -529 523 m -510 520 q -502 515 -505 519 q -510 520 -507 515 m 54 517 l 60 509 q 54 517 56 512 m 62 515 l 71 490 l 76 482 l 65 474 l 71 479 l 65 496 l 62 515 m -553 512 q -537 498 -543 507 l -543 485 l -559 496 l -545 498 l -553 512 m -127 512 l -114 509 l -122 498 l -133 488 l -125 482 l -130 460 l -111 463 l -103 485 l -98 471 l -95 441 l -84 441 l -92 433 q -84 425 -87 431 l -79 431 q -62 414 -73 422 l -54 428 l -43 441 l -41 431 l -27 439 q -38 458 -35 447 q -11 450 -26 452 l -3 460 q 3 452 1 458 l -11 441 l -3 447 q 22 441 7 441 l 27 428 q 43 420 35 425 l 71 409 q 87 401 77 403 l 90 401 l 71 385 q 87 393 79 387 l 84 387 l 87 385 l 98 390 l 100 385 l 90 376 l 68 371 l 71 390 q 62 379 64 385 l 54 363 q 71 336 67 353 q 87 325 76 328 l 79 333 q 106 347 92 337 q 95 355 103 353 q 84 360 91 359 l 95 368 q 103 360 98 362 q 117 349 108 353 l 103 338 q 95 325 98 333 l 90 311 l 68 319 l 65 311 l 71 309 l 62 311 q 68 322 62 317 l 65 330 l 57 325 l 46 328 q 24 322 35 326 l 33 319 l 24 314 l 11 333 l 14 325 l 11 306 l 22 303 l 22 309 l 24 306 l 35 319 l 46 306 l 38 300 l 35 309 l 19 298 l 8 303 l 5 292 q -14 287 -3 292 q -27 295 -18 294 q -33 300 -31 296 q -62 292 -47 298 l -52 295 q -43 292 -46 294 q -49 273 -43 277 q -68 238 -62 258 q -84 224 -77 229 l -98 227 l -103 235 l -92 227 q -79 243 -88 239 l -95 254 q -100 246 -99 252 q -117 235 -109 243 l -127 238 l -133 230 l -136 238 l -149 241 l -144 227 l -138 224 l -141 200 l -149 205 l -152 200 l -157 211 q -182 205 -170 210 l -165 200 l -174 189 l -182 181 l -168 173 l -163 149 l -171 157 l -168 127 q -163 132 -165 127 l -157 130 l -163 102 l -133 130 l -119 132 l -122 119 l -119 113 l -100 111 l -114 102 l -117 111 l -125 119 l -127 111 l -125 102 l -133 81 q -119 73 -125 79 l -125 78 l -149 70 q -165 92 -157 82 l -174 78 l -171 94 l -182 97 l -184 89 q -201 78 -192 81 l -233 86 q -225 94 -227 88 l -252 119 q -263 135 -258 125 l -282 143 q -301 159 -289 159 l -312 157 l -315 159 q -328 176 -323 165 q -298 184 -315 180 l -307 176 q -266 159 -290 167 l -260 181 l -274 189 q -288 176 -279 181 l -290 192 l -309 200 q -320 184 -317 193 l -326 192 l -336 168 l -355 178 q -342 184 -348 179 l -326 195 l -312 230 l -323 227 q -334 216 -328 224 q -345 227 -336 224 l -342 211 l -350 208 l -345 214 l -353 219 l -347 224 l -347 230 l -350 230 l -358 222 l -355 233 q -363 246 -356 240 q -355 268 -361 257 l -366 262 q -382 268 -373 267 l -372 265 q -380 254 -377 262 l -393 238 q -407 230 -398 231 q -415 238 -412 231 l -404 254 q -412 262 -409 257 q -423 281 -416 272 l -415 295 l -404 287 l -385 295 l -393 300 l -391 314 q -372 328 -382 322 q -336 314 -357 315 q -315 303 -327 309 q -301 295 -309 298 l -290 273 l -307 271 l -315 279 q -320 287 -315 284 l -328 284 q -323 279 -327 281 l -342 284 l -347 279 l -331 265 l -336 268 l -339 262 q -304 235 -326 245 q -298 230 -302 232 l -296 235 l -290 230 l -296 216 l -290 214 l -279 216 l -290 200 l -277 197 l -274 208 l -260 211 l -255 205 l -263 208 l -269 205 l -263 186 l -241 184 l -244 192 l -220 186 l -217 192 q -187 205 -200 197 l -209 227 l -201 233 q -190 222 -194 229 l -168 219 l -163 224 l -171 233 l -155 241 q -144 252 -151 245 l -125 254 l -117 271 q -125 284 -119 278 l -133 271 l -138 281 l -127 287 l -125 287 l -117 298 l -130 295 q -149 309 -141 305 l -141 317 l -146 322 l -160 328 l -155 333 l -152 330 l -138 363 l -144 357 l -141 347 l -133 355 l -125 368 l -152 371 l -163 366 l -171 376 l -160 374 l -160 379 q -176 387 -167 387 l -190 390 q -195 401 -195 394 l -190 406 l -193 398 l -184 395 l -182 420 l -195 431 q -168 417 -181 429 l -163 439 q -176 450 -174 439 l -179 460 l -171 460 l -176 450 l -165 441 q -160 447 -161 443 l -168 460 l -163 469 l -174 477 l -152 498 q -133 507 -142 500 l -127 498 l -125 509 l -127 512 m -312 507 l -301 501 q -312 507 -307 502 m -98 507 l -87 504 l -84 507 l -95 498 l -98 507 m -68 507 q -62 501 -64 506 l -68 507 m -244 504 l -239 504 l -241 498 l -244 504 m -176 504 q -168 493 -169 500 l -176 504 m -136 498 l -138 490 l -133 488 l -136 498 m -73 501 q -68 482 -69 493 q -60 469 -65 475 q -68 455 -64 463 q -76 460 -72 456 l -79 455 l -81 460 q -87 469 -87 463 q -79 482 -85 476 q -73 501 -79 492 m -117 490 q -122 496 -121 491 l -117 490 m -450 493 l -448 477 l -461 485 l -453 474 l -461 471 l -439 466 l -426 450 l -439 431 l -434 417 q -448 422 -439 422 l -450 436 q -461 425 -458 434 l -475 431 l -477 420 l -469 417 l -483 414 l -502 436 l -494 433 l -491 436 l -499 444 q -491 452 -497 452 q -483 444 -488 447 q -477 452 -483 450 l -467 474 l -450 493 m -412 493 q -401 482 -410 488 l -415 479 l -423 488 l -412 493 m -138 488 q -133 479 -137 482 l -138 488 m -38 490 q -33 485 -35 490 l -41 479 l -38 490 m -247 488 l -241 477 q -247 488 -246 480 m -130 479 l -130 474 l -125 477 l -130 479 m -342 477 l -336 463 l -339 458 l -350 463 l -342 477 m -103 474 q -98 463 -103 468 q -103 474 -99 469 m -526 471 l -529 463 l -532 474 l -526 471 m -46 474 q -52 463 -46 467 l -46 474 m -16 474 l -5 460 l -16 455 l -22 469 q -16 474 -19 469 m -301 469 q -317 452 -302 452 l -301 469 m -290 469 q -285 460 -286 467 l -290 469 m -157 460 l -157 466 l -160 466 l -157 460 m 60 469 q 65 458 64 465 l 60 469 m -103 458 l -103 463 l -106 463 l -103 458 m -445 458 q -450 441 -445 450 l -445 439 l -437 441 l -431 455 l -445 458 m -127 458 l -127 452 l -125 452 l -125 458 l -127 458 m -309 455 l -312 447 l -307 450 l -307 455 l -309 455 m -111 450 q -117 455 -112 453 q -111 450 -115 452 m -469 447 l -469 452 l -472 452 l -469 447 m -146 447 q -157 428 -155 438 q -146 447 -149 436 m -100 447 l -100 441 l -95 444 l -100 447 m -3 444 q -14 433 -7 439 l -8 425 q -3 444 -3 433 m -138 441 l -144 433 q -138 441 -139 435 m -439 433 l -439 439 l -442 439 l -439 433 m -545 439 l -534 425 l -543 428 l -543 422 q -534 414 -538 417 l -545 428 l -556 431 l -559 428 l -545 439 m -334 439 q -323 422 -326 433 q -334 439 -329 429 m -100 436 l -100 431 l -95 433 l -100 436 m -486 422 q -480 428 -481 424 q -486 422 -483 427 m 22 422 q 16 428 21 426 q 22 422 18 425 m -100 425 l -103 417 l -98 420 l -100 425 m -301 420 q -307 425 -304 420 l -301 420 m -84 422 q -79 414 -83 417 l -84 422 m -5 420 q 0 414 -5 416 l -5 420 m -543 412 l -551 401 l -548 417 l -543 412 m -182 414 l -182 406 l -179 406 l -182 414 m -165 414 l -171 401 q -165 414 -166 406 m -136 409 l -136 414 l -138 414 l -136 409 m -95 414 q -109 395 -104 407 q -95 414 -100 402 m -258 414 q -247 382 -254 399 q -255 366 -253 374 l -290 376 l -298 368 l -309 371 q -301 390 -307 380 l -288 395 q -309 404 -298 401 l -304 409 l -288 404 q -279 379 -286 391 q -269 390 -275 382 q -258 414 -265 402 m -117 412 l -117 401 l -109 409 l -117 412 m 130 414 l 141 409 l 149 414 l 136 404 l 138 387 l 127 390 q 122 404 123 396 l 130 414 m 168 414 q 176 404 174 411 l 168 414 m -136 406 l -130 395 q -136 406 -132 401 m -11 406 l -19 401 q -11 406 -14 402 m 62 398 l 62 404 l 60 404 l 62 398 m 184 406 l 187 398 l 182 395 l 184 406 m -418 404 l -410 398 q -418 404 -415 398 m -43 398 q -35 393 -41 394 l -43 398 m 133 398 q 138 393 134 394 q 133 398 138 395 m -445 398 q -439 390 -440 396 q -445 398 -443 393 m -391 398 l -377 395 q -382 374 -382 383 l -385 360 l -380 352 q -393 347 -386 351 l -396 355 l -388 371 l -391 398 m -57 395 q -52 385 -56 389 q -57 395 -53 391 m 163 398 l 171 393 q 163 398 166 394 m -399 395 l -396 387 l -404 393 l -399 393 l -399 395 m -385 393 l -388 385 l -380 390 l -385 393 m -160 393 l -163 385 l -157 387 l -157 393 l -160 393 m -5 387 l -5 393 l -8 393 l -5 387 m -423 393 l -415 390 l -420 387 l -423 393 m -298 382 l -298 387 l -301 387 l -298 382 m 57 382 q 52 387 56 385 q 57 382 52 385 m 163 390 l 160 379 l 163 376 l 176 382 l 187 368 l 179 390 q 187 387 184 389 q 195 371 189 378 l 206 363 l 193 352 l 190 347 l 184 352 q 176 344 182 347 l 182 355 l 157 344 l 157 352 l 155 352 l 157 355 l 138 352 l 152 347 l 160 333 q 152 344 154 338 l 136 341 l 133 352 l 136 355 q 125 366 133 362 l 141 371 l 152 366 l 157 368 l 155 371 q 163 390 157 380 m -358 387 l -350 385 l -358 382 l -358 387 m -71 385 l -65 376 q -71 385 -66 382 m -125 382 q -114 363 -123 371 l -125 382 m -198 382 l -187 360 q -198 382 -194 369 m -114 379 q -103 368 -111 374 q -114 379 -107 374 m -445 379 q -453 366 -447 372 l -445 379 m -298 371 l -298 376 l -301 376 l -298 371 m -127 371 q -133 376 -128 374 q -127 371 -132 374 m -24 376 q -19 366 -23 370 q -24 376 -19 372 m -372 366 q -377 371 -374 366 l -372 366 m 160 368 l 152 363 q 160 368 157 363 m -87 366 l -87 360 l -84 360 l -84 366 l -87 366 m -27 360 l -22 363 l -24 366 l -27 360 m 16 360 l 16 366 l 14 366 l 16 360 m -420 360 q -426 366 -424 360 l -420 360 m -87 355 q -81 360 -83 355 q -87 355 -84 359 m -68 360 l -90 341 l -71 349 l -73 330 l -92 322 l -81 319 l -106 292 q -81 306 -89 294 l -65 314 q -57 300 -64 305 l -54 336 q -68 360 -60 348 m -33 360 l -38 352 l -27 357 l -33 360 m -3 360 l -19 347 l -11 344 l -5 349 q 8 338 -1 342 l 22 336 q 11 347 19 342 l -3 360 m -119 357 l -125 344 q -119 338 -123 341 l -117 341 q -111 355 -116 348 l -119 357 m -60 357 l -54 349 q -60 357 -55 355 m -19 357 q -24 347 -23 353 l -11 355 l -19 357 m 19 357 l 16 347 l 24 349 l 19 357 m 114 360 l 122 355 q 114 360 117 355 m 163 357 q 168 352 163 354 q 163 357 168 355 m 222 360 q 228 355 226 359 l 222 360 m -429 357 q -423 349 -425 355 l -429 357 m -214 357 q -209 349 -210 355 q -214 357 -212 352 m 43 355 l 52 347 q 43 355 49 351 m -502 355 l -491 349 l -502 347 l -502 355 m -138 344 l -136 341 l -130 344 l -130 349 l -133 349 l -138 344 m -27 349 l -33 341 q -27 349 -28 344 m -193 349 l -184 341 q -193 349 -190 343 m -35 341 l -35 347 l -38 347 l -35 341 m -24 341 l -16 336 l -19 347 l -24 341 m 62 347 l 57 336 l 68 341 q 62 347 66 344 m 201 347 l 209 317 l 190 311 l 176 325 q 174 314 174 321 l 168 319 l 155 314 q 133 336 147 323 l 155 330 l 157 319 l 201 347 m -174 344 q -187 330 -179 336 l -174 344 m 41 341 l 35 333 q 41 341 39 336 m -117 336 l -117 330 l -111 333 l -117 336 m 163 338 l 171 336 l 165 333 l 163 338 m -350 336 q -345 328 -345 334 l -350 336 m 109 336 q 125 330 116 331 l 117 319 l 103 322 q 109 336 108 328 m 152 330 l 152 325 q 152 330 155 328 m 130 325 l 141 328 l 127 319 l 122 322 l 127 330 l 130 325 m -399 328 l -396 314 l -401 317 l -399 328 m -372 325 l -372 319 q -372 325 -369 322 m -141 319 l -133 314 l -130 325 l -136 325 l -141 319 m -46 325 l -49 317 l -43 317 l -41 325 l -46 325 m -35 325 q -22 317 -30 319 l -35 325 m -464 325 l -456 322 l -464 319 l -464 325 m -331 319 q -336 325 -334 320 l -331 319 m -570 317 l -572 314 l -575 322 l -570 317 m -38 314 l -38 319 l -41 319 l -38 314 m 3 314 l 8 317 l 5 319 l 3 314 m -125 317 l -122 309 l -119 317 l -125 317 m -385 314 q -377 298 -384 304 l -369 309 q -385 314 -376 310 m -355 314 l -366 303 q -355 314 -359 305 m -52 309 l -52 314 l -54 314 l -52 309 m 35 314 q 41 309 36 311 q 35 314 39 311 m -160 314 l -155 306 q -160 314 -159 309 m -46 311 q -41 306 -45 308 q -46 311 -41 309 m 57 314 q 52 309 56 311 l 57 314 m 106 314 l 117 311 l 119 314 q 109 303 115 311 q 100 311 103 305 l 106 309 l 106 314 m -71 309 q -76 300 -75 306 q -71 309 -71 302 m 217 311 q 225 306 222 311 l 214 298 l 217 311 m -271 309 l -263 303 q -271 309 -269 303 m 157 309 l 171 300 q 157 309 163 302 m -363 300 l -355 295 q -363 300 -357 299 m -347 295 q -342 300 -342 296 l -347 295 m -331 298 q -323 287 -330 291 l -331 298 m -293 300 q -288 295 -290 300 l -293 300 m 149 300 q 138 287 145 293 l 149 300 m -79 295 q -60 281 -72 286 l -79 295 m -71 290 l -65 290 l -65 295 l -68 295 l -71 290 m -342 287 l -336 284 l -334 290 l -339 292 l -342 287 m -92 292 q -109 276 -100 287 q -92 292 -94 277 m -358 290 l -366 276 l -353 268 l -350 287 l -358 290 m -84 284 l -79 281 l -76 287 l -81 290 l -84 284 m 22 287 q 30 279 30 285 q 19 273 24 278 l 22 287 m 0 284 q -14 268 -5 275 l 0 284 m 46 284 l 41 273 q 46 284 42 279 m 60 279 q 65 273 63 278 l 57 262 q 71 271 64 264 l 90 279 l 90 273 l 84 268 l 76 273 l 84 257 l 79 254 l 65 257 q 54 271 59 262 l 60 279 m -399 273 l -391 268 q -399 273 -393 272 m -363 273 l -363 268 q -363 273 -361 271 m -24 276 q -35 265 -28 271 l -24 276 m -388 271 l -391 265 l -385 265 l -385 271 l -388 271 m -100 265 q -106 271 -101 269 q -100 265 -104 268 m 92 273 l 100 271 l 90 268 l 92 273 m -236 268 l -225 260 q -236 268 -233 262 m -90 265 q -81 257 -87 260 l -90 265 m -396 262 l -404 249 l -388 257 l -396 262 m -317 265 l -309 262 l -317 260 l -317 265 m 176 265 q 190 257 184 263 l 176 265 m -382 254 l -382 260 l -385 260 l -382 254 m -71 252 l -71 257 l -73 257 l -71 252 m -176 254 l -168 252 l -179 249 l -176 254 m -122 252 l -122 246 l -117 249 l -122 252 m 125 254 l 133 241 l 125 235 l 122 246 l 125 254 m -342 243 q -347 249 -342 247 q -342 243 -346 246 m -247 249 q -241 243 -243 248 l -250 238 l -244 243 l -247 249 m -171 249 q -184 243 -177 245 q -171 249 -178 244 m -222 246 q -217 238 -218 244 l -222 246 m 168 246 q 179 227 176 239 q 184 216 184 222 l 190 224 q 209 219 199 223 l 201 208 l 190 168 l 203 165 l 195 151 l 212 135 l 193 130 q 184 151 191 140 l 187 135 l 184 149 q 174 138 182 142 l 176 130 l 174 127 q 165 132 170 132 q 152 127 159 131 l 155 108 q 149 121 150 114 q 141 130 144 123 l 122 121 l 127 127 l 125 130 q 133 140 125 139 q 141 146 136 145 l 130 127 l 171 143 q 152 151 161 144 l 141 159 l 130 151 l 127 162 q 133 170 133 165 l 160 195 l 171 197 l 165 205 q 174 224 167 216 q 168 246 169 233 m -372 243 q -366 238 -368 243 q -372 243 -369 239 m -317 241 l -326 233 q -317 241 -320 235 m 176 233 q 171 238 176 236 q 176 233 172 235 m -233 235 l -231 227 l -236 227 l -233 235 m -331 230 l -331 224 l -328 224 l -328 230 l -331 230 m 119 233 l 138 222 l 141 214 q 119 197 129 208 q 144 205 130 203 l 122 186 l 114 168 l 122 159 l 100 130 q 114 116 104 121 l 122 113 q 114 108 119 109 l 90 111 l 98 102 q 87 89 90 97 q 81 83 83 85 q 73 102 77 91 l 60 111 l 38 113 q 49 119 42 118 l 62 113 q 68 121 64 118 l 76 143 l 81 146 l 98 138 l 103 143 l 90 154 l 98 168 q 114 184 106 174 l 100 176 l 103 184 l 79 178 l 84 186 l 95 214 l 111 224 l 103 216 l 125 214 l 119 233 m -450 227 q -445 222 -447 227 l -453 216 l -450 227 m -269 227 l -266 216 l -271 222 l -274 219 l -269 227 m -260 227 q -255 222 -257 227 l -260 227 m -220 227 l -212 222 q -220 227 -216 223 m 35 227 q 46 219 43 226 q 35 200 42 210 q 27 208 30 202 l 35 227 m -439 222 l -437 211 l -445 211 q -439 222 -441 214 m -410 222 l -401 219 l -410 216 l -410 222 m -369 219 l -366 211 l -372 216 l -369 219 m -399 216 l -396 192 l -407 200 l -399 216 m -309 214 q -315 203 -314 210 l -304 205 l -309 214 m -84 216 q -79 211 -81 216 l -81 208 l -84 216 m 79 216 l 87 205 q 79 216 80 208 m 38 211 l 35 203 l 41 205 l 41 211 l 38 211 m 228 214 l 231 200 l 222 203 l 228 214 m -119 211 q -114 189 -115 202 l -119 211 m -431 208 q -418 200 -423 206 q -431 208 -425 203 m -350 205 q -345 197 -345 203 l -347 186 l -345 184 l -358 189 l -369 186 l -372 195 l -363 197 q -350 205 -355 199 m 176 203 l 182 192 l 184 200 l 176 203 m -480 203 l -472 189 l -483 195 q -491 189 -485 191 l -480 203 m -182 195 l -176 195 l -176 200 l -179 200 l -182 195 m 114 197 l 119 186 q 114 197 119 193 m -60 197 q -54 192 -56 197 q -60 197 -58 193 m 95 192 l 98 184 l 100 189 l 95 192 m 184 192 l 193 186 q 184 192 191 191 m -429 192 l -431 176 l -426 159 l -450 165 l -445 170 q -429 192 -441 183 m -195 189 l -198 178 l -190 181 l -195 189 m 5 192 l -5 170 l 5 157 l 0 146 q 8 138 6 144 l -3 143 q -11 135 -8 140 q -27 143 -18 140 l -19 111 l -22 97 l -35 102 q -43 75 -40 90 l -54 73 l -57 75 l -41 86 l -52 92 q -79 73 -66 84 l -65 127 l -68 143 q -46 138 -59 138 l -33 149 l -14 159 l -5 149 q -27 168 -12 162 l -16 184 l 5 192 m 182 186 l 179 178 l 184 178 l 187 186 l 182 186 m -499 186 q -491 178 -494 184 q -499 186 -496 180 m -334 178 l -334 184 l -336 184 l -334 178 m 117 184 l 114 178 l 119 178 l 119 184 l 117 184 m -247 173 l -247 178 l -250 178 l -247 173 m -209 176 l -212 168 l -206 170 l -206 176 l -209 176 m -146 176 q -130 157 -138 168 q -141 143 -134 149 l -149 149 q -141 165 -144 156 q -146 176 -146 169 m -54 176 q -49 170 -51 175 l -52 168 l -57 173 l -54 176 m 98 170 l 90 168 l 92 176 l 98 170 m -309 165 q -315 170 -309 168 q -309 165 -313 168 m 76 173 l 65 159 q 76 173 68 167 m -222 168 q -214 143 -222 155 l -222 168 m -90 170 l -84 157 l -90 151 l -98 146 l -100 151 q -95 162 -100 157 l -90 170 m 193 162 l 198 162 l 195 168 l 193 162 m -217 159 l -212 162 l -214 165 l -217 159 m -114 168 q -109 162 -111 167 q -114 168 -112 163 m 155 159 l 155 165 l 152 165 l 155 159 m 157 165 l 163 154 q 157 165 161 160 m -420 165 l -420 146 l -431 149 q -420 165 -425 155 m -288 162 q -282 157 -286 159 q -288 162 -282 160 m -255 162 l -255 157 l -252 157 l -252 162 l -255 162 m 43 165 l 41 143 l 35 159 l 43 165 m 114 162 l 111 151 l 119 154 l 114 162 m -176 159 l -176 154 l -174 154 l -174 159 l -176 159 m -138 159 l -141 151 l -136 151 l -133 159 l -138 159 m 193 151 l 193 157 l 190 157 l 193 151 m -206 149 l -203 151 l -212 154 q -206 149 -210 151 m 30 157 q 11 140 23 147 l 30 157 m -271 146 l -271 151 l -274 151 l -271 146 m -19 146 q -14 151 -15 146 q -19 146 -16 150 m 49 154 l 54 154 l 52 149 l 49 154 m -458 149 q -445 132 -451 142 l -442 143 q -418 130 -429 138 l -437 135 l -442 127 l -450 130 l -458 149 m -76 149 q -81 130 -81 138 q -76 149 -81 140 m 62 149 q 54 124 60 136 l 62 149 m -388 146 l -380 135 q -388 146 -386 138 m 46 146 q 52 130 50 139 l 41 132 l 46 146 m 201 143 l 193 135 q 201 143 198 137 m -317 143 l -304 138 q -317 143 -312 138 m -296 132 l -304 130 l -301 138 l -296 132 m -73 138 q -68 132 -70 137 l -73 138 m 214 135 q 220 130 218 134 l 225 132 q 220 119 220 126 q 206 124 214 124 l 214 135 m -152 132 l -141 127 q -152 132 -147 127 m -193 121 l -193 127 l -195 127 l -193 121 m -439 127 q -445 121 -440 123 l -439 127 m -54 119 l -54 124 l -57 124 l -54 119 m -198 116 l -198 121 l -201 121 l -198 116 m -165 111 l -163 113 l -171 116 q -165 111 -170 113 m -339 116 q -345 108 -340 111 l -339 116 m -307 116 q -301 108 -302 114 l -307 116 m -320 113 l -315 105 q -320 113 -318 108 m -217 105 l -217 111 l -220 111 l -217 105 m 136 113 q 141 94 140 105 l 146 89 l 130 81 l 122 86 l 119 75 q 125 70 123 75 l 111 75 l 98 89 l 103 92 l 100 100 l 114 94 q 127 108 122 98 l 130 97 l 136 113 m -190 108 l -193 97 l -187 97 l -187 108 l -190 108 m 5 105 l 24 100 q 19 86 24 92 l -5 89 q 5 105 1 95 m 214 97 l 212 94 l 209 102 l 214 97 m -244 100 q -250 83 -244 90 l -260 75 l -269 81 q -258 89 -262 83 l -244 100 m 62 100 q 57 86 62 92 l 62 100 m -33 94 l -24 92 l -35 89 l -33 94 m -304 86 q -298 78 -300 83 q -304 86 -302 81 m -201 83 l -201 78 l -195 81 l -201 83 m -11 78 l -14 75 l -16 83 l -11 78 m 117 75 q 111 81 116 79 l 117 75 m 43 81 l 52 70 q 43 81 45 73 m 65 81 q 71 75 68 80 l 68 73 l 65 81 m -109 70 q -114 75 -112 71 l -109 70 m 136 70 l 152 62 q 133 51 142 54 l 122 64 l 133 62 l 136 70 m -65 67 l -54 67 q -62 59 -60 63 l -65 67 m 35 62 l 38 45 l 30 56 q 35 62 33 57 m -46 59 l -43 51 l -49 56 l -46 59 m 16 59 q 22 48 21 55 l 16 59 m -60 54 l -49 51 l -60 40 q -68 32 -62 33 l -60 54 m 5 54 q 11 48 9 53 q 5 54 7 50 m -353 51 l -345 40 l -355 32 l -353 51 m 54 51 q 84 35 69 45 l 68 37 l 73 29 l 62 40 l 54 51 m -225 48 q -220 40 -221 45 l -225 48 m -152 45 l -127 26 l -138 24 l -141 26 l -152 45 m 0 45 l 5 45 l 3 40 l 0 45 m 8 45 l 24 29 l 19 21 l 0 5 l -8 -12 l -24 -31 l -11 -52 l -19 -93 l -30 -82 l -52 -87 l -49 -74 l -52 -77 q -84 -68 -67 -75 q -103 -85 -92 -76 l -117 -104 l -127 -96 l -122 -74 q -138 -90 -131 -79 l -144 -77 l -155 -93 l -149 -74 l -157 -66 l -152 -71 q -144 -63 -150 -66 q -160 -44 -144 -48 q -138 -33 -150 -40 l -144 -41 l -133 -47 q -114 -28 -125 -36 q -109 -33 -113 -31 l -98 -25 l -122 -6 q -106 10 -117 2 l -92 24 q -87 18 -92 21 l -73 24 q -87 13 -79 18 l -100 -1 l -109 -12 l -92 -22 q -81 -9 -84 -16 q -52 7 -66 -3 q -62 18 -54 14 q -52 26 -55 22 l -54 40 l -33 43 l -35 37 q -22 24 -30 29 q -14 13 -18 16 l -30 -1 q -11 24 -14 5 q 8 45 1 31 m 49 35 q 60 26 55 33 l 49 35 m -165 32 l -160 24 q -165 32 -165 26 m -46 26 l -49 21 l -43 18 l -43 26 l -46 26 m -33 18 q -27 24 -29 19 q -33 18 -30 22 m -103 18 l -111 13 l -109 24 l -103 18 m -3 21 l -5 13 l 3 16 q -3 21 2 18 m -41 18 q -33 7 -38 12 l -41 18 m 76 18 q 81 13 79 18 q 76 18 78 14 m -358 16 q -353 -3 -353 7 q -358 16 -357 5 m -5 10 q 0 5 -5 7 q -5 10 -1 7 m -155 10 l -146 5 l -157 -1 l -155 10 m -347 7 l -326 -9 q -331 -25 -327 -18 q -342 -20 -335 -20 q -334 -9 -336 -16 q -347 7 -342 -2 m -35 5 l -38 -1 l -33 -3 l -30 5 l -35 5 m -114 -1 l -114 -6 l -109 -3 l -114 -1 m -236 -1 l -222 -6 q -233 -12 -228 -7 l -236 -1 m -184 -3 q -176 -14 -178 -7 q -149 -25 -163 -18 l -146 -33 l -152 -33 l -160 -25 l -171 -20 l -168 -33 l -168 -47 q -174 -36 -171 -39 q -184 -44 -178 -43 q -193 -22 -189 -35 q -184 -3 -186 -14 m -212 -6 l -203 -12 q -212 -6 -209 -11 m -190 -6 l -187 -14 l -193 -9 l -190 -6 m -54 -12 l -54 -17 l -52 -17 l -52 -12 l -54 -12 m -228 -12 q -214 -25 -219 -16 l -228 -36 l -222 -20 l -228 -12 m -103 -20 q -109 -14 -104 -16 l -103 -20 m -182 -20 q -176 -25 -181 -23 q -182 -20 -177 -22 m -206 -22 l -203 -31 l -209 -31 l -206 -22 m -106 -28 l -109 -31 l -111 -22 l -106 -28 m -5 -22 l 3 -31 q -5 -22 -3 -28 m -290 -25 q -266 -44 -277 -31 q -290 -25 -281 -41 m -57 -33 q -62 -28 -58 -29 q -57 -33 -61 -31 m -52 -36 l -52 -31 l -54 -31 l -52 -36 m -79 -33 l -79 -39 l -73 -36 l -79 -33 m -49 -36 l -68 -44 q -49 -36 -57 -43 m -73 -39 l -71 -47 l -68 -39 l -73 -39 m -35 -39 q -30 -44 -35 -42 q -35 -39 -31 -41 m -24 -44 l -24 -39 l -27 -39 l -24 -44 m -3 -41 l 11 -47 l 16 -41 l 0 -52 l -3 -41 m -33 -47 q -22 -55 -28 -52 l -33 -47 m -138 -50 l -144 -60 q -138 -50 -138 -56 m -73 -60 l -65 -58 l -71 -55 l -73 -60 m -138 -63 q -133 -58 -134 -62 l -138 -63 m -98 -58 l -95 -66 l -95 -58 l -98 -58 m -33 -63 l -27 -63 l -30 -58 l -33 -63 m -16 -60 l -22 -68 q -16 -60 -17 -66 m -76 -63 l -71 -71 q -76 -63 -71 -66 m -149 -66 q -141 -71 -146 -69 q -149 -66 -143 -67 m -90 -66 l -90 -71 l -87 -71 l -87 -66 l -90 -66 m -165 -66 l -160 -74 q -165 -66 -165 -71 m -282 -68 q -277 -87 -277 -77 q -282 -68 -281 -79 m -35 -77 l -27 -74 l -33 -71 l -35 -77 m -100 -79 q -95 -74 -97 -78 l -100 -79 m -114 -85 q -119 -79 -115 -81 q -114 -85 -118 -82 m -146 -90 l -136 -98 q -146 -90 -142 -96 m -92 -93 q -98 -104 -92 -99 l -92 -93 m -46 -93 q -57 -106 -50 -100 l -46 -93 m 146 -101 l 157 -109 q 146 -101 151 -106 m -46 -104 l -35 -117 l -52 -125 l -60 -134 l -76 -123 l -60 -109 q -54 -117 -58 -113 l -46 -104 m -100 -112 l -106 -134 q -100 -112 -105 -122 m -100 -125 l -92 -125 l -98 -134 l -100 -125 m -127 -131 q -133 -139 -129 -136 l -127 -131 m 179 -131 q 190 -150 189 -139 q 209 -172 201 -157 l 222 -161 l 220 -172 q 209 -177 216 -176 q 190 -163 198 -173 l 195 -155 l 190 -153 q 174 -161 182 -154 l 171 -155 l 187 -142 l 179 -131 m -220 -134 q -214 -139 -216 -134 q -220 -134 -217 -138 m -73 -134 q -79 -142 -74 -138 l -73 -134 m 168 -134 l 174 -142 q 168 -134 170 -139 m 160 -142 l 165 -142 l 163 -147 l 160 -142 m 206 -169 l 206 -163 l 203 -163 l 206 -169 m -122 -172 q -117 -182 -119 -175 l -122 -172 m -79 -172 q -73 -182 -74 -175 l -79 -172 m 176 -174 l 179 -185 l 174 -182 l 176 -174 m -109 -180 q -90 -199 -98 -186 q -117 -207 -102 -200 l -114 -210 q -130 -199 -123 -206 l -119 -201 q -109 -180 -112 -191 m -241 -218 l -228 -220 l -236 -223 l -241 -218 m -201 -220 q -209 -229 -203 -226 l -201 -220 m -632 -269 l -624 -272 l -632 -275 l -632 -269 z "},")":{"ha":4,"x_min":-374,"x_max":505,"o":"m -14 755 q -5 741 -12 749 l -30 741 l -14 755 m -5 755 q 0 749 -2 754 l -5 755 m -22 733 q -27 739 -26 733 l -22 733 m -84 730 l -79 730 l -81 725 l -84 730 m -35 728 l -41 714 q -52 722 -47 716 q -35 728 -43 724 m 184 703 l 193 706 q 182 687 189 696 l 174 695 q 182 709 178 701 l 184 703 m 11 706 l 24 698 q 11 706 18 700 m 41 698 q 49 684 47 692 q 35 695 41 688 l 41 692 l 41 698 m 84 698 l 90 698 l 87 692 l 84 698 m 111 684 q 127 663 119 675 l 117 668 l 114 644 l 106 654 q 111 684 111 670 m 65 676 l 79 673 l 84 676 q 73 660 77 671 q 90 668 82 661 l 95 641 l 106 627 l 109 635 q 122 622 113 623 l 141 619 q 136 606 137 614 l 149 597 l 133 595 l 138 578 q 146 568 144 575 l 138 562 l 141 570 l 138 576 l 117 581 q 95 589 106 583 q 76 619 78 598 l 41 654 l 35 671 l 57 663 l 65 676 m 62 646 l 71 641 l 73 649 l 68 652 l 62 646 m -11 649 q -5 644 -7 648 l -11 649 m -46 644 l -27 630 q -46 644 -38 634 m 38 644 l 41 627 l 24 630 l 38 644 m 505 644 q 496 633 504 636 q 505 644 502 636 m -171 638 q -163 622 -165 631 l -174 619 l -176 622 l -174 606 l -187 597 l -193 584 l -176 587 q -146 600 -162 592 l -127 608 q -122 600 -123 606 q -136 573 -127 587 q -157 551 -146 564 q -171 562 -168 551 q -190 546 -184 562 l -179 549 q -190 535 -182 541 l -206 524 l -198 516 q -209 489 -201 503 l -201 478 q -222 473 -211 477 l -231 484 l -206 494 l -214 503 l -206 511 q -220 505 -213 511 l -212 522 l -209 543 q -214 535 -213 541 q -222 524 -220 532 q -228 532 -227 526 l -212 557 q -231 549 -220 555 l -236 568 l -231 573 l -236 581 q -252 576 -241 577 l -250 562 l -255 578 l -250 576 l -228 592 q -220 616 -222 602 l -187 614 q -193 627 -193 618 q -171 638 -181 630 m 127 635 q 122 627 127 631 l 127 635 m -182 630 l -182 625 l -179 625 l -179 630 l -182 630 m -43 627 l -38 627 l -41 622 l -43 627 m 106 619 l 106 625 l 103 625 l 106 619 m -60 622 q -54 616 -56 621 q -60 622 -58 617 m 160 616 q 176 603 169 612 q 182 587 176 595 l 190 578 l 193 559 l 184 554 q 174 570 181 565 l 149 608 q 160 616 155 610 m -46 614 q -33 603 -38 611 l -38 600 l -52 603 l -46 614 m 141 614 l 146 614 l 144 608 l 141 614 m 190 611 l 198 608 l 190 606 l 190 611 m 90 600 l 95 600 l 95 606 l 92 606 l 90 600 m 98 606 l 98 600 l 103 603 l 98 606 m -138 603 l -138 597 l -133 600 l -138 603 m 477 603 l 496 597 q 488 584 490 593 l 480 573 q 458 578 471 578 l 477 603 m -3 595 q -8 600 -6 595 l -3 595 m 62 592 q 54 578 60 584 l 62 592 m 439 592 q 445 587 443 591 q 439 592 441 587 m 423 587 l 434 578 q 423 587 425 581 m -374 584 l -366 581 l -374 578 l -374 584 m -38 584 l -33 573 q -38 584 -37 577 m 0 581 l 8 578 l 3 576 l 0 581 m -201 568 l -209 557 q -201 568 -203 561 m 258 570 l 263 570 l 260 565 l 258 570 m -193 565 q -187 559 -192 562 q -193 565 -188 563 m -11 562 l 0 557 l -8 551 l -11 562 m 315 557 l 326 538 l 320 541 l 312 535 l 309 538 l 301 549 q 315 557 310 549 m 214 543 l 231 538 l 222 535 l 214 543 m -130 541 q -125 535 -127 540 q -130 541 -128 536 m 396 541 q 388 524 394 532 l 396 541 m 163 535 l 171 538 l 160 524 l 157 538 l 163 535 m 412 532 q 407 538 408 532 l 412 532 m -184 532 l -179 532 l -182 527 l -184 532 m -176 530 l -163 527 l -157 530 q -174 513 -161 522 q -187 519 -180 514 l -182 516 l -179 522 l -174 519 l -176 530 m 201 527 l 225 522 l 217 516 l 201 527 m 429 527 l 437 513 q 429 527 429 517 m 461 527 q 472 524 465 525 l 453 511 l 461 527 m 8 522 q -14 503 3 507 l 8 522 m 339 522 q 347 505 342 511 l 353 481 l 347 484 l 342 478 l 345 473 l 353 478 q 366 484 359 483 q 358 462 366 473 l 345 456 q 350 473 350 464 q 336 478 344 473 l 334 475 l 336 467 l 323 459 q 309 473 319 467 l 315 465 l 309 465 l 309 462 q 301 470 305 467 q 307 484 302 478 l 323 489 l 328 478 l 339 486 l 334 497 l 339 522 m -269 516 l -260 508 l -274 505 q -269 516 -269 509 m 410 516 l 412 508 l 407 513 l 410 516 m 399 513 q 404 508 402 513 l 399 513 m -38 511 q -30 484 -31 498 q -41 494 -33 490 q -35 481 -40 487 l -16 473 l -11 481 l 14 465 l 24 470 l 27 446 q 16 451 20 446 l 30 440 l 35 408 l 43 418 q 52 408 44 412 l 62 383 q 71 367 68 376 q 84 375 76 374 l 87 372 q 68 351 75 365 q 79 342 74 349 l 60 348 l 54 353 l 65 364 l 38 370 l 43 361 l 35 340 q 22 318 32 328 q 14 337 20 328 l -16 351 l -14 370 l -19 367 q -33 383 -24 376 q -24 405 -27 393 l -22 410 l -24 418 l -49 408 l -46 429 l -62 418 l -68 440 l -84 448 q -100 437 -90 442 l -119 424 l -114 437 l -122 435 l -141 421 l -146 435 q -136 459 -144 447 l -114 465 l -119 448 l -98 456 q -87 446 -92 453 l -73 470 q -60 497 -69 485 q -38 511 -47 501 m 182 511 q 187 505 185 510 l 182 511 m -35 497 l -35 503 l -38 503 l -35 497 m 8 505 l 14 497 q 8 505 10 500 m 358 497 q 353 503 355 498 l 358 497 m -250 500 q -255 489 -250 492 l -250 500 m -43 489 q -49 494 -44 492 q -43 489 -47 492 m 52 484 q 57 478 55 483 l 52 484 m 122 484 q 136 475 130 482 q 122 484 129 477 m 160 484 l 174 478 l 171 459 q 198 454 184 454 l 212 478 l 228 456 l 228 470 l 233 456 l 250 467 l 247 459 l 250 456 l 255 437 l 228 418 q 233 413 229 414 l 239 424 q 244 413 239 416 l 252 410 l 247 402 q 241 397 242 401 l 247 386 l 260 402 l 269 391 q 282 367 273 380 l 274 351 l 285 337 q 260 345 271 340 l 244 351 l 231 359 l 236 353 l 231 375 l 228 380 l 233 383 l 212 378 l 201 389 q 193 380 195 387 q 176 391 187 388 q 187 405 180 399 l 179 410 l 165 402 l 174 408 l 174 416 l 168 413 l 157 432 l 165 440 l 163 446 l 155 446 l 157 443 l 136 448 l 125 456 l 141 475 l 138 465 l 144 465 q 160 484 152 472 m -141 478 l -133 475 l -141 467 l -141 478 m -24 475 l -33 465 l -16 462 q -24 475 -19 469 m -11 470 l -5 467 l -3 473 l -8 475 l -11 470 m -68 473 l -73 462 l -60 465 q -68 473 -62 470 m -8 462 l 0 462 l -3 467 q -8 462 -5 466 m -184 467 q -179 462 -181 467 q -184 467 -182 463 m 182 467 l 190 459 q 182 467 184 461 m -244 459 q -250 465 -247 460 l -244 459 m 52 459 q 60 429 58 446 q 52 459 54 442 m -239 456 l -222 454 l -241 448 l -239 456 m 288 456 q 298 448 295 454 l 288 456 m 328 456 q 342 446 336 453 l 328 456 m -33 446 l -30 448 l -38 451 q -33 446 -37 448 m -3 446 l -3 451 l -5 451 l -3 446 m 263 454 q 290 435 277 441 l 309 429 l 301 418 l 307 402 q 312 386 307 394 q 296 380 304 386 l 277 394 l 266 424 l 271 416 l 282 424 l 271 432 l 263 454 m 239 446 q 244 437 239 440 l 239 446 m -106 443 l -106 437 l -103 437 l -103 443 l -106 443 m -109 435 q -114 440 -109 438 q -109 435 -113 437 m 209 440 q 214 429 210 434 l 209 440 m 190 432 l 190 437 l 187 437 l 190 432 m 184 429 l 184 435 l 182 435 l 184 429 m 206 429 l 206 435 l 203 435 l 206 429 m 222 435 l 225 427 l 228 432 l 222 435 m 14 432 l 14 427 l 19 429 l 14 432 m 49 435 q 54 429 52 434 l 46 427 l 49 435 m -347 432 q -334 421 -338 429 q -347 432 -345 422 m -184 432 q -163 416 -177 418 q -146 405 -153 412 q -138 375 -140 391 l -157 380 l -165 370 l -198 367 q -209 359 -203 360 q -220 372 -216 366 q -231 380 -224 378 l -222 386 q -214 410 -214 397 l -239 424 l -217 421 l -212 413 l -198 418 q -187 427 -194 425 l -193 424 l -190 416 q -179 399 -186 407 l -184 432 m 285 424 q 290 429 288 425 q 285 424 288 428 m 65 429 q 60 421 65 424 l 65 429 m 193 427 l 184 421 l 193 410 l 206 416 l 203 408 l 206 405 l 203 397 q 212 408 210 401 q 193 427 205 418 m -155 427 l -149 418 q -155 427 -153 421 m 71 427 l 90 416 q 71 427 80 418 m 114 424 q 133 402 121 412 l 138 386 l 165 389 l 163 378 l 138 375 q 114 397 129 387 l 106 383 l 98 397 l 106 394 l 109 397 l 98 399 l 106 408 l 114 424 m 217 421 l 212 410 q 217 421 216 414 m 277 421 l 271 413 l 279 410 l 277 421 m 182 413 l 182 418 l 179 418 l 182 413 m -195 408 l -193 410 l -201 413 q -195 408 -199 410 m 57 416 l 65 413 l 57 405 l 60 413 l 57 416 m 212 405 l 220 402 l 217 410 q 212 405 214 409 m -203 408 l -206 399 l -198 402 q -203 408 -199 406 m 111 408 q 117 399 113 403 q 111 408 116 405 m 233 402 l 233 408 l 231 408 l 233 402 m 391 410 q 407 399 398 404 l 391 397 l 393 408 l 391 410 m 220 399 q 225 405 223 400 q 220 399 222 404 m -187 402 l -195 386 q -190 380 -194 382 l -187 402 m -46 405 q -38 389 -39 398 q -46 405 -44 396 m 141 405 q 146 399 144 404 q 141 405 143 400 m -179 394 q -174 399 -174 395 l -179 394 m -149 394 l -149 399 l -152 399 l -149 394 m -201 397 l -201 391 l -195 394 l -201 397 m -152 389 l -149 383 l -144 386 l -146 394 l -152 389 m 35 389 q 41 394 39 389 q 35 389 38 393 m 206 394 q 217 383 210 389 q 206 394 215 390 m -163 386 q -157 391 -158 386 q -163 386 -160 390 m 52 386 l 49 378 q 54 383 52 379 l 52 386 m 174 389 l 179 372 q 174 389 175 379 m 60 383 l 54 372 l 62 367 l 65 380 l 60 383 m 114 386 q 119 380 117 385 q 114 386 115 382 m -182 370 l -176 372 l -179 375 l -182 370 m 271 375 l 269 364 l 274 359 l 277 372 l 271 375 m 95 375 q 100 370 98 374 l 92 367 l 95 375 m 193 375 q 201 364 199 372 l 193 361 l 198 372 l 193 375 m 217 370 l 222 370 l 220 364 l 217 370 m 328 370 q 323 361 327 365 l 328 370 m -190 367 l -187 359 l -193 364 l -190 367 m -176 359 l -179 356 l -182 364 l -176 359 m 90 364 q 84 359 89 361 l 90 364 m 203 364 l 206 356 l 217 361 q 209 345 210 355 l 198 351 l 193 345 l 203 364 m 279 356 l 282 348 l 277 348 l 279 356 m -171 353 l -168 345 l -174 351 l -171 353 m 122 351 l 127 351 l 125 345 l 122 351 m 298 351 q 304 345 302 350 l 298 351 m -49 345 l -43 345 l -46 340 l -49 345 m 160 345 l 174 334 l 155 332 l 146 337 l 165 334 l 160 345 m 49 342 q 54 337 52 342 q 49 342 51 338 m -33 337 l -22 332 q -33 337 -28 332 m -165 332 q -149 315 -155 327 l -152 294 l -165 280 l -171 267 q -182 286 -178 274 l -193 302 l -179 307 l -176 302 l -174 286 l -168 302 l -171 323 q -165 332 -165 326 m -241 329 q -236 321 -237 327 l -241 329 m -87 329 q -92 323 -87 326 l -87 329 m -209 318 l -201 315 l -206 313 l -209 318 m -127 315 q -114 288 -119 303 l -127 291 l -130 310 l -127 315 m -81 315 l -68 315 l -81 304 l -79 313 l -81 315 m 22 313 q 27 307 25 312 l 22 313 m -165 299 l -160 296 l -160 304 l -163 304 l -165 299 m 0 302 l -3 299 l -5 307 l 0 302 m 138 304 q 127 286 135 294 l 138 304 m 168 304 l 174 304 l 171 299 l 168 304 m -62 302 q -41 294 -54 295 l -43 280 l -33 275 l -46 269 l -52 253 l -49 234 l -41 220 q -52 210 -44 215 l -49 218 q -57 223 -55 220 l -65 239 l -60 256 q -65 261 -60 258 l -49 272 l -46 283 l -52 283 l -62 275 q -84 283 -73 275 l -62 286 l -60 296 l -62 302 m 144 296 l 155 272 l 141 250 l 130 245 l 122 253 q 133 264 127 256 l 144 296 m -225 291 l -220 283 l -231 272 l -225 291 m -95 291 q -87 283 -90 289 l -98 280 l -92 286 l -95 291 m -160 280 q -165 286 -160 283 q -160 280 -164 283 m -266 286 l -255 283 l -252 286 l -266 272 l -285 264 q -271 277 -281 273 q -266 286 -266 279 m 165 286 l 171 275 l 160 275 l 165 286 m -149 283 l -141 280 l -149 277 l -149 283 m 138 275 l 144 275 l 141 280 l 138 275 m -298 277 q -290 267 -293 274 q -298 277 -296 271 m 65 269 q 60 275 61 270 l 65 269 m -312 269 l -301 264 q -312 269 -307 264 m -90 269 l -92 253 l -90 250 l -95 229 q -84 218 -89 225 l -90 223 l -95 215 l -98 223 l -111 210 q -119 237 -117 222 l -146 239 l -155 248 l -157 239 l -171 234 l -168 248 q -152 261 -165 260 l -136 267 l -141 256 q -133 261 -136 258 q -114 253 -125 255 q -109 258 -113 258 l -100 264 q -90 269 -95 264 m -233 256 q -222 237 -222 247 q -203 215 -210 229 l -190 226 l -193 215 q -203 210 -197 210 q -222 223 -214 214 l -217 231 l -222 234 q -239 226 -231 232 l -241 231 l -225 245 l -233 256 m -293 253 l -288 245 q -293 253 -291 248 m -244 253 l -239 245 q -244 253 -242 248 m 146 250 l 149 242 l 144 248 l 146 250 m -57 245 l -62 237 q -57 245 -58 239 m -252 245 l -247 245 l -250 239 l -252 245 m -114 229 q -106 220 -111 223 l -114 229 m -206 218 l -206 223 l -209 223 l -206 218 m 236 218 l 241 218 l 239 212 l 236 218 m -236 212 l -233 201 l -239 204 l -236 212 m 187 201 l 203 193 l 212 199 l 220 191 l 214 177 l 198 163 l 195 172 l 187 182 l 195 188 q 190 193 195 191 l 187 201 m 176 196 l 182 177 q 176 196 177 185 m 209 188 l 203 172 q 209 188 209 179 m 222 185 l 231 177 q 222 185 224 179 m 271 182 l 274 174 l 269 180 l 271 182 m -269 172 l -258 169 l -269 166 l -269 172 m 212 172 q 225 163 218 170 q 212 172 216 163 m 203 161 l 217 147 q 222 131 218 139 l 214 125 l 201 120 l 203 125 l 201 128 l 198 147 l 184 131 l 176 142 l 179 153 l 176 155 l 184 147 q 203 161 195 152 m 198 147 q 203 153 201 148 q 198 147 201 152 m 203 142 l 201 136 l 209 139 l 203 142 m 239 131 l 244 112 l 220 117 q 239 131 229 121 m -317 112 q -323 117 -321 112 l -317 112 z "},"*":{"ha":541,"x_min":0,"x_max":0,"o":""},"+":{"ha":811,"x_min":0,"x_max":0,"o":""},",":{"ha":386,"x_min":0,"x_max":0,"o":""},"-":{"ha":463,"x_min":0,"x_max":0,"o":""},"­":{"ha":463,"x_min":0,"x_max":0,"o":""},".":{"ha":386,"x_min":0,"x_max":0,"o":""},"/":{"ha":386,"x_min":0,"x_max":0,"o":""},":":{"ha":386,"x_min":0,"x_max":0,"o":""},";":{"ha":386,"x_min":0,"x_max":0,"o":""},";":{"ha":386,"x_min":0,"x_max":0,"o":""},"<":{"ha":1,"x_min":-428,"x_max":394,"o":"m 372 1284 q 378 1279 376 1284 l 372 1284 m 391 1276 l 394 1263 l 389 1271 l 391 1276 m 163 1244 l 172 1236 q 163 1244 167 1238 m -2 1081 l 6 1067 q -2 1081 -1 1073 m -21 1062 q -10 1035 -18 1048 q -5 1029 -9 1030 q 3 1019 -3 1023 l 25 1016 l 20 1005 l 31 1000 l 20 991 l 14 986 l 22 981 l 31 989 l 25 975 q 33 967 32 974 l 25 959 l 28 967 l 25 972 l 20 967 l 3 978 q -16 983 -6 979 l -35 997 l -40 1008 q -29 1016 -36 1014 l -35 1029 q -43 1040 -37 1036 l -35 1046 l -21 1062 m -24 1024 l -24 1029 l -26 1029 l -24 1024 m -37 1024 l -40 1021 l -43 1029 l -37 1024 m -7 1016 l -7 1021 l -10 1021 l -7 1016 m -92 1013 l -83 1005 l -97 1002 q -92 1013 -92 1006 m 47 1013 q 63 1000 56 1008 q 68 983 63 992 l 77 975 l 79 956 l 71 951 q 60 967 68 962 l 36 1005 q 47 1013 42 1007 m 28 1010 l 33 1010 l 31 1005 l 28 1010 m 77 1008 l 85 1005 l 77 1002 l 77 1008 m -24 997 l -18 997 l -18 1002 l -21 1002 l -24 997 m -16 1002 l -16 997 l -10 1000 l -16 1002 m 364 1000 l 383 994 l 372 989 q 361 978 370 982 l 342 972 l 351 978 l 364 1000 m -51 989 q -59 975 -53 981 l -51 989 m -113 978 l -105 975 l -111 972 l -113 978 m 370 975 q 364 970 369 972 l 370 975 m 144 967 l 150 967 l 147 962 l 144 967 m -124 959 l -113 954 l -121 948 l -124 959 m 161 956 l 166 935 l 155 951 q 161 956 159 951 m 101 940 l 117 935 l 109 932 l 101 940 m -162 935 l -157 918 l -168 921 l -170 916 l -162 935 m 50 932 l 58 935 l 47 921 l 44 935 l 50 932 m 87 924 l 112 918 l 104 913 l 87 924 m 315 924 l 323 910 q 315 924 315 914 m -127 918 q -121 913 -123 918 l -127 918 m 136 918 q 150 913 143 918 l 136 918 m 296 913 l 299 905 l 294 910 l 296 913 m 286 910 q 291 905 289 909 l 286 910 m 68 907 q 74 902 72 907 l 68 907 m -363 902 q -357 897 -359 901 q -363 902 -360 897 m -422 894 q -428 899 -425 895 l -422 894 m -238 899 q -233 891 -234 897 l -238 899 m -127 894 q -119 864 -120 880 q -127 894 -125 877 m -417 891 l -401 888 l -420 883 l -417 891 m -222 869 l -214 867 l -222 864 l -222 869 m -113 864 q -119 856 -113 859 l -113 864 m 3 864 q 17 845 7 853 q 36 837 25 838 q 28 826 34 830 l 36 818 l 52 837 l 39 812 q 28 821 32 813 l 6 837 l 3 864 m 134 864 l 136 845 l 142 831 l 131 826 l 125 848 l 134 864 m -108 861 l -89 850 q -108 861 -98 853 m 150 850 l 169 829 l 155 837 l 150 850 m 74 848 q 90 815 84 835 l 106 799 q 87 818 97 806 q 74 848 80 830 m 58 831 q 66 823 62 829 l 58 831 m 174 829 q 191 796 189 817 l 199 783 q 174 772 188 779 q 161 804 169 789 q 153 821 155 811 q 174 829 164 823 m 172 821 q 177 826 175 821 q 172 821 174 825 m -97 826 l -86 807 l -102 796 q -89 810 -98 804 l -97 826 m -26 823 l -32 807 q -43 818 -38 810 l -26 823 m 163 818 l 158 810 l 166 807 l 163 818 m 90 799 l 96 788 q 90 799 92 792 m 120 785 q 125 780 123 785 l 120 785 m -89 783 l -78 774 q -89 783 -85 777 m 153 766 l 155 758 l 150 764 l 153 766 m -56 753 q -45 734 -46 744 q -26 712 -34 726 l -13 723 l -16 712 q -26 707 -20 707 q -45 720 -37 711 l -40 728 l -45 731 q -62 723 -54 729 l -64 728 l -48 742 l -56 753 m -67 750 l -62 742 q -67 750 -65 745 m -75 742 l -70 742 l -73 736 l -75 742 m -29 715 l -29 720 l -32 720 l -29 715 m -59 709 l -56 699 l -62 701 l -59 709 z "},"=":{"ha":811,"x_min":0,"x_max":0,"o":""},">":{"ha":0,"x_min":-425,"x_max":505,"o":"m 96 359 l 104 351 q 96 359 99 354 m 402 259 q 394 248 401 252 q 402 259 399 252 m 337 208 q 342 202 340 207 q 337 208 339 203 m 321 202 l 332 194 q 321 202 323 196 m 484 199 q 489 194 487 199 l 484 199 m -70 197 l -62 183 q -70 197 -68 189 m 503 191 l 505 178 l 500 186 l 503 191 m -89 178 q -78 151 -86 164 q -73 145 -77 146 q -64 134 -71 139 l -43 132 l -48 121 l -37 115 l -48 107 l -54 102 l -45 96 l -37 104 l -43 91 q -35 83 -36 90 l -43 75 l -40 83 l -43 88 l -48 83 l -64 94 q -83 99 -74 94 l -102 113 l -108 123 q -97 132 -104 130 l -102 145 q -111 156 -104 152 l -102 161 l -89 178 m 212 172 l 223 153 l 218 156 l 210 151 l 207 153 l 199 164 q 212 172 208 165 m 294 156 q 286 140 292 147 l 294 156 m 310 148 q 304 153 306 148 l 310 148 m -92 140 l -92 145 l -94 145 l -92 140 m -105 140 l -108 137 l -111 145 l -105 140 m 359 142 q 370 140 363 140 l 351 126 l 359 142 m -75 132 l -75 137 l -78 137 l -75 132 m -21 129 q -5 115 -12 124 q 1 99 -5 108 l 9 91 l 12 72 l 3 66 q -7 83 0 77 l -32 121 q -21 129 -26 123 m -140 126 l -127 104 l -102 88 l -111 91 q -92 80 -102 84 l -102 72 l -89 61 q -75 42 -80 54 l -86 26 l -81 37 l -89 47 l -97 31 q -108 20 -102 28 l -100 18 l -100 23 l -97 20 l -105 15 l -119 31 l -130 34 l -132 28 l -138 31 q -154 23 -144 26 l -157 31 q -149 45 -150 39 q -159 34 -155 43 l -165 42 l -181 58 l -219 42 l -216 53 l -230 42 l -252 45 q -241 61 -251 56 l -243 77 l -233 80 l -230 77 l -219 75 l -216 80 l -224 64 q -203 72 -213 64 l -195 75 l -192 72 l -176 80 q -162 85 -168 81 l -181 94 l -170 91 l -173 110 l -151 113 l -140 126 m -40 126 l -35 126 l -37 121 l -40 126 m 239 126 q 248 104 245 117 l 239 94 l 245 88 q 264 107 255 96 l 267 85 l 253 69 l 250 75 l 242 72 l 250 83 l 237 91 l 231 80 l 237 77 l 218 75 l 215 83 l 218 88 l 212 91 l 207 85 l 212 83 q 199 91 204 84 q 210 107 203 99 l 220 99 q 239 107 231 100 q 234 118 235 111 l 239 113 l 245 115 l 239 126 m 9 123 l 17 121 l 9 118 l 9 123 m -138 113 l -138 118 l -140 118 l -138 113 m -86 113 l -86 118 l -89 118 l -86 113 m -83 118 l -83 113 l -78 115 l -83 118 m 256 113 q 250 118 252 113 l 256 113 m 296 115 l 315 107 l 304 107 l 310 96 l 299 99 l 296 96 l 275 88 l 283 94 l 296 115 m -146 104 q -151 110 -146 108 q -146 104 -150 107 m -143 110 q -135 91 -141 98 l -130 107 l -143 110 m 22 99 q 31 88 28 96 l 22 99 m 58 99 q 68 77 66 92 q 90 69 79 71 l 106 88 l 120 75 l 125 85 l 131 80 l 134 83 l 128 77 l 144 69 q 134 56 141 61 l 142 45 l 128 34 q 120 26 122 32 l 128 28 l 139 39 l 136 26 q 147 18 144 22 l 144 4 l 147 -1 l 155 7 l 166 4 l 163 -15 q 174 -26 168 -22 l 163 -31 q 158 -37 161 -35 q 139 -26 148 -35 l 131 -34 l 134 -23 l 125 -7 l 131 1 q 112 7 121 3 l 117 26 l 109 23 q 82 39 102 38 l 74 31 l 87 28 l 82 31 l 66 26 q 55 45 62 35 l 63 58 l 52 61 q 41 56 46 60 l 50 53 q 33 39 41 48 q 28 47 33 45 l 41 58 l 28 64 l 25 75 l 39 91 l 36 80 l 41 80 q 58 99 50 87 m -119 94 q -135 85 -125 89 l -127 80 l -111 61 q -102 66 -106 62 q -108 80 -103 75 q -119 94 -115 85 m -243 94 l -235 91 l -243 83 l -243 94 m 302 91 q 296 85 301 87 l 302 91 m 77 83 q 82 72 81 79 l 77 83 m -121 64 q -116 69 -118 64 q -121 64 -119 68 m -100 69 q -94 61 -100 64 l -100 69 m -89 72 q -83 66 -85 71 q -89 72 -87 67 m 226 72 q 237 61 233 69 l 226 72 m -192 66 l -192 61 l -189 61 l -189 66 l -192 66 m 87 61 l 87 66 l 85 66 l 87 61 m -208 58 l -208 53 l -205 53 l -205 58 l -208 58 m 163 61 l 174 53 l 163 45 l 158 56 q 163 61 161 56 m -211 50 q -216 56 -212 54 q -211 50 -215 53 m -92 56 l -100 50 q -92 56 -94 51 m 106 56 q 112 45 107 50 l 106 56 m 36 47 l 36 53 l 33 53 l 36 47 m 87 47 l 87 53 l 85 53 l 87 47 m 199 56 q 210 47 201 49 l 199 37 q 191 42 196 41 l 199 56 m 82 45 l 82 50 l 79 50 l 82 45 m 104 45 l 104 50 l 101 50 l 104 45 m 120 50 l 123 42 l 125 47 l 120 50 m -18 47 l -10 50 l -21 37 l -24 50 l -18 47 m -287 47 q -265 31 -280 34 q -249 20 -256 28 q -241 -9 -243 6 l -260 -4 l -268 -15 l -300 -18 q -311 -26 -305 -24 q -322 -12 -319 -19 q -333 -4 -326 -6 l -325 1 q -317 26 -317 12 l -341 39 l -319 37 l -314 28 l -300 34 q -290 42 -296 40 l -295 39 l -292 31 q -281 15 -289 22 l -287 47 m -132 45 q -127 39 -132 41 q -132 45 -127 42 m -257 42 l -252 34 q -257 42 -255 37 m -111 34 l -111 39 l -113 39 l -111 34 m 12 39 q 22 23 15 31 l 39 9 l 31 -7 l 20 12 l -2 7 l 9 15 l 3 31 l 12 39 m 20 39 l 44 34 l 36 28 l 20 39 m 115 37 l 109 26 q 115 37 114 30 m 248 39 l 256 26 q 248 39 248 30 m -62 34 q -51 23 -60 26 l -56 7 q -43 1 -50 6 l -32 -4 q -37 -20 -33 -11 q -29 -34 -36 -28 l -35 -45 l -45 -34 l -40 -23 l -56 -15 l -64 -12 l -67 -15 l -62 -26 l -78 -31 l -75 -26 l -81 -23 l -75 -20 l -67 -7 l -62 9 l -73 7 l -73 12 l -64 9 l -62 15 q -67 20 -64 16 l -62 34 m -298 23 l -295 26 l -303 28 q -298 23 -302 26 m -45 31 l -37 28 l -45 20 l -43 28 l -45 31 m 101 31 q 93 7 95 20 l 87 -1 q 77 20 81 7 l 101 31 m -81 28 l -73 26 l -78 23 l -81 28 m 229 28 l 231 20 l 226 26 l 229 28 m -306 23 l -309 15 l -300 18 q -306 23 -301 21 m 9 23 q 14 15 10 18 q 9 23 14 20 m 131 18 l 131 23 l 128 23 l 131 18 m 218 26 q 223 20 221 25 l 218 26 m 288 26 q 304 15 296 19 l 288 12 l 291 23 l 288 26 m -83 23 l -75 9 q -83 23 -81 14 m 117 15 q 123 20 121 16 q 117 15 120 19 m 136 20 l 142 9 l 144 20 l 136 20 m -290 18 l -298 1 q -292 -4 -297 -1 l -290 18 m -149 20 q -140 4 -141 14 q -149 20 -146 11 m 39 20 q 44 15 42 20 q 39 20 41 16 m -281 9 q -276 15 -277 10 l -281 9 m -252 9 l -252 15 l -254 15 l -252 9 m -303 12 l -303 7 l -298 9 l -303 12 m -254 4 l -252 -1 l -246 1 l -249 9 l -254 4 m -265 1 q -260 7 -261 1 q -265 1 -262 5 m -51 1 l -56 -7 q -51 1 -52 -4 m 9 4 l 17 -4 q 9 4 12 -1 m 71 4 l 77 -12 q 71 4 73 -5 m -43 -1 l -48 -12 l -40 -18 l -37 -4 l -43 -1 m -21 -9 q -26 -4 -25 -8 l -21 -9 m -284 -15 l -279 -12 l -281 -9 l -284 -15 m -70 -9 l -70 -15 l -64 -12 l -70 -9 m -7 -9 q -2 -15 -4 -9 l -10 -18 l -7 -9 m 90 -9 q 96 -23 96 -14 l 90 -9 m 115 -15 l 120 -15 l 117 -20 l 115 -15 m 226 -15 q 220 -23 224 -20 l 226 -15 m -292 -18 l -290 -26 l -295 -20 l -292 -18 m -279 -26 l -281 -28 l -284 -20 l -279 -26 m -13 -20 q -18 -26 -14 -24 l -13 -20 m 66 -20 l 63 -31 l 68 -34 l 66 -37 l 71 -39 q 66 -45 68 -40 q 74 -53 71 -47 l 66 -58 l 50 -50 q 55 -45 50 -46 l 63 -50 l 58 -39 q 66 -20 60 -29 m 71 -20 q 77 -26 75 -20 l 71 -20 m 101 -20 l 104 -28 l 115 -23 q 106 -39 108 -29 l 96 -34 l 98 -53 q 82 -61 90 -55 l 85 -50 q 101 -20 90 -36 m 177 -28 l 180 -37 l 174 -37 l 177 -28 m -273 -31 l -271 -39 l -276 -34 l -273 -31 m 20 -34 l 25 -34 l 22 -39 l 20 -34 m 6 -37 l 17 -50 q 6 -37 11 -45 m -151 -39 l -146 -39 l -149 -45 l -151 -39 m -135 -47 l -124 -53 q -135 -47 -130 -53 m -268 -53 q -252 -69 -258 -57 l -254 -94 l -262 -107 l -273 -102 l -276 -118 l -284 -107 l -295 -83 l -279 -77 l -276 -80 l -279 -85 q -271 -94 -277 -91 l -271 -83 l -273 -61 q -268 -53 -269 -58 m -344 -56 q -338 -64 -339 -58 l -344 -56 m -189 -56 q -195 -61 -190 -58 l -189 -56 m 106 -56 q 123 -88 121 -68 l 131 -102 q 106 -113 120 -105 q 93 -80 101 -96 q 85 -64 87 -73 q 106 -56 96 -62 m 104 -64 q 109 -58 107 -63 q 104 -64 106 -59 m 96 -66 l 90 -75 l 98 -77 l 96 -66 m -311 -66 l -303 -69 l -309 -72 l -311 -66 m -230 -69 q -216 -96 -222 -81 l -230 -94 l -233 -75 l -230 -69 m -184 -69 l -170 -69 l -184 -80 l -181 -72 l -184 -69 m -268 -85 l -262 -88 l -262 -80 l -265 -80 l -268 -85 m 36 -80 q 25 -99 33 -90 l 36 -80 m 66 -80 l 71 -80 l 68 -85 l 66 -80 m -165 -83 q -143 -91 -156 -89 l -146 -104 l -135 -110 l -149 -115 l -154 -132 l -151 -151 l -143 -164 q -154 -175 -146 -170 l -151 -167 q -159 -161 -157 -164 l -168 -145 l -162 -129 q -168 -123 -163 -126 l -151 -113 l -149 -102 l -154 -102 l -165 -110 q -186 -102 -175 -109 l -165 -99 l -162 -88 l -165 -83 m 41 -88 l 52 -113 l 39 -134 l 28 -140 l 20 -132 q 31 -121 24 -127 l 41 -88 m -328 -94 l -322 -102 l -333 -113 l -328 -94 m -197 -94 q -189 -102 -192 -95 l -200 -104 l -195 -99 l -197 -94 m -262 -104 q -268 -99 -263 -100 q -262 -104 -267 -102 m 63 -99 l 68 -110 l 58 -110 l 63 -99 m -382 -102 l -371 -115 l -385 -118 l -382 -102 m -252 -102 l -243 -104 l -252 -107 l -252 -102 m 36 -110 l 41 -110 l 39 -104 l 36 -110 m -401 -107 q -393 -118 -395 -111 q -401 -107 -398 -114 m -37 -115 q -43 -110 -41 -114 l -37 -115 m -192 -115 l -195 -132 l -192 -134 l -197 -156 q -186 -167 -191 -159 l -192 -161 l -197 -170 l -200 -159 l -214 -172 q -219 -148 -219 -161 q -243 -142 -231 -146 l -249 -148 l -254 -137 l -260 -145 l -273 -151 l -271 -142 l -276 -140 l -273 -137 q -257 -123 -268 -127 q -241 -118 -248 -122 l -243 -129 l -233 -123 q -216 -132 -226 -130 l -219 -121 l -208 -126 l -203 -121 q -192 -115 -197 -119 m 85 -118 l 87 -126 l 82 -121 l 85 -118 m 272 -129 l 277 -151 l 267 -134 q 272 -129 271 -134 m -395 -132 l -390 -140 q -395 -132 -393 -137 m 44 -134 l 47 -142 l 41 -137 l 44 -134 m -159 -140 l -165 -148 q -159 -140 -160 -145 m -216 -156 q -208 -164 -214 -161 l -216 -156 m -16 -167 q -10 -172 -12 -167 l -16 -167 m 134 -167 l 139 -167 l 136 -172 l 134 -167 m 248 -167 q 261 -172 254 -168 l 248 -167 m -252 -183 q -246 -189 -248 -183 q -252 -183 -250 -188 m 85 -183 l 101 -191 l 109 -186 l 117 -194 l 112 -208 l 96 -221 l 93 -213 l 85 -202 l 93 -197 q 87 -191 92 -193 l 85 -183 m -311 -191 q -317 -186 -315 -191 l -311 -191 m -127 -186 q -121 -194 -123 -188 l -127 -186 m 74 -189 l 79 -208 q 74 -189 75 -199 m -16 -191 q -7 -218 -9 -204 l -24 -197 l -16 -191 m -306 -194 l -290 -197 l -309 -202 l -306 -194 m 106 -197 l 101 -213 q 106 -197 106 -205 m 120 -199 l 128 -208 q 120 -199 122 -205 m 169 -202 l 172 -210 l 166 -205 l 169 -202 m -371 -213 l -360 -216 l -371 -218 l -371 -213 m 109 -213 q 123 -243 119 -225 l 144 -254 l 150 -267 l 163 -248 l 163 -256 l 166 -256 l 163 -259 l 139 -275 q 120 -262 128 -270 l 125 -267 l 139 -262 l 128 -256 l 104 -259 q 77 -281 90 -267 l 68 -264 l 74 -267 l 87 -264 q 104 -251 98 -259 l 93 -254 l 96 -248 l 98 -240 l 96 -237 l 85 -248 l 74 -243 l 77 -232 l 74 -229 q 85 -237 79 -235 l 104 -224 l 101 -232 l 104 -235 q 109 -213 108 -223 m -111 -216 l -102 -218 l -111 -221 l -111 -216 m -2 -221 q -7 -229 -2 -227 l -2 -221 m 3 -224 l 22 -235 q 3 -224 13 -232 m 115 -240 q 120 -245 115 -243 q 115 -240 119 -243 m 193 -243 q 207 -267 197 -256 q 215 -286 213 -276 l 196 -267 l 188 -262 l 193 -243 m 169 -254 q 177 -262 174 -256 l 169 -254 m 14 -259 l 25 -278 l 9 -289 q 22 -275 14 -281 l 14 -259 m -420 -273 q -425 -267 -423 -273 l -420 -273 m 131 -275 q 136 -281 134 -275 l 131 -275 m 201 -286 l 207 -297 q 201 -286 203 -293 m 231 -300 q 237 -305 235 -300 l 231 -300 z "},"?":{"ha":772,"x_min":0,"x_max":0,"o":""},"@":{"ha":1410,"x_min":0,"x_max":0,"o":""},"A":{"ha":505,"x_min":-195,"x_max":600,"o":"m 271 566 l 374 487 l 415 468 q 464 454 435 460 l 467 435 l 429 433 q 412 392 418 414 q 456 376 431 381 q 467 354 463 367 l 445 351 q 415 332 429 345 l 412 232 l 415 229 l 412 221 l 412 159 q 431 121 416 138 q 480 132 454 121 q 458 96 475 113 l 355 18 q 345 -1 345 7 q 323 -23 336 -12 q 317 -12 321 -16 q 323 1 318 -4 q 317 7 322 5 l 326 15 l 323 9 l 326 7 l 342 9 l 336 23 l 301 50 l 277 75 q 258 58 269 66 q 252 66 256 63 l 266 96 q 258 104 258 100 q 250 113 256 111 l 130 23 l 111 12 l 95 26 q 73 34 81 28 l 60 53 l 41 72 l 35 56 l 38 37 l 27 20 l 30 37 l 27 42 l 22 23 q 8 39 13 28 l -19 58 l -41 53 l -35 80 l -22 75 l -8 80 l -14 72 l -11 69 l 14 66 q 22 77 16 73 l 16 66 l 22 64 l 24 80 l 27 69 l 38 77 q 24 123 31 96 l 24 245 l 8 237 l 14 251 l 8 251 l 8 248 q -19 240 -4 243 l -14 270 l -5 278 q 11 270 3 276 q 22 259 15 264 l 24 270 l 22 275 l 24 316 l 24 392 q 43 435 28 414 l 79 460 l 203 514 l 239 538 q 271 566 255 549 m 171 473 l 171 232 l 174 227 l 171 227 l 171 218 l 176 221 l 179 205 l 198 191 l 193 164 q 206 156 200 163 l 198 161 l 198 151 l 195 153 q 176 164 186 161 l 193 178 l 179 175 l 174 183 l 171 175 l 176 167 l 171 148 l 174 140 l 174 132 q 198 113 183 119 q 231 123 214 117 l 258 140 l 258 186 q 241 210 254 200 q 225 205 234 205 l 239 208 l 244 221 l 236 221 l 236 218 l 233 221 q 239 229 235 227 l 252 224 l 258 248 q 250 267 256 260 l 258 297 l 258 414 l 247 416 l 217 433 l 171 473 m 567 406 q 572 400 570 405 q 567 406 569 401 m 551 400 l 562 392 q 551 400 553 394 m 524 354 q 515 338 522 345 l 524 354 m 540 346 q 534 351 536 346 l 540 346 m 589 340 q 600 338 593 338 l 581 324 l 589 340 m 469 324 q 475 302 475 316 l 472 286 q 491 305 484 293 l 496 281 l 483 270 l 472 273 l 480 283 l 467 292 l 461 278 l 469 275 l 450 273 l 445 281 q 437 286 442 286 l 442 278 q 429 289 434 281 q 442 305 434 298 l 453 297 q 467 305 461 298 l 458 300 l 461 305 l 458 308 l 467 316 q 472 311 468 313 l 475 316 l 469 324 m 486 311 q 480 316 482 311 l 486 311 m -14 292 l -5 289 l -14 281 l -14 292 m 456 270 q 467 259 463 267 l 456 270 m 24 251 l 24 256 l 22 256 l 24 251 m 19 248 q 14 254 18 252 q 19 248 15 251 m 429 254 q 439 245 431 247 l 429 235 q 420 240 426 239 l 429 254 m -57 245 q -35 229 -50 232 q -19 218 -25 226 q -11 189 -13 204 l -30 194 l -38 183 l -71 180 q -81 172 -75 174 q -92 186 -89 179 q -103 194 -96 192 l -95 199 q -87 224 -87 210 l -111 237 l -90 235 l -84 227 l -71 232 q -60 240 -66 238 l -65 237 l -62 229 q -52 213 -58 220 l -57 245 m -27 240 l -22 232 q -27 240 -25 235 m -68 221 l -65 224 l -73 227 q -68 221 -72 224 m 184 229 l 193 227 l 184 218 l 187 227 l 184 229 m 228 224 l 225 221 l 222 229 l 228 224 m -76 221 l -79 213 l -71 216 q -76 221 -71 219 m 518 224 q 534 213 526 217 l 518 210 l 521 221 l 518 224 m -60 216 l -68 199 q -62 194 -66 196 l -60 216 m -52 208 q -46 213 -47 208 l -52 208 m -22 208 l -22 213 l -24 213 l -22 208 m -73 210 l -73 205 l -68 208 l -73 210 m -24 202 l -22 197 l -16 199 l -19 208 l -24 202 m -35 199 q -30 205 -31 199 q -35 199 -33 203 m 179 199 l 171 189 q 179 199 176 192 m 187 197 l 182 186 l 190 180 l 193 194 l 187 197 m 241 199 q 247 194 245 199 q 241 199 243 195 m 209 189 q 203 194 205 189 l 209 189 m -54 183 l -49 186 l -52 189 l -54 183 m 222 189 q 228 183 226 188 l 220 180 l 222 189 m 456 183 q 450 175 454 178 l 456 183 m -62 180 l -60 172 l -65 178 l -62 180 m -49 172 l -52 170 l -54 178 l -49 172 m 217 178 q 212 172 216 174 l 217 178 m -43 167 l -41 159 l -46 164 l -43 167 m 250 164 l 255 164 l 252 159 l 250 164 m -38 145 q -22 129 -28 140 l -24 104 l -33 91 l -43 96 l -46 80 l -54 91 l -65 115 l -49 121 l -46 118 l -49 113 q -41 104 -47 106 l -41 115 l -43 137 q -38 145 -38 140 m -114 142 q -109 134 -109 140 l -114 142 m -81 132 l -73 129 l -79 126 l -81 132 m 0 129 q 14 102 8 117 l 0 104 l -3 123 l 0 129 m -38 113 l -33 110 l -33 118 l -35 118 l -38 113 m 263 113 q 258 118 262 116 l 263 113 m -98 104 l -92 96 l -103 85 l -98 104 m -33 94 q -38 99 -33 97 q -33 94 -37 96 m -152 96 l -141 83 l -155 80 l -152 96 m -22 96 l -14 94 l -22 91 l -22 96 m 266 88 l 271 88 l 269 94 l 266 88 m -171 91 q -163 80 -165 87 q -171 91 -168 84 m -165 66 l -160 58 q -165 66 -163 61 m 274 64 l 277 56 l 271 61 l 274 64 m 14 42 q 22 34 16 37 l 14 42 m 304 9 l 309 -9 q 304 9 304 -1 m 336 1 l 331 -15 q 336 1 336 -7 m 350 -1 l 358 -9 q 350 -1 352 -7 m 399 -4 l 401 -12 l 396 -7 l 399 -4 m -141 -15 l -130 -18 l -141 -20 l -141 -15 m 339 -15 q 353 -23 346 -17 q 339 -15 344 -22 m 331 -26 l 345 -39 q 350 -56 346 -47 l 342 -61 l 328 -66 l 331 -61 l 328 -58 l 326 -39 l 312 -56 l 304 -45 l 307 -34 l 304 -31 l 312 -39 q 331 -26 322 -34 m 326 -39 q 331 -34 329 -39 q 326 -39 328 -35 m 331 -45 l 328 -50 l 336 -47 l 331 -45 m 366 -56 l 372 -75 l 347 -69 q 366 -56 357 -65 m -190 -75 q -195 -69 -193 -75 l -190 -75 z "},"B":{"ha":564,"x_min":-94,"x_max":628,"o":"m 620 1280 l 628 1278 l 620 1275 l 620 1280 m 311 846 l 343 846 l 365 844 l 373 841 l 373 827 l 324 827 q 278 808 302 822 q 256 765 264 790 l 254 741 l 254 469 l 267 477 q 305 502 284 486 q 346 526 323 511 l 387 551 q 408 562 396 557 q 425 545 414 554 l 454 513 q 481 475 467 498 l 492 420 l 487 168 q 465 125 479 148 l 425 100 l 330 68 l 251 19 l 235 0 l 221 19 l 151 76 l 66 119 q 42 146 48 125 l 56 146 q 94 174 79 153 q 99 231 98 199 l 99 269 l 102 277 l 99 279 l 99 290 q 104 326 99 307 l 102 315 l 107 315 l 107 317 l 113 304 q 126 323 121 311 l 142 317 l 145 342 q 140 366 140 353 l 129 393 l 113 399 q 104 393 110 394 q 123 415 113 406 l 115 420 l 126 415 l 129 420 l 123 434 l 118 437 q 99 418 111 425 l 99 464 l 96 475 l 99 515 l 99 534 q 88 589 98 562 l 66 632 l 28 684 l 45 692 l 53 684 q 80 646 66 668 l 99 621 l 99 640 q 91 694 97 665 l 72 741 q 45 776 62 758 l 28 803 l 47 808 l 75 773 q 102 735 85 756 q 121 779 107 756 q 159 808 136 794 l 202 827 l 311 846 m -72 814 q -66 808 -68 813 q -72 814 -70 809 m -61 811 q -56 806 -58 810 q -61 811 -59 806 m -85 779 l -83 765 l -88 768 l -85 779 m -91 765 l -83 757 l -91 754 l -94 757 l -91 765 m 37 648 l 42 637 l 34 635 l 37 648 m 23 646 q 28 640 26 645 q 23 646 25 641 m 1 575 q 20 564 11 572 q 1 575 9 567 m 175 562 q 183 556 178 557 l 175 562 m 42 553 q 58 545 49 546 l 75 540 l 80 534 q 75 518 75 527 l 58 526 l 64 510 l 56 515 q 50 526 55 522 l 42 529 l 50 543 l 42 553 m 180 543 l 180 537 l 186 540 l 180 543 m 56 537 q 64 529 58 532 q 56 537 62 534 m 183 529 q 189 534 186 530 q 183 529 186 533 m 53 510 q 47 505 52 507 l 53 510 m 66 510 q 72 505 70 509 l 64 502 l 66 510 m 85 507 l 91 494 l 80 502 q 85 507 83 503 m 75 505 q 85 491 79 496 l 69 491 l 75 505 m 104 491 q 118 480 109 484 l 104 491 m 115 472 l 115 477 l 113 477 l 115 472 m 297 458 q 256 442 278 452 l 254 339 l 248 309 l 254 301 l 254 193 q 273 160 260 176 l 305 138 q 332 119 317 127 l 332 442 q 297 458 317 453 m 140 410 q 134 415 139 413 q 140 410 136 412 m 159 401 l 161 404 l 153 407 q 159 401 155 404 m 99 388 l 104 388 l 102 382 l 99 388 m 134 372 q 140 377 138 373 q 134 372 137 376 m 213 355 l 213 361 l 210 361 l 213 355 m 134 320 l 129 312 q 134 320 133 314 m 153 315 q 159 309 154 311 q 153 315 158 312 m 126 309 q 140 296 130 300 q 126 309 134 304 m 164 309 l 161 298 l 167 296 l 167 307 l 164 309 z "},"C":{"ha":429,"x_min":-197,"x_max":563,"o":"m 517 800 q 525 781 523 790 l 517 800 m 487 791 l 492 781 l 484 778 q 479 789 484 784 l 487 789 l 487 791 m 479 781 l 481 767 l 476 770 l 479 781 m 473 756 q 479 748 477 753 l 471 745 l 473 756 m 500 751 l 506 740 q 500 751 501 744 m 403 748 l 419 729 q 403 748 406 732 m 397 734 l 403 724 l 395 721 l 397 734 m 438 734 q 449 721 445 730 q 438 734 441 724 m 362 721 q 357 715 361 718 l 362 721 m 368 718 q 384 710 376 716 l 368 718 m 430 718 l 435 718 l 433 713 l 430 718 m 449 713 q 444 718 446 713 l 449 713 m 406 713 l 414 707 q 406 713 409 709 m 397 707 q 387 696 393 700 l 397 707 m 457 707 l 465 696 l 454 702 l 449 696 l 457 707 m 381 686 l 387 675 q 381 686 383 679 m 465 677 q 471 672 469 677 l 465 677 m 408 672 l 419 669 l 425 672 q 416 659 418 667 l 408 672 m 427 672 l 438 667 q 427 672 432 667 m 335 669 q 346 656 343 665 q 335 669 338 661 m 316 667 l 324 659 q 316 667 318 660 m 430 661 q 435 648 435 656 q 430 661 431 653 m 370 653 l 381 645 q 370 653 375 647 m 359 642 q 354 629 359 635 l 359 642 m 319 629 q 324 623 322 628 l 321 621 l 319 629 m 362 629 l 370 626 l 365 623 l 362 629 m 454 593 l 465 583 q 454 593 459 585 m 313 562 l 335 532 l 397 408 l 387 405 q 362 391 376 397 l 262 345 l 251 351 l 256 372 l 197 500 l 197 239 l 208 201 q 224 174 218 189 l 251 153 l 283 134 l 327 131 l 354 136 q 384 155 369 144 q 411 163 395 162 l 422 153 l 381 125 q 370 117 376 120 l 351 109 l 359 101 l 327 93 l 305 63 l 300 63 l 292 47 l 321 50 l 316 36 l 313 39 l 297 47 l 305 28 l 289 36 l 286 25 q 264 36 278 32 q 237 31 252 36 l 213 9 l 118 66 l 91 87 l 66 115 q 50 147 58 129 l 42 191 l 39 337 l 42 378 l 42 386 l 50 427 l 69 459 l 94 484 l 313 562 m 381 561 l 384 553 l 378 558 l 381 561 m 7 379 l 9 371 l 4 371 l 7 379 m 330 379 q 321 371 328 374 l 330 379 m 346 379 q 340 368 346 373 q 346 379 345 372 m 362 374 q 368 368 366 373 l 362 374 m 256 366 q 262 360 257 362 q 256 366 261 363 m -9 366 l -7 357 l -12 363 l -9 366 m 294 349 q 300 341 298 347 l 294 349 m -56 341 q -50 336 -52 340 l -56 341 m -151 330 l -142 311 l -159 322 l -151 330 m -197 298 l -191 298 l -194 292 l -197 298 m 444 292 l 460 281 l 452 276 l 446 281 l 433 281 l 444 292 m 465 279 l 476 273 q 468 260 470 268 q 449 246 460 251 l 444 265 q 465 279 454 270 m 490 124 l 495 113 l 487 111 l 490 124 m 528 121 l 536 113 l 517 89 l 528 121 m 403 97 l 408 89 q 403 97 404 92 m 484 97 q 490 89 488 94 l 484 97 m 297 81 l 300 73 l 302 81 l 297 81 m 308 81 l 302 73 q 308 81 307 76 m 330 78 l 335 62 l 324 67 l 330 78 m 286 73 l 281 64 l 289 62 l 292 70 l 286 73 m 283 62 q 267 54 275 60 q 283 62 276 54 m 256 48 l 264 45 l 267 51 l 262 54 l 256 48 m 278 48 l 275 37 l 281 40 l 281 48 l 278 48 m 555 40 q 560 7 559 23 q 547 2 555 3 q 557 10 553 4 q 536 16 547 16 l 555 40 m 349 37 q 343 29 348 32 l 349 37 m 547 29 q 552 21 547 24 l 547 29 m 319 26 q 324 21 322 26 l 319 26 m 311 16 l 300 -3 q 305 -6 304 -3 l 297 5 l 311 16 m 514 13 l 522 10 l 517 7 l 514 13 m 541 13 l 544 2 l 538 5 l 541 13 m 270 -6 l 283 -17 q 270 -6 276 -14 m 557 -6 q 563 -31 562 -16 l 555 -22 q 541 -33 551 -30 q 552 -17 546 -23 q 557 -6 556 -12 m 292 -22 q 297 -28 295 -22 l 294 -31 l 292 -22 m 278 -28 l 283 -44 q 278 -28 279 -38 m 419 -39 l 430 -52 q 419 -39 422 -47 m 552 -44 l 560 -52 l 555 -58 q 547 -50 551 -51 q 552 -44 549 -48 m 283 -66 q 278 -60 280 -65 l 283 -66 m 400 -60 q 387 -71 396 -68 l 400 -60 z "},"D":{"ha":474,"x_min":12,"x_max":809,"o":"m 375 977 l 380 968 q 375 977 376 970 m 608 977 l 614 977 l 611 971 l 608 977 m 771 911 l 779 906 l 768 903 l 771 911 m 587 887 q 597 876 593 884 l 587 887 m 581 884 q 592 868 585 876 l 584 871 l 578 865 q 568 882 572 871 l 578 879 l 581 884 m 809 849 q 804 854 806 850 l 809 849 m 785 841 q 771 814 782 823 q 785 841 772 829 m 475 830 l 535 830 q 557 811 551 829 l 538 811 l 494 806 q 459 784 476 798 q 437 746 447 768 q 432 697 433 726 l 432 665 l 443 662 l 448 667 l 467 670 l 456 659 l 462 656 l 470 659 q 451 643 464 649 q 432 608 441 627 l 437 591 l 432 564 l 429 176 l 427 168 q 405 130 420 147 l 370 109 l 286 79 q 253 57 269 71 l 223 35 l 207 11 l 166 49 l 96 92 q 55 109 78 102 q 12 125 35 114 q 39 149 21 140 q 44 201 43 172 l 44 407 l 47 429 q 66 467 52 447 q 93 499 78 483 l 120 529 q 158 513 139 524 l 277 439 l 277 475 l 280 499 l 275 567 l 269 575 q 248 610 258 591 l 210 667 q 220 678 213 673 q 248 651 235 669 l 269 616 l 277 640 l 264 686 l 210 781 l 226 789 l 272 719 l 277 705 l 288 730 l 310 765 q 345 789 323 778 q 383 808 362 800 l 427 822 l 475 830 m 635 827 q 644 814 642 822 q 630 825 636 818 l 635 822 l 635 827 m 711 814 q 717 798 715 808 l 711 814 m 657 806 l 673 795 l 676 784 l 660 773 l 649 768 l 652 776 l 638 781 l 635 795 l 641 800 l 644 795 q 657 806 652 798 m 638 781 l 644 784 l 641 787 l 638 781 m 728 789 l 733 789 l 730 784 l 728 789 m 584 779 q 589 773 587 778 l 584 779 m 633 768 l 638 768 l 635 762 l 633 768 m 665 768 q 679 754 677 766 q 657 760 667 755 l 665 768 m 671 738 l 676 738 l 673 732 l 671 738 m 676 730 q 682 724 680 729 q 676 730 677 724 m 248 678 l 256 673 q 248 678 250 673 m 459 646 l 459 651 l 456 651 l 459 646 m 603 651 q 597 640 602 645 l 603 651 m 435 637 l 435 643 l 432 643 l 435 637 m 589 640 q 576 635 584 635 q 589 640 583 636 m 614 600 l 625 586 q 616 575 623 580 l 603 572 l 608 559 l 625 543 q 635 532 627 537 l 627 524 l 638 494 l 622 475 l 616 464 l 608 469 l 606 464 l 584 483 l 576 505 l 570 529 l 581 543 q 570 562 574 551 l 578 551 l 581 562 l 603 578 l 614 600 m 581 586 l 573 583 l 576 591 l 581 586 m 608 589 l 606 575 l 614 586 l 608 589 m 557 589 q 562 581 561 586 l 557 589 m 622 564 l 630 559 q 622 564 625 560 m 589 543 l 584 534 q 589 543 589 537 m 589 532 l 592 529 q 597 534 595 530 l 595 537 q 589 532 592 536 m 646 526 q 657 513 652 522 q 646 526 649 516 m 752 518 l 760 507 q 752 518 754 511 m 600 488 l 600 494 l 597 494 l 600 488 m 633 494 l 633 488 l 635 488 l 635 494 l 633 494 m 619 483 l 622 486 l 614 488 q 619 483 615 486 m 608 486 l 606 477 l 611 477 l 611 486 l 608 486 m 603 477 l 608 472 q 603 477 608 475 m 739 472 q 747 461 744 469 l 739 472 m 619 456 l 630 453 l 622 450 l 619 456 m 218 429 q 199 396 203 418 l 199 201 q 220 174 201 180 l 269 130 l 277 160 l 277 209 l 280 228 l 277 233 l 277 301 l 280 347 l 277 393 q 258 420 275 411 l 218 429 m 299 222 l 299 228 l 296 228 l 299 222 m 307 222 l 307 217 l 313 220 l 307 222 m 288 214 l 294 214 l 294 220 l 291 220 l 288 214 m 117 217 l 117 212 l 123 214 l 117 217 m 123 212 l 131 203 l 136 212 l 128 217 l 123 212 m 286 190 l 280 182 q 286 190 285 184 m 310 184 l 310 190 l 307 190 l 310 184 m 280 179 q 286 168 281 173 q 280 179 285 174 m 139 171 l 150 174 l 136 176 l 139 171 m 147 163 l 147 168 l 144 168 l 147 163 m 155 168 l 158 160 l 161 168 l 155 168 m 139 160 q 144 155 140 157 q 139 160 143 157 m 174 157 q 166 144 168 153 q 174 157 173 149 m 174 149 l 174 144 l 180 146 l 174 149 m 58 141 l 50 133 l 58 127 l 63 138 l 58 141 m 185 130 l 185 136 l 182 136 l 185 130 m 158 119 l 150 114 q 158 119 156 115 m 242 117 l 231 95 l 242 100 q 248 114 246 106 l 242 117 m 234 109 l 231 100 l 237 103 l 237 109 l 234 109 m 158 106 q 166 95 159 100 q 158 106 164 100 m 177 100 q 166 87 170 95 q 177 76 170 79 l 196 87 l 177 100 m 250 92 l 250 98 l 248 98 l 250 92 m 258 98 l 256 87 l 261 90 l 261 98 l 258 98 m 239 84 l 239 90 l 237 90 l 239 84 m 172 90 q 180 81 176 87 l 172 90 m 182 76 q 188 81 186 77 l 182 76 m 242 73 l 242 79 l 239 79 l 242 73 m 256 79 l 256 73 l 258 73 l 258 79 l 256 79 m 188 71 l 193 73 l 191 76 l 188 71 m 258 71 q 264 76 263 71 l 258 71 m 182 62 l 180 54 l 185 54 l 188 62 l 182 62 m 201 60 l 196 52 l 207 57 l 201 60 m 188 54 l 185 43 l 188 41 l 196 43 l 188 54 m 207 46 l 207 52 l 204 52 l 207 46 m 690 5 l 698 3 l 690 0 l 690 5 z "},"E":{"ha":465,"x_min":-130,"x_max":532,"o":"m 307 553 l 326 532 l 412 391 l 423 377 l 203 236 l 201 228 l 206 209 l 220 184 q 236 163 226 174 l 255 144 l 279 130 l 309 122 l 345 122 l 374 133 l 399 146 q 412 163 407 153 q 429 155 422 162 l 412 136 l 331 73 q 309 57 321 65 q 288 41 300 49 l 269 22 q 247 5 258 15 l 239 0 l 193 16 l 141 43 l 119 60 l 103 81 q 87 103 95 90 l 71 125 l 49 179 l 43 212 l 41 288 l 54 388 l 79 439 l 98 458 l 282 540 l 307 553 m -130 488 q -125 480 -126 486 l -130 488 m 190 477 l 190 258 l 279 312 q 290 326 286 317 l 190 477 m 526 323 l 532 323 l 529 317 l 526 323 m 336 317 q 355 309 346 315 q 336 317 346 311 m 499 293 q 505 282 504 289 l 499 293 m 358 282 l 369 274 q 358 282 361 276 m 363 269 q 355 252 362 260 l 363 269 m 393 258 l 382 244 q 393 258 387 251 m 393 250 l 399 250 l 396 244 l 393 250 m 258 241 l 266 231 q 258 241 260 235 m 277 241 l 282 228 l 277 222 l 277 228 l 274 228 l 269 239 l 277 239 l 277 241 m 486 239 l 488 231 l 483 236 l 486 239 m 461 217 l 477 198 l 469 195 q 450 209 455 197 l 461 217 m 488 214 q 480 206 486 208 l 488 214 m 461 206 l 461 201 l 464 201 l 464 206 l 461 206 m 377 206 q 393 198 384 199 l 410 193 l 415 187 q 410 171 410 180 l 393 179 l 399 163 l 391 168 q 385 179 390 174 l 377 182 l 385 195 l 377 206 m 391 190 q 399 182 393 185 q 391 190 397 187 m 475 179 l 483 174 l 488 179 q 477 171 485 174 l 475 179 m 477 168 q 483 160 481 165 l 475 157 l 477 168 m 388 163 q 382 157 387 160 l 388 163 m 401 163 q 407 157 405 162 l 399 155 l 401 163 m 450 125 l 456 125 l 453 119 l 450 125 z "},"F":{"ha":342,"x_min":-195,"x_max":581,"o":"m 378 905 q 386 886 384 896 l 378 905 m 348 897 l 353 886 l 345 884 q 340 895 345 890 l 348 895 l 348 897 m 340 886 l 342 873 l 337 876 l 340 886 m 334 862 q 340 854 338 859 l 332 851 l 334 862 m 361 857 l 367 846 q 361 857 362 850 m 264 854 l 280 835 q 264 854 267 838 m 258 840 l 264 829 l 256 827 l 258 840 m 299 840 q 310 827 306 836 q 299 840 302 830 m 223 827 q 218 821 222 824 l 223 827 m 229 824 q 245 816 237 822 l 229 824 m 291 824 l 296 824 l 294 819 l 291 824 m 310 819 q 304 824 307 819 l 310 819 m 267 819 l 275 813 q 267 819 270 814 m 258 813 q 248 802 254 806 l 258 813 m 318 813 l 326 802 l 315 808 l 310 802 l 318 813 m 242 791 l 248 781 q 242 791 244 785 m 326 783 q 332 778 330 783 l 326 783 m 269 778 l 288 770 q 294 778 290 774 l 299 753 l 288 645 q 264 607 280 629 q 223 585 247 594 l 185 585 l 177 588 l 169 593 q 128 618 149 602 q 87 637 112 631 l 79 631 q 87 591 81 612 q 115 555 98 574 l 155 534 l 258 515 l 310 512 l 310 441 q 258 433 287 436 l 220 436 q 212 431 215 435 l 212 319 l 215 309 l 212 284 l 215 276 l 226 205 l 239 162 l 267 113 l 250 108 l 239 127 q 218 165 227 142 l 215 157 l 218 138 l 220 130 l 220 121 l 223 113 q 237 64 227 91 q 256 40 243 51 l 261 16 l 267 5 l 250 -1 l 239 18 q 218 56 227 34 l 201 81 l 196 64 q 174 24 189 45 l 144 -1 q 104 -22 127 -12 q 55 -36 83 -30 l 1 -44 l -48 -44 l -59 -41 l -62 -25 l -21 -22 q 28 -9 1 -18 q 50 32 41 8 q 58 86 55 56 l 58 273 l 50 298 l 41 309 q 58 317 50 309 l 58 428 q 52 436 57 433 l 3 436 l 3 450 l 41 474 q 60 517 52 493 l 58 640 l 63 696 q 85 737 70 716 q 123 762 100 752 l 142 767 l 174 759 q 212 734 193 751 l 223 748 l 215 732 l 220 726 q 258 702 237 713 q 272 740 269 717 l 275 756 l 272 762 l 267 767 l 275 772 l 269 778 m 196 775 q 207 762 204 771 q 196 775 199 766 m 177 772 l 185 764 q 177 772 179 766 m 231 759 l 242 751 q 231 759 236 753 m 223 734 l 231 732 l 226 729 l 223 734 m 315 699 l 326 688 q 315 699 320 691 m 201 574 q 207 569 205 574 l 201 574 m 191 555 q 185 547 190 550 l 191 555 m 201 553 l 218 547 q 201 553 210 548 m -132 485 l -130 477 l -135 477 l -132 485 m -149 471 l -146 463 l -151 469 l -149 471 m -195 447 q -189 441 -191 446 l -195 447 m 573 439 l 581 439 l 576 431 l 570 436 l 573 439 m 39 406 q 33 401 38 404 l 39 406 m 304 398 l 321 387 l 313 382 l 307 387 l 294 387 l 304 398 m 36 395 l 44 387 q 36 395 39 390 m 326 385 l 337 379 q 329 366 331 374 q 310 352 321 357 l 304 371 q 326 385 315 376 m 36 344 l 41 330 q 36 344 37 336 m 41 328 q 47 319 45 325 l 41 328 m -2 317 q 6 311 3 316 l -2 317 m 269 284 l 267 271 l 261 279 l 269 284 m 245 262 l 248 241 l 234 230 l 229 235 l 234 238 q 245 262 240 249 m 351 230 l 356 219 l 348 216 l 351 230 m 389 227 l 397 219 l 378 195 l 389 227 m 513 216 q 527 208 522 215 q 513 216 519 210 m 264 203 l 269 195 q 264 203 265 197 m 345 203 q 351 195 349 200 l 345 203 m 416 146 l 443 138 q 424 127 433 134 l 443 124 l 451 127 l 462 102 q 446 108 455 108 l 451 92 l 435 102 l 424 78 l 405 73 l 402 75 l 410 92 l 413 83 l 421 92 l 429 111 l 408 108 l 416 113 q 408 121 414 119 q 397 130 400 124 l 416 146 m 408 135 q 413 127 408 130 l 408 135 m 427 121 q 432 127 430 122 q 427 121 429 126 m 418 124 l 424 113 q 418 124 424 119 m 443 119 l 448 119 l 448 124 l 446 124 l 443 119 m 435 119 l 432 111 l 437 105 l 440 111 l 435 119 m 375 119 l 383 116 l 378 113 l 375 119 m 402 119 l 405 108 l 399 111 l 402 119 m 470 105 l 475 105 l 473 100 l 470 105 m 280 67 l 291 54 q 280 67 283 58 m 413 62 l 421 54 l 416 48 q 408 56 412 54 q 413 62 410 57 z "},"G":{"ha":506,"x_min":-147,"x_max":759,"o":"m 78 652 l 70 650 l 73 658 l 78 652 m 16 636 q 10 625 15 630 l 16 636 m 471 598 l 482 601 q 471 585 479 591 l 466 604 l 471 598 m 51 576 q 70 552 58 564 q 56 536 68 539 l 48 547 l 56 544 l 56 549 l 51 576 m 292 574 l 376 506 l 425 481 l 455 473 l 488 471 q 496 452 494 463 l 485 452 l 463 444 l 444 430 l 460 416 l 450 397 l 455 392 l 490 389 l 496 370 l 485 368 q 455 359 471 366 q 441 338 448 350 q 450 319 443 328 l 441 297 q 455 302 448 302 q 441 283 448 295 l 441 210 l 447 191 q 441 170 446 180 l 441 134 q 447 129 445 134 l 441 113 l 447 -28 l 455 -58 q 463 -88 458 -72 l 474 -115 l 488 -137 l 496 -156 l 485 -159 q 469 -142 476 -153 q 455 -121 462 -133 l 441 -96 q 431 -88 438 -88 l 420 -113 l 404 -137 q 385 -153 395 -145 l 363 -170 l 311 -191 l 219 -205 l 151 -197 l 124 -186 l 83 -153 l 70 -129 l 67 -94 q 78 -66 71 -81 l 94 -45 l 116 -31 l 149 -26 l 178 -34 q 203 -47 191 -39 l 222 -64 l 233 -91 l 224 -121 l 208 -142 l 184 -156 q 170 -172 175 -161 l 200 -180 l 233 -178 l 257 -167 q 273 -145 266 -157 l 287 -85 l 284 96 l 276 104 l 268 110 l 273 107 l 276 110 l 268 115 l 233 91 q 219 72 224 83 q 197 64 208 70 l 140 20 l 89 56 l 70 75 l 56 99 l 48 129 l 43 235 l 45 267 l 45 381 l 51 411 l 62 438 l 81 454 l 78 460 l 81 468 l 70 463 q 51 452 61 458 l 48 449 q 37 468 41 456 q 43 484 37 477 q 62 492 52 486 l 54 503 q 62 498 58 502 q 67 503 66 498 l 62 514 q 78 525 72 518 q 83 519 83 525 q 70 506 79 511 q 81 500 74 501 l 75 490 l 94 495 q 89 473 93 484 q 94 460 90 466 l 116 473 l 208 511 l 254 538 l 292 574 m -9 555 l 10 541 l 2 528 q -3 517 0 520 l -22 533 q -9 555 -14 542 m 458 552 q 463 544 462 549 q 458 552 458 546 m 5 549 q 10 544 8 549 q 5 549 7 545 m 24 549 l 35 549 l 24 538 l 24 549 m -1 538 l -3 530 l 2 530 l 5 536 l -1 538 m 455 541 l 460 541 l 458 536 l 455 541 m -36 538 l -28 533 q -36 538 -33 533 m 401 528 l 406 528 l 404 522 l 401 528 m 127 525 l 138 509 l 132 511 l 127 506 q 119 511 124 511 q 127 525 124 516 m 108 519 q 116 514 113 519 l 108 519 m 73 514 q 78 506 73 509 l 73 514 m 67 490 l 67 484 l 73 487 l 67 490 m 62 487 l 67 473 q 62 487 66 480 m 100 487 l 105 471 l 102 473 l 94 471 l 100 487 m -17 484 l -9 479 q -17 484 -14 480 m 10 479 q 16 473 14 478 l 10 479 m -14 473 l -1 471 l 2 473 q -6 463 -3 470 l 2 446 l -3 452 l -9 452 l -9 449 l -20 457 l -14 473 m 200 465 l 200 354 l 211 351 l 200 343 q 216 332 208 340 l 235 327 l 233 332 q 241 321 240 328 l 243 305 l 238 294 l 233 278 l 238 278 l 238 281 l 235 264 q 241 245 239 256 l 252 235 l 249 245 l 257 229 q 271 237 262 236 l 287 224 l 287 403 q 271 397 280 400 l 268 406 l 271 408 l 262 400 q 243 406 254 401 l 227 400 l 224 408 l 238 419 l 252 414 l 260 408 l 265 411 l 265 416 l 262 416 l 268 427 l 211 457 l 200 465 m 45 457 l 45 463 l 43 463 l 45 457 m -1 435 q 5 425 3 431 l -1 435 m 241 433 q 246 425 245 431 l 241 433 m 490 419 l 493 400 l 482 414 l 490 419 m 496 419 l 504 416 l 496 414 l 496 419 m 29 392 q 35 387 33 391 l 29 392 m 238 389 q 246 376 245 384 l 238 389 m 26 387 q 37 376 33 385 l 26 387 m 16 381 l 24 378 l 16 376 l 16 381 m -44 351 q -39 343 -40 349 l -44 351 m 219 330 l 214 316 l 227 321 l 219 330 m 200 324 l 203 316 l 205 324 l 200 324 m 227 313 l 227 319 l 224 319 l 227 313 m 205 316 l 200 308 l 211 311 q 205 316 210 313 m 208 308 q 200 289 203 300 l 208 281 l 214 305 l 208 308 m 224 308 l 233 302 q 224 308 231 307 m 216 297 q 233 286 222 290 q 216 297 226 294 m 214 283 l 219 283 l 219 289 l 216 289 l 214 283 m 211 281 q 227 273 218 275 q 211 281 220 279 m 200 278 l 200 273 q 200 278 203 275 m 233 264 q 227 270 232 268 q 233 264 229 267 m 200 267 l 200 262 l 205 264 l 200 267 m 233 254 l 235 251 l 243 256 l 235 259 l 233 254 m 205 256 l 211 243 q 205 256 211 250 m 631 251 l 648 237 l 631 232 l 626 240 l 615 232 l 615 237 l 610 235 l 615 243 l 629 240 l 634 243 l 631 251 m 200 237 l 205 237 l 205 243 l 203 243 l 200 237 m 233 240 l 230 232 l 238 229 l 233 240 m 243 235 q 252 229 245 230 l 243 235 m 273 235 l 257 224 l 271 221 l 279 224 l 273 235 m 211 227 q 205 232 210 230 q 211 227 207 229 m 214 229 q 222 218 216 220 l 214 229 m 241 229 l 233 205 l 235 189 l 227 194 l 222 183 l 211 194 l 200 194 l 200 156 q 214 123 205 139 l 224 118 l 252 126 l 276 145 l 281 159 l 273 148 l 271 156 q 262 175 269 168 q 241 183 252 176 l 238 205 l 249 199 l 243 180 l 260 186 l 284 210 l 254 224 l 249 213 q 241 229 247 221 m 200 227 l 203 216 l 205 224 l 200 227 m 279 216 l 284 216 l 284 221 l 281 221 l 279 216 m 32 218 q 43 208 38 215 l 32 218 m 550 218 q 555 208 555 214 l 550 218 m 203 210 l 205 202 l 211 205 l 211 213 l 203 210 m 450 210 q 455 205 453 210 l 452 202 l 450 210 m 284 197 l 287 189 l 287 197 l 284 197 m 257 189 q 252 194 254 189 l 257 189 m 637 183 q 642 178 640 182 l 640 175 l 637 183 m 211 180 l 214 172 l 208 172 l 211 180 m 626 180 q 640 161 633 173 q 631 151 633 156 l 637 142 l 640 148 l 634 140 q 626 129 628 136 l 615 126 l 621 113 q 629 104 627 110 l 615 91 l 610 102 l 599 99 q 588 113 591 103 l 593 121 l 588 126 l 602 118 l 604 140 l 599 142 q 588 153 594 146 q 593 148 591 153 l 596 153 l 621 167 l 604 172 l 626 180 m 216 175 l 222 175 l 219 170 l 216 175 m 466 172 l 474 170 l 477 172 q 463 161 471 166 l 466 172 m 276 161 l 276 167 l 273 167 l 276 161 m 626 164 l 621 153 q 626 164 625 158 m 726 161 l 734 156 l 756 161 l 759 156 l 756 148 l 726 161 m 672 153 q 677 148 675 153 l 672 153 m 648 151 l 656 142 l 642 137 l 648 151 m 222 142 q 216 148 218 143 l 222 142 m 493 148 q 504 142 498 142 l 498 132 l 490 123 l 482 137 l 466 129 l 471 137 l 493 148 m 583 148 l 593 140 q 583 148 587 141 m 610 145 q 618 134 611 138 l 610 145 m 458 142 l 466 140 l 460 137 l 458 142 m 545 137 l 553 121 l 542 121 l 539 118 l 531 129 l 545 137 m 740 132 l 748 123 l 740 121 l 743 129 l 740 132 m 276 121 l 279 118 l 287 123 l 281 126 l 276 121 m 279 113 l 281 107 l 287 110 l 284 118 l 279 113 m 593 104 q 599 110 597 105 q 593 104 596 109 m 618 110 l 618 104 l 623 107 l 618 110 m 574 110 q 583 102 579 107 q 574 110 578 104 m 593 96 l 593 102 l 591 102 l 593 96 m 607 88 q 602 94 604 89 l 607 88 m 615 83 q 623 69 616 74 l 610 53 l 607 69 l 615 83 m 591 80 q 596 75 594 79 l 591 80 m 574 61 l 566 58 l 569 66 l 574 61 m 702 58 l 710 50 l 699 47 q 702 58 701 52 m 493 20 l 498 20 l 496 15 l 493 20 m 528 7 l 534 -1 q 528 7 530 1 m 536 -12 q 547 -23 543 -15 l 542 -20 l 534 -26 l 528 -23 l 536 -12 m 558 -20 l 564 -28 q 558 -20 559 -26 m 436 -151 l 439 -175 q 422 -164 433 -169 l 417 -175 l 406 -180 l 412 -172 l 436 -151 m 328 -189 l 336 -199 q 328 -189 330 -196 m -134 -279 q -147 -298 -137 -290 q -134 -279 -142 -288 z "},"H":{"ha":562,"x_min":-359,"x_max":545,"o":"m -182 813 l -185 810 l -191 816 l -188 819 l -182 813 m 192 770 l 195 762 l 189 767 l 192 770 m 203 764 q 224 753 214 761 l 211 748 l 203 764 m -234 756 q -229 751 -231 755 l -234 756 m 260 743 l 319 743 l 344 740 l 344 726 l 328 724 q 279 713 307 722 l 243 694 q 230 648 233 675 l 230 591 q 243 580 233 581 q 233 566 237 575 l 230 441 l 325 504 l 341 520 l 357 515 q 366 536 359 526 l 401 555 l 428 526 l 469 450 l 471 357 l 477 355 l 471 347 l 471 325 q 477 319 472 321 l 471 311 l 471 127 q 507 105 484 110 q 545 121 522 116 q 523 94 536 107 l 428 18 q 390 -3 412 6 l 355 21 q 330 54 342 35 q 317 100 321 74 l 317 390 q 306 433 314 409 l 295 444 q 262 439 279 443 l 230 414 l 230 300 q 238 290 237 297 q 219 271 225 285 l 224 276 l 230 235 q 238 208 231 223 q 230 200 232 206 l 230 178 l 227 173 l 230 170 l 227 162 l 230 159 l 230 151 q 246 111 231 130 l 276 105 l 271 86 l 173 13 l 184 -6 l 143 -20 q 149 -12 144 -14 l 159 5 l 140 16 l 45 83 q 29 111 31 92 l 43 108 q 75 132 64 111 l 75 249 q 54 273 72 265 l 40 284 l 21 314 l -9 333 l -22 357 q -47 352 -33 353 q -58 366 -53 357 l -31 374 q -17 357 -26 365 l 5 347 l 7 360 q -1 374 7 370 l -14 363 q -22 379 -16 372 q -28 385 -24 384 l -47 390 l -44 374 l -50 376 q -71 363 -59 368 l -60 382 q -47 406 -52 393 l -36 409 q -47 417 -39 416 l -66 406 l -60 420 l -68 414 l -68 420 q -77 398 -70 410 l -71 401 l -77 409 q -87 420 -79 416 l -79 422 l -93 447 l -82 458 l -96 452 l -93 458 l -96 460 q -109 452 -102 458 l -104 444 l -117 428 l -139 420 l -134 441 l -147 463 l -144 485 q -134 479 -138 484 l -112 488 l -125 490 q -98 517 -116 506 q -93 504 -93 511 l -71 507 l -33 488 q -22 466 -26 479 l -36 458 q -41 463 -37 462 q -55 474 -45 471 q -50 463 -51 470 q -74 474 -63 470 q -66 455 -68 465 l -41 425 l -17 422 l -12 398 l -17 390 q -3 382 -10 388 q 2 387 -1 382 l -1 401 l 2 404 l 21 393 l 5 395 l 10 376 l 35 371 l 32 379 l 26 387 q 32 393 29 388 l 37 382 l 48 379 l 75 382 l 75 545 l 73 545 l 73 553 l 62 593 q 45 634 57 612 q 26 667 38 650 l 13 688 q 24 699 16 694 l 48 672 l 70 634 l 75 618 q 86 642 81 628 l 102 669 l 135 696 l 170 715 q 214 732 189 725 l 260 743 m -212 732 l -193 715 q -201 694 -195 705 l -212 699 l -204 713 l -212 732 m -348 713 l -340 705 q -348 713 -345 707 m -256 713 q -250 707 -252 712 l -256 713 m -237 710 q -229 705 -231 709 q -237 710 -234 705 m -280 702 q -264 688 -270 697 l -269 675 l -286 686 l -272 688 l -280 702 m -39 696 l -28 691 q -39 696 -35 692 m -177 683 l -174 667 l -188 675 l -180 664 l -188 661 l -166 656 l -153 640 l -166 621 l -161 607 q -174 612 -166 612 l -177 626 q -188 615 -184 624 l -201 621 l -204 610 l -196 607 l -210 604 l -229 626 l -220 623 l -218 626 l -226 634 q -218 642 -224 642 q -210 634 -215 637 q -204 642 -210 640 l -193 664 l -177 683 m -139 683 q -128 672 -136 677 l -142 669 l -150 677 l -139 683 m -68 667 l -63 653 l -66 648 l -77 653 l -68 667 m -253 661 l -256 653 l -258 664 l -253 661 m -28 659 q -44 642 -28 642 l -28 659 m -17 659 q -12 650 -12 656 l -17 659 m 203 648 q 197 653 202 651 q 203 648 199 650 m -172 648 q -177 631 -172 640 l -172 629 l -163 631 l -158 645 l -172 648 m -36 645 l -39 637 l -33 640 l -33 645 l -36 645 m -196 637 l -196 642 l -199 642 l -196 637 m -166 623 l -166 629 l -169 629 l -166 623 m -272 629 l -261 615 l -269 618 l -269 612 q -261 604 -265 607 l -272 618 l -283 621 l -286 618 l -272 629 m -52 623 l -50 615 l -55 612 l -52 623 m -212 612 q -207 618 -208 614 q -212 612 -210 616 m -269 602 l -277 591 l -275 607 l -269 602 m 16 604 q 24 583 17 591 l 18 561 q -1 566 9 562 l -17 561 l -28 555 l -36 561 l -31 583 l -1 569 l 5 583 q 16 604 9 592 m -144 593 l -136 588 q -144 593 -142 588 m -17 593 q -12 585 -13 591 q -17 593 -16 588 m -172 588 q -166 580 -167 586 q -172 588 -170 583 m -117 588 l -104 585 q -109 564 -109 573 l -112 550 l -106 542 q -120 536 -113 541 l -123 545 l -115 561 l -117 588 m -125 585 l -123 577 l -131 583 l -125 583 l -125 585 m -112 583 l -115 574 l -106 580 l -112 583 m -150 583 l -142 580 l -147 577 l -150 583 m -25 572 l -25 577 l -28 577 l -25 572 m -85 577 l -77 574 l -85 572 l -85 577 m -172 569 q -180 555 -174 562 l -172 569 m -25 561 l -25 566 l -28 566 l -25 561 m -98 555 q -104 561 -101 556 l -98 555 m -147 550 q -153 555 -151 550 l -147 550 m 393 542 q 387 547 392 545 q 393 542 389 545 m -155 547 q -150 539 -151 545 l -155 547 m 59 547 q 64 539 63 545 q 59 547 61 542 m -229 545 l -218 539 l -229 536 l -229 545 m -77 526 q -71 517 -72 524 l -77 526 m 203 515 l 203 520 l 200 520 l 203 515 m -125 517 l -123 504 l -128 507 l -125 517 m -98 515 l -98 509 q -98 515 -96 512 m -191 515 l -182 512 l -191 509 l -191 515 m -58 509 q -63 515 -61 510 l -58 509 m -296 507 l -299 504 l -302 512 l -296 507 m -112 504 q -104 488 -111 494 l -96 498 q -112 504 -103 500 m -82 504 l -93 493 q -82 504 -85 495 m 2 498 l 10 493 q 2 498 5 493 m -90 490 l -82 485 q -90 490 -84 489 m -74 485 q -68 490 -69 486 l -74 485 m -58 488 q -50 477 -56 481 l -58 488 m -20 490 q -14 485 -16 490 l -20 490 m -68 477 l -63 474 l -60 479 l -66 482 l -68 477 m -85 479 l -93 466 l -79 458 l -77 477 l -85 479 m -125 463 l -117 458 q -125 463 -119 462 m -90 463 l -90 458 q -90 463 -87 460 m -115 460 l -117 455 l -112 455 l -112 460 l -115 460 m 37 458 l 48 450 q 37 458 41 452 m -123 452 l -131 439 l -115 447 l -123 452 m -44 455 l -36 452 l -44 450 l -44 455 m -109 444 l -109 450 l -112 450 l -109 444 m -68 433 q -74 439 -69 437 q -68 433 -73 436 m 26 439 q 32 433 30 438 l 24 428 l 29 433 l 26 439 m 51 436 q 56 428 55 434 l 51 436 m -98 433 q -93 428 -95 433 q -98 433 -96 429 m -44 431 l -52 422 q -44 431 -47 425 m -58 420 l -58 414 l -55 414 l -55 420 l -58 420 m 341 417 l 344 409 l 344 417 l 341 417 m -177 417 q -172 412 -174 416 l -180 406 l -177 417 m 13 417 q 18 412 16 416 l 13 417 m -166 412 l -163 401 l -172 401 q -166 412 -168 404 m -136 412 l -128 409 l -136 406 l -136 412 m -96 409 l -93 401 l -98 406 l -96 409 m -125 406 l -123 382 l -134 390 l -125 406 m -36 404 q -41 393 -41 399 l -31 395 l -36 404 m 319 401 q 325 395 320 397 q 319 401 324 398 m -158 398 q -144 390 -150 396 q -158 398 -151 393 m -77 395 q -71 387 -72 393 l -74 376 l -71 374 l -85 379 l -96 376 l -98 385 l -90 387 q -77 395 -82 389 m -207 393 l -199 379 l -210 385 q -218 379 -212 381 l -207 393 m -155 382 l -158 366 l -153 349 l -177 355 l -172 360 q -155 382 -168 373 m -226 376 q -218 368 -220 374 q -226 376 -222 370 m -60 368 l -60 374 l -63 374 l -60 368 m 26 363 l 26 368 l 24 368 l 26 363 m 64 366 l 62 357 l 67 360 l 67 366 l 64 366 m -36 355 q -41 360 -37 358 q -36 355 -40 357 m 51 357 q 59 333 51 345 l 51 357 m 56 349 l 62 352 l 59 355 l 56 349 m -147 355 l -147 336 l -158 338 q -147 355 -151 345 m -14 352 q -9 347 -14 349 q -14 352 -9 350 m 18 352 l 18 347 l 21 347 l 21 352 l 18 352 m 67 338 l 70 341 l 62 344 q 67 338 63 341 m 2 336 l 2 341 l -1 341 l 2 336 m -185 338 q -172 322 -178 332 l -169 333 q -144 319 -155 328 l -163 325 l -169 317 l -177 319 l -185 338 m -115 336 l -106 325 q -115 336 -113 328 m -44 333 l -31 328 q -44 333 -39 328 m -22 322 l -31 319 l -28 328 l -22 322 m 488 325 q 493 319 491 324 l 498 322 q 493 309 494 316 q 479 314 487 314 l 488 325 m 243 319 l 252 317 l 246 314 l 243 319 m -166 317 q -172 311 -167 313 l -166 317 m 75 306 l 75 311 l 73 311 l 75 306 m -66 306 q -71 298 -66 301 l -66 306 m -33 306 q -28 298 -28 304 l -33 306 m -47 303 l -41 295 q -47 303 -45 298 m 56 295 l 56 300 l 54 300 l 56 295 m 246 298 l 252 287 q 246 298 248 291 m 279 295 l 300 279 l 287 273 l 292 276 l 287 284 q 273 279 280 279 l 279 295 m 219 284 l 219 290 l 216 290 l 219 284 m 488 287 l 485 284 l 482 292 l 488 287 m 29 290 q 24 273 29 280 l 13 265 l 5 271 q 16 279 11 273 l 29 290 m 75 276 l 75 281 l 73 281 l 75 276 m 197 276 q 203 271 198 273 q 197 276 202 273 m -31 276 q -25 268 -26 273 q -31 276 -29 271 m 75 268 l 75 273 l 73 273 l 75 268 m 189 265 q 195 271 194 266 l 189 265 m 176 262 l 181 262 l 178 268 l 176 262 m 197 262 l 203 246 l 208 252 l 203 268 l 197 262 m 189 257 q 184 262 189 260 q 189 257 185 260 m 186 257 q 192 249 187 252 q 186 257 191 254 m 195 249 l 186 238 l 178 243 l 176 238 l 173 227 l 176 224 l 189 227 q 195 249 193 237 m 197 241 l 197 235 l 203 238 l 197 241 m 48 238 q 54 230 52 235 l 48 238 m 205 230 l 205 235 l 203 235 l 205 230 m 184 230 q 178 235 180 231 l 184 230 m 216 219 l 222 211 q 216 219 221 216 m 414 176 l 414 181 l 412 181 l 414 176 m 162 168 l 162 173 l 159 173 l 162 168 m 97 159 q 105 151 100 154 l 97 159 m 360 159 l 376 146 q 360 159 370 155 m 355 157 q 360 151 355 153 q 355 157 359 154 m 387 149 q 395 143 390 144 l 387 149 m 271 149 l 284 143 l 290 149 l 273 138 l 271 149 m 382 146 l 360 132 l 374 113 q 385 132 383 120 q 398 143 392 136 l 387 140 q 382 146 387 143 m 382 100 l 382 94 l 385 94 l 385 100 l 382 100 m 102 92 l 108 83 q 102 92 107 89 m 385 83 l 385 89 l 382 89 l 385 83 m 59 81 l 67 75 q 59 81 65 79 m 105 75 l 105 81 l 102 81 l 105 75 m 482 73 l 482 78 l 479 78 l 482 73 m 111 70 l 105 70 l 108 59 l 111 64 q 119 54 111 56 l 132 70 l 108 75 l 111 70 m 479 67 q 474 73 479 71 q 479 67 475 70 m 452 59 l 452 64 l 450 64 l 452 59 m 130 59 l 121 40 l 138 45 l 132 37 l 146 59 l 130 59 m 127 56 l 127 51 q 127 56 130 54 m 54 56 q 59 51 57 56 q 54 56 56 52 m 143 21 q 149 16 144 18 q 143 21 148 18 m 195 18 q 200 7 199 14 l 195 18 m 162 2 q 168 -3 163 -1 q 162 2 167 -1 m 32 -28 l 45 -31 l 37 -33 l 32 -28 m 73 -31 q 64 -39 71 -36 l 73 -31 m -359 -79 l -351 -82 l -359 -85 l -359 -79 z "},"I":{"ha":362,"x_min":-237,"x_max":563,"o":"m 476 893 l 484 890 l 476 888 l 476 893 m 208 806 l 338 806 l 332 798 l 164 600 l 208 806 m 343 633 l 351 625 q 343 633 347 627 m 159 562 q 191 530 174 549 q 227 500 205 515 q 264 473 242 486 l 292 459 q 283 443 291 450 q 240 421 261 441 l 235 394 q 240 383 239 390 l 259 370 q 251 337 258 354 l 254 345 l 251 351 l 237 356 l 235 323 l 235 150 l 237 139 q 275 112 248 117 l 294 131 l 313 123 l 283 98 q 248 68 269 84 q 213 39 235 54 q 175 12 197 23 l 159 3 l 137 20 l 104 52 l 91 104 l 85 193 l 88 204 l 88 288 l 85 310 l 88 318 l 88 410 q 61 446 86 435 l 23 435 l 18 446 q 56 473 33 460 l 129 530 l 159 562 m -175 484 l -167 486 q -189 478 -176 481 q -178 489 -182 481 l -175 484 m -50 421 l -45 413 l -53 408 l -50 421 m 256 397 l 264 394 l 256 391 l 256 397 m 544 389 l 563 383 l 552 378 q 541 367 549 371 l 522 361 l 530 367 l 544 389 m 66 367 l 75 364 l 69 361 l 66 367 m 549 364 q 544 359 549 361 l 549 364 m 324 356 l 330 356 l 327 351 l 324 356 m 56 348 l 66 342 l 58 337 l 56 348 m 281 329 l 297 323 l 289 321 l 281 329 m -85 313 q -66 304 -76 311 q -85 313 -75 307 m 267 313 l 292 307 l 283 302 l 267 313 m 495 313 l 503 299 q 495 313 495 303 m 476 302 l 479 294 l 473 299 l 476 302 m 465 299 q 471 294 469 298 l 465 299 m 248 296 q 254 291 252 296 l 248 296 m 77 288 q 83 277 82 284 l 77 288 m -64 277 l -53 269 q -64 277 -61 271 m -58 264 q -66 248 -59 255 l -58 264 m -28 253 l -23 253 l -39 239 q -28 253 -35 246 m 313 253 l 316 234 l 321 220 l 311 215 l 305 237 l 313 253 m -237 245 l -232 237 q -237 245 -235 239 m -28 245 l -23 245 l -26 239 l -28 245 m 330 239 l 349 218 l 335 226 l 330 239 m -164 237 l -156 226 q -164 237 -162 230 m -145 237 l -140 223 l -145 218 l -145 223 l -148 223 l -153 234 l -145 234 l -145 237 m 254 237 l 262 226 q 254 237 257 229 m 64 234 l 66 226 l 61 231 l 64 234 m 354 218 q 370 185 369 205 l 378 172 q 354 161 368 168 q 340 193 349 178 q 332 210 334 200 q 354 218 344 212 m 351 210 q 357 215 355 210 q 351 210 354 214 m 39 212 l 56 193 l 47 191 q 28 204 34 192 l 39 212 m 66 210 q 58 201 64 203 l 66 210 m 343 207 l 338 199 l 346 196 l 343 207 m 39 201 l 39 196 l 42 196 l 42 201 l 39 201 m -45 201 q -28 193 -38 194 l -12 188 l -7 182 q -12 166 -11 175 l -28 174 l -23 158 l -31 163 q -37 174 -31 170 l -45 177 l -37 191 l -45 201 m -31 185 q -23 177 -28 180 q -31 185 -25 182 m 53 174 l 61 169 l 66 174 q 56 166 63 169 l 53 174 m 56 163 q 61 155 60 161 l 53 153 l 56 163 m -34 158 q -39 153 -35 155 l -34 158 m -20 158 q -15 153 -17 157 l -23 150 l -20 158 m -1 155 l 4 142 l -7 150 q -1 155 -4 151 m 332 155 l 335 147 l 330 153 l 332 155 m -12 153 q -1 139 -8 144 l -18 139 l -12 153 m 28 120 l 34 120 l 31 115 l 28 120 z "},"J":{"ha":366,"x_min":-45,"x_max":456,"o":"m 168 821 q 157 810 168 812 q 168 821 163 813 m 195 812 l 326 812 l 320 804 l 152 606 l 195 812 m 296 753 l 301 745 l 293 739 l 296 753 m 450 650 l 456 650 l 453 644 l 450 650 m 260 644 q 279 636 270 642 q 260 644 271 638 m 423 620 q 429 609 428 616 l 423 620 m 282 609 l 293 601 q 282 609 285 603 m 288 595 q 279 579 286 587 l 288 595 m 317 585 l 307 571 q 317 585 311 578 m 109 576 l 114 568 q 109 576 111 571 m 317 576 l 323 576 l 320 571 l 317 576 m 182 568 l 190 557 q 182 568 184 562 m 201 568 l 206 555 l 201 549 l 201 555 l 198 555 l 193 566 l 201 566 l 201 568 m 410 566 l 412 557 l 407 563 l 410 566 m 152 560 l 176 536 q 201 514 186 525 q 225 492 212 503 l 252 473 q 274 452 263 465 l 285 444 l 279 441 l 266 444 q 236 427 250 438 l 228 395 l 225 262 l 228 224 l 220 194 l 209 208 l 212 189 q 220 170 219 180 q 212 145 214 159 l 228 153 l 222 142 q 228 126 223 134 l 222 121 l 228 80 l 228 -12 l 236 -52 q 244 -90 239 -71 l 255 -125 l 271 -158 l 282 -174 l 271 -182 q 250 -155 260 -171 l 233 -125 q 217 -106 227 -114 l 203 -139 l 184 -166 l 157 -185 l 125 -201 l 54 -223 l -37 -226 q -45 -207 -43 -218 l -26 -204 q 14 -199 -7 -203 q 46 -185 31 -195 q 65 -155 56 -173 l 73 -71 l 73 254 q 79 289 74 269 l 73 311 q 79 316 75 314 q 92 330 85 325 l 98 351 l 95 359 l 73 349 l 73 395 l 68 435 l 60 444 q 35 438 48 443 l 24 433 l 19 449 l 106 514 l 152 560 m 385 544 l 401 525 l 393 522 q 374 536 379 524 l 385 544 m 412 541 q 404 533 410 535 l 412 541 m 385 533 l 385 528 l 388 528 l 388 533 l 385 533 m 301 533 q 317 525 308 526 l 334 519 l 339 514 q 334 498 335 507 l 317 506 l 323 490 l 315 495 q 309 506 314 501 l 301 509 l 309 522 l 301 533 m 315 517 q 323 509 317 512 q 315 517 321 514 m 399 506 l 407 500 l 412 506 q 401 498 409 500 l 399 506 m 401 495 q 407 487 406 492 l 399 484 l 401 495 m 195 487 q 201 479 197 481 l 195 487 m 312 490 q 307 484 311 487 l 312 490 m 326 490 q 331 484 329 489 l 323 481 l 326 490 m 345 487 l 350 473 l 339 481 q 345 487 342 482 m 334 484 q 345 471 338 476 l 328 471 l 334 484 m 374 452 l 380 452 l 377 446 l 374 452 m 225 381 q 220 387 224 385 q 225 381 221 384 m 103 365 l 106 354 l 114 362 l 109 368 l 103 365 m 100 351 l 100 346 q 100 351 103 349 m 109 297 l 109 302 l 106 302 l 109 297 m 174 254 l 174 248 l 179 251 l 174 254 m 217 224 l 217 218 l 222 221 l 217 224 m 209 216 l 212 210 l 212 216 l 209 216 m 212 186 q 217 175 212 180 q 212 186 217 182 m 187 167 l 187 172 l 184 172 l 187 167 z "},"K":{"ha":558,"x_min":-56,"x_max":595,"o":"m 267 746 l 305 746 q 338 741 321 745 q 311 727 329 728 l 283 719 l 259 705 l 240 689 l 227 665 l 224 442 l 243 448 l 305 496 l 327 510 l 368 545 l 384 553 l 416 534 l 454 496 l 471 475 l 479 448 q 460 429 471 438 l 416 396 l 397 385 l 406 369 l 395 369 l 444 307 l 465 255 l 481 157 l 492 133 q 525 127 507 129 l 544 136 l 544 125 l 525 106 l 503 92 l 481 73 l 468 57 q 446 41 457 50 l 425 24 q 403 8 415 16 l 387 0 l 359 24 l 343 43 q 330 60 338 52 l 308 79 q 300 95 307 88 l 294 117 l 305 125 q 300 152 304 138 q 294 168 294 159 q 305 155 298 160 l 305 165 q 319 176 315 167 l 313 203 q 302 225 310 214 q 297 252 302 238 l 281 274 q 259 282 271 280 l 235 271 q 224 244 227 260 l 227 136 q 243 114 232 123 l 273 117 q 256 95 267 104 l 210 65 l 153 11 l 140 0 q 134 8 138 5 l 118 30 l 80 65 q 56 79 69 73 l 31 92 q 15 114 17 97 l 50 117 q 66 136 59 124 l 69 209 l 58 212 l 66 220 l 69 252 l 66 285 q 58 290 60 286 l 66 304 l 69 336 l 66 445 l 50 502 l 37 526 q 26 553 33 539 l 12 575 q 7 586 9 579 l 9 591 l 18 594 l 37 575 l 53 553 l 64 526 l 69 529 l 47 616 l 23 667 l 7 689 l 12 705 l 23 697 q 39 678 31 689 l 56 656 l 66 629 l 75 640 l 85 667 l 104 684 q 126 700 114 692 l 178 724 l 267 746 m 487 507 q 503 499 494 505 q 487 507 494 500 m 514 486 q 509 491 510 486 l 514 486 m 262 442 l 237 429 q 224 404 228 418 l 224 293 q 229 288 224 288 l 240 296 l 264 309 l 283 326 l 349 366 q 340 380 346 372 l 308 423 l 289 439 l 262 442 m 500 445 q 506 439 504 444 l 500 445 m 514 434 q 509 439 511 435 l 514 434 m 487 431 l 492 423 l 511 429 l 503 418 q 487 431 494 422 m 433 388 q 427 380 433 382 l 433 388 m 452 382 q 457 377 455 382 q 452 382 454 378 m 433 374 l 430 366 l 427 377 l 433 374 m -23 339 q -28 317 -23 328 l -23 339 m -56 307 l -47 304 l -56 301 l -56 307 m 58 277 l 61 266 l 56 263 l 58 277 m 256 214 l 262 214 l 259 209 l 256 214 m 300 184 l 311 179 q 300 184 303 179 m 321 141 l 321 146 l 319 146 l 321 141 m 294 146 l 300 136 q 294 146 296 140 m 313 138 l 313 133 l 319 136 l 313 138 m 302 109 q 308 103 303 105 q 302 109 307 106 m 595 68 q 582 62 590 63 l 595 68 z "},"L":{"ha":342,"x_min":-201,"x_max":759,"o":"m 317 746 l 322 730 l 276 713 l 252 697 l 241 670 q 233 637 236 656 l 233 621 l 317 637 l 322 621 l 276 605 l 252 589 l 241 562 q 233 529 236 547 l 233 510 l 235 510 l 233 505 l 233 431 l 238 434 l 238 445 l 246 434 l 260 429 l 265 437 l 268 456 l 279 464 l 273 453 q 284 442 277 446 q 279 415 284 430 q 265 423 274 420 l 249 418 l 246 426 q 233 415 237 421 l 233 353 l 243 350 l 241 331 l 249 323 l 241 320 l 233 301 l 243 298 l 233 296 q 241 271 239 285 q 252 263 245 264 l 254 250 q 273 258 262 256 l 284 247 l 306 241 l 328 250 l 336 241 q 355 252 342 249 l 349 266 q 366 241 359 256 q 360 222 360 233 l 374 236 l 371 225 q 376 212 372 218 l 387 225 q 401 212 395 222 l 398 201 l 390 193 l 401 193 l 398 190 q 387 195 392 191 l 385 209 q 363 195 372 204 q 368 179 363 188 l 382 171 q 390 160 383 163 q 401 179 392 170 l 417 184 l 406 165 l 414 157 q 420 171 415 164 l 425 163 l 431 144 q 414 152 424 150 l 417 144 l 412 141 q 422 127 415 134 q 417 122 422 123 l 404 111 l 401 122 q 379 114 390 121 l 385 125 q 379 130 381 125 l 368 149 q 357 136 361 144 l 344 133 l 341 138 q 322 125 334 131 q 306 103 316 113 l 279 90 l 168 0 l 83 76 l 32 103 l 32 119 l 56 117 q 75 136 68 123 l 78 160 l 78 168 l 75 168 q 70 187 75 178 l 75 198 l 78 233 l 78 350 l 75 374 l 78 382 l 75 461 q 62 483 71 473 l 51 472 q 59 467 56 471 q 37 477 48 470 q 32 496 37 487 l 37 502 l 59 507 l 45 532 q 29 553 39 544 l 16 586 q 26 591 20 591 l 45 572 l 56 564 l 59 575 l 56 578 q 51 594 52 585 l 67 570 q 62 553 66 562 q 73 543 64 545 q 78 548 77 544 l 67 594 l 43 651 l 26 673 q 18 694 20 682 q 26 705 20 701 l 35 692 l 54 667 l 67 643 q 81 624 73 633 l 92 651 q 111 675 99 663 l 130 694 l 157 708 l 317 746 m 78 673 l 70 670 l 73 678 l 78 673 m -199 665 l -193 651 l -201 651 l -196 659 l -199 665 m 16 656 q 10 646 15 650 l 16 656 m 471 618 l 482 621 q 471 605 479 612 l 466 624 l 471 618 m -9 575 l 10 562 l 2 548 q -3 537 0 541 l -22 553 q -9 575 -14 562 m 458 572 q 463 564 462 570 q 458 572 458 566 m 5 570 q 10 564 8 569 q 5 570 7 565 m -1 559 l -3 551 l 2 551 l 5 556 l -1 559 m 455 562 l 460 562 l 458 556 l 455 562 m -36 559 l -28 553 q -36 559 -33 553 m 401 548 l 406 548 l 404 543 l 401 548 m 73 534 q 78 526 73 529 l 73 534 m 284 534 q 290 529 288 534 l 284 534 m 78 518 l 78 524 l 75 524 l 78 518 m -17 505 l -9 499 q -17 505 -14 500 m 10 499 q 16 494 14 498 l 10 499 m 425 499 l 428 472 l 420 477 l 425 499 m -14 494 l -1 491 l 2 494 q -6 483 -3 490 l 2 467 l -3 472 l -9 472 l -9 469 l -20 477 l -14 494 m 45 477 l 45 483 l 43 483 l 45 477 m 398 480 q 404 472 402 477 q 398 480 399 474 m 360 469 q 355 475 357 470 l 360 469 m 347 458 l 355 448 q 347 458 348 450 m -1 456 q 5 445 3 452 l -1 456 m 447 456 q 452 450 450 455 q 447 456 449 451 m 241 453 q 246 445 245 451 l 241 453 m 387 453 l 414 442 l 412 450 l 420 448 l 422 437 l 436 442 l 433 450 l 436 453 l 450 442 l 466 437 l 452 423 q 422 434 437 425 l 406 426 l 404 412 l 387 423 l 382 431 l 390 448 l 387 453 m 393 445 l 390 439 l 395 439 l 395 445 l 393 445 m 341 445 l 347 445 l 344 439 l 341 445 m 428 437 q 436 431 431 433 l 428 437 m 490 439 l 493 420 l 482 434 l 490 439 m 496 439 l 504 437 l 496 434 l 496 439 m 368 431 l 379 429 l 371 426 l 368 431 m 336 429 q 349 415 340 421 l 336 407 q 330 423 336 415 l 336 429 m 368 423 q 374 418 372 422 q 368 423 370 418 m 29 412 q 35 407 33 412 l 29 412 m 322 412 l 328 401 l 317 399 l 322 412 m 238 410 q 246 396 245 404 l 238 410 m 409 410 l 404 399 q 409 410 405 405 m 428 410 q 444 399 437 406 l 428 410 m 26 407 q 37 396 33 405 l 26 407 m 344 407 l 347 393 l 338 401 q 344 407 341 402 m 16 401 l 24 399 l 16 396 l 16 401 m 385 399 q 390 393 388 398 q 385 399 387 394 m 404 391 l 409 391 l 406 385 l 404 391 m 371 385 l 376 385 l 374 380 l 371 385 m 433 382 l 439 366 q 433 361 438 363 q 417 366 426 366 l 414 380 l 425 374 q 433 382 431 376 m 387 374 l 395 372 l 385 369 l 387 374 m -44 372 q -39 363 -40 369 l -44 372 m 395 366 l 393 358 l 390 369 l 395 366 m 420 355 l 431 350 l 417 347 l 420 355 m 444 342 l 452 342 l 447 334 l 441 339 l 444 342 m 444 328 l 460 326 l 441 315 l 444 328 m 422 323 l 428 315 q 422 323 424 317 m 393 312 l 404 296 l 385 290 l 382 293 q 393 312 390 301 m 317 290 q 311 296 313 291 l 317 290 m 233 274 l 235 271 l 243 277 l 235 279 l 233 274 m 631 271 l 648 258 l 631 252 l 626 260 l 615 252 l 615 258 l 610 255 l 615 263 l 629 260 l 634 263 l 631 271 m 233 260 q 238 250 234 254 l 233 260 m 336 260 l 344 258 l 338 255 l 336 260 m 243 255 q 252 250 245 250 l 243 255 m 273 255 l 257 244 l 271 241 l 279 244 l 273 255 m 48 252 q 64 233 59 245 q 48 252 52 238 m 241 250 l 233 225 l 238 217 q 233 176 234 195 q 241 125 233 153 l 260 117 l 295 119 l 322 136 l 311 138 q 300 127 305 135 l 287 138 l 276 119 l 268 130 l 284 141 l 292 160 q 284 165 288 161 l 273 179 l 268 198 l 260 187 l 254 193 l 241 195 l 238 222 l 246 225 l 243 201 l 254 206 l 260 203 l 279 228 q 254 239 268 236 l 241 250 m 290 244 q 295 233 290 238 l 290 244 m 279 236 l 284 236 l 284 241 l 281 241 l 279 236 m 32 239 q 43 228 38 235 l 32 239 m 338 236 l 336 228 l 341 231 l 341 236 l 338 236 m 550 239 q 555 228 555 235 l 550 239 m 352 233 l 352 228 l 355 228 l 355 233 l 352 233 m 450 231 q 455 225 453 230 l 452 222 l 450 231 m 287 220 q 292 209 287 212 q 287 220 292 214 m 360 214 l 363 217 l 355 220 q 360 214 356 217 m 447 220 l 444 193 l 431 198 l 433 190 l 420 193 l 428 206 l 447 220 m 300 214 q 319 190 308 201 q 300 214 317 205 m 257 209 q 252 214 254 210 l 257 209 m 390 212 l 390 206 l 395 209 l 390 212 m 325 203 q 330 198 326 200 q 325 203 330 201 m 290 201 l 287 195 l 292 195 l 292 201 l 290 201 m 637 203 q 642 198 640 203 l 640 195 l 637 203 m 344 193 l 344 198 l 341 198 l 344 193 m 626 201 q 640 182 633 193 q 631 171 633 176 l 637 163 l 640 168 l 634 160 q 626 149 628 156 l 615 146 l 621 133 q 629 125 627 130 l 615 111 l 610 122 l 599 119 q 588 133 591 123 l 593 141 l 588 146 l 602 138 l 604 160 l 599 163 q 588 174 594 167 q 593 168 591 173 l 596 174 l 621 187 l 604 193 l 626 201 m 59 198 q 67 190 64 195 l 59 198 m 62 190 l 59 182 l 56 193 l 62 190 m 466 193 l 474 190 l 477 193 q 463 182 471 186 l 466 193 m 276 182 l 276 187 l 273 187 l 276 182 m 626 184 l 621 174 q 626 184 625 178 m 314 182 l 306 176 l 314 174 l 314 182 m 341 182 q 347 176 342 178 q 341 182 346 179 m 726 182 l 734 176 l 756 182 l 759 176 l 756 168 l 726 182 m 404 168 l 404 174 l 401 174 l 404 168 m 672 174 q 677 168 675 173 l 672 174 m 355 168 l 355 163 l 360 165 l 355 168 m 648 171 l 656 163 l 642 157 l 648 171 m 493 168 q 504 163 498 163 l 498 152 l 490 144 l 482 157 l 466 149 l 471 157 l 493 168 m 583 168 l 593 160 q 583 168 587 161 m 610 165 q 618 155 611 159 l 610 165 m 338 157 q 333 163 338 161 l 338 157 m 352 160 l 349 144 l 357 149 q 352 160 357 155 m 458 163 l 466 160 l 460 157 l 458 163 m 330 157 l 330 152 l 336 155 l 330 157 m 338 155 l 333 146 q 338 155 337 150 m 545 157 l 553 141 l 542 141 l 539 138 l 531 149 l 545 157 m 390 146 l 390 152 l 387 152 l 390 146 m 441 155 l 450 152 l 441 149 l 441 155 m 290 149 q 295 144 290 146 l 298 146 l 290 149 m 740 152 l 748 144 l 740 141 l 743 149 l 740 152 m 404 144 q 409 138 404 140 q 404 144 408 141 m 401 136 l 404 127 l 406 133 l 401 136 m 593 125 q 599 130 597 125 q 593 125 596 129 m 618 130 l 618 125 l 623 127 l 618 130 m 574 130 q 583 122 579 127 q 574 130 578 125 m 593 117 l 593 122 l 591 122 l 593 117 m 385 117 l 390 109 q 385 117 387 111 m 607 109 q 602 114 604 109 l 607 109 m 385 106 q 393 100 389 105 l 385 106 m 615 103 q 623 90 616 94 l 610 73 l 607 90 l 615 103 m 591 100 q 596 95 594 100 l 591 100 m 390 92 q 401 73 399 85 l 390 92 m 574 81 l 566 79 l 569 87 l 574 81 m 702 79 l 710 71 l 699 68 q 702 79 701 72 m 493 41 l 498 41 l 496 35 l 493 41 m 528 27 l 534 19 q 528 27 530 22 m 536 8 q 547 -3 543 5 l 542 0 l 534 -5 l 528 -3 l 536 8 m 558 0 l 564 -8 q 558 0 559 -5 m 404 -84 l 412 -87 l 406 -90 l 404 -84 m 436 -130 l 439 -155 q 422 -144 433 -149 l 417 -155 l 406 -160 l 412 -152 l 436 -130 m 295 -168 q 306 -176 301 -170 l 295 -168 m 328 -168 l 336 -179 q 328 -168 330 -176 m -134 -239 q -147 -258 -137 -250 q -134 -239 -142 -248 z "},"M":{"ha":810,"x_min":22,"x_max":792,"o":"m 212 703 q 206 698 211 701 l 212 703 m 149 559 l 179 543 l 225 497 l 244 467 l 247 443 l 258 448 l 380 557 q 412 546 396 553 l 439 527 q 458 505 450 518 q 469 486 466 498 q 483 459 477 474 l 483 443 l 502 454 l 515 456 l 507 459 l 640 554 q 662 541 652 549 l 711 497 l 738 478 l 770 465 l 776 446 l 751 446 q 724 427 737 438 l 719 389 l 719 161 l 730 123 l 749 117 l 757 120 l 765 120 l 787 134 q 792 125 791 131 q 770 101 783 113 l 670 17 l 686 -2 l 673 6 q 667 14 669 9 l 646 -2 l 629 9 l 624 14 l 608 9 q 594 25 604 19 q 583 55 587 39 q 570 87 576 69 q 564 128 566 106 l 564 405 q 556 443 563 422 l 534 451 l 499 429 l 480 413 l 480 196 l 469 193 q 480 163 479 182 l 486 123 q 510 101 495 111 q 486 79 506 83 l 437 41 l 415 14 l 410 -2 l 396 9 l 377 36 q 353 58 367 47 l 326 77 l 293 90 q 320 109 302 102 q 331 144 327 125 q 334 188 334 163 l 334 408 l 331 416 q 317 446 328 432 q 285 440 301 444 l 252 424 l 247 386 l 247 155 q 255 117 249 138 l 279 96 q 250 79 267 87 l 222 60 q 201 36 212 50 q 182 9 191 24 l 174 -2 l 114 58 l 87 77 l 49 85 l 43 101 l 68 104 q 92 125 81 113 l 100 161 l 92 188 l 92 326 q 79 356 87 341 l 57 359 l 52 356 l 27 340 l 22 356 l 68 402 q 90 424 79 412 q 60 440 78 435 l 33 424 l 22 432 q 33 448 26 441 l 149 559 m 472 473 l 472 465 q 477 470 477 467 l 472 473 m 562 459 q 556 465 561 463 q 562 459 557 462 m 518 459 l 518 451 l 526 456 l 518 459 m 426 456 q 437 443 429 448 q 426 456 435 452 m 407 454 q 415 446 410 447 l 407 454 m 499 451 l 502 440 l 510 446 l 499 451 m 605 440 l 605 446 l 602 446 l 605 440 m 372 432 l 372 437 l 369 437 l 372 432 m 448 437 l 442 429 l 456 435 l 448 437 m 472 432 l 472 437 l 469 437 l 472 432 m 404 424 l 404 429 l 401 429 l 404 424 m 412 421 l 412 427 l 410 427 l 412 421 m 448 427 l 445 416 l 453 421 q 448 427 452 424 m 410 416 l 412 408 l 415 416 l 410 416 m 469 342 l 475 340 l 475 348 l 472 348 l 469 342 m 437 250 q 431 256 436 254 q 437 250 433 253 m 445 234 l 450 234 l 450 239 l 448 239 l 445 234 m 415 234 l 415 229 l 420 231 l 415 234 m 418 218 l 423 218 l 420 223 l 418 218 m 388 201 l 388 207 l 385 207 l 388 201 m 404 207 q 410 196 405 201 q 404 207 409 202 m 385 199 q 377 174 383 187 l 385 180 l 401 199 l 391 196 l 385 199 m 366 193 q 372 188 367 190 q 366 193 371 191 m 450 193 l 450 188 l 456 191 l 450 193 m 358 182 q 363 188 363 183 l 358 182 m 345 180 l 350 180 l 347 185 l 345 180 m 366 180 l 372 163 l 377 169 l 372 185 l 366 180 m 358 174 q 353 180 357 178 q 358 174 354 177 m 355 174 q 361 166 356 170 q 355 174 359 172 m 363 169 l 355 155 l 345 161 l 345 153 q 358 144 349 146 q 363 169 363 156 m 418 161 l 423 158 l 423 166 l 420 166 l 418 161 m 437 166 l 439 158 l 439 166 l 437 166 m 458 155 q 453 161 458 159 q 458 155 454 158 m 366 158 l 366 153 l 372 155 l 366 158 m 374 147 l 374 153 l 372 153 l 374 147 m 353 147 q 347 153 349 148 l 353 147 m 741 153 l 746 131 l 735 147 q 741 153 739 147 m 418 139 l 418 144 l 415 144 l 418 139 m 385 136 l 391 128 q 385 136 390 134 m 420 120 l 420 125 l 418 125 l 420 120 m 404 93 l 404 98 l 401 98 l 404 93 m 583 93 l 583 98 l 581 98 l 583 93 m 331 85 l 331 90 l 328 90 l 331 85 m 412 85 l 412 90 l 410 90 l 412 85 m 401 87 l 404 79 l 404 87 l 401 87 m 467 60 q 461 52 467 55 l 467 60 m 472 58 l 491 47 q 472 58 481 50 m 483 22 l 494 3 l 477 -7 q 491 6 482 1 l 483 22 m 613 14 l 618 14 l 616 20 l 613 14 m 553 20 l 548 3 q 537 14 542 6 l 553 20 m 670 -5 l 675 -16 q 670 -5 672 -12 m 700 -18 q 705 -24 703 -18 l 700 -18 z "},"N":{"ha":576,"x_min":-134,"x_max":564,"o":"m 154 562 l 200 532 l 222 513 l 238 494 l 249 467 q 260 448 251 456 l 325 496 q 347 513 336 503 l 414 559 q 433 545 424 553 l 469 507 l 512 475 l 542 467 l 547 448 l 534 448 l 504 439 q 488 418 495 431 l 479 353 l 482 334 q 474 328 480 328 q 452 320 463 326 l 460 307 l 452 309 l 466 301 l 460 296 l 458 298 l 450 293 l 460 285 l 450 282 l 455 269 l 471 277 q 477 269 476 274 l 469 260 l 458 255 q 452 260 458 260 q 466 247 458 252 l 460 239 l 469 236 l 479 247 l 482 239 l 479 236 l 463 231 l 482 209 l 482 171 l 488 141 q 507 122 495 130 l 539 127 l 555 136 l 564 130 l 545 111 l 526 98 l 512 103 l 507 100 l 498 87 l 507 81 l 493 71 q 474 57 485 63 l 455 35 l 412 0 l 390 16 l 355 54 l 341 81 l 333 111 l 330 407 l 322 437 q 295 445 309 442 l 271 431 l 252 412 l 252 152 q 260 122 254 138 q 276 100 269 114 l 227 73 q 205 57 216 66 l 186 38 l 165 0 l 157 8 q 140 30 151 20 l 124 49 l 78 81 l 54 92 l 40 95 q 45 114 41 104 l 78 119 l 94 138 l 97 171 q 92 182 92 175 l 97 193 l 97 212 l 89 203 l 94 195 l 86 193 l 89 203 q 75 195 79 203 l 70 198 l 75 198 l 67 206 l 62 217 l 64 228 l 73 220 l 75 228 l 92 220 l 97 244 l 94 317 q 86 345 92 330 q 62 358 75 353 l 40 345 q 24 334 34 338 l 18 353 q 24 358 21 353 l 43 377 l 64 393 l 89 418 l 83 434 l 62 439 l 54 437 l 32 420 q 21 434 24 425 l 154 562 m -74 521 q -85 510 -75 513 q -74 521 -79 513 m 444 353 q 431 336 435 347 q 444 353 439 342 m 433 334 q 441 328 435 329 l 433 334 m 469 334 l 469 328 l 474 331 l 469 334 m 40 309 l 51 301 q 40 309 43 303 m 45 296 q 37 279 44 287 l 45 296 m 477 293 l 482 285 q 477 293 477 287 m 363 279 q 368 285 368 280 l 363 279 m 75 285 l 64 271 q 75 285 68 278 m 447 277 l 452 269 q 447 277 451 274 m -134 277 l -128 269 q -134 277 -132 271 m 75 277 l 81 277 l 78 271 l 75 277 m -60 269 l -52 258 q -60 269 -58 262 m -41 269 l -36 255 l -41 250 l -41 255 l -44 255 l -50 266 l -41 266 l -41 269 m 409 266 q 417 247 410 256 l 422 258 l 417 263 l 425 258 l 409 266 m 368 260 q 374 255 369 257 q 368 260 373 258 m 477 260 l 482 250 q 477 260 478 254 m 466 258 q 471 252 469 257 l 466 258 m 401 247 l 406 250 l 404 252 l 401 247 m 452 236 l 452 231 l 458 233 l 452 236 m 458 214 l 458 220 l 455 220 l 458 214 m 73 217 q 81 209 75 212 q 73 217 79 214 m 417 209 l 420 201 l 420 209 l 417 209 m 70 190 q 64 184 69 187 l 70 190 m 83 190 q 89 184 87 189 l 81 182 l 83 190 m 352 163 l 347 155 l 357 157 q 352 163 357 161 m 477 146 l 474 138 l 479 136 l 482 144 l 477 146 m 436 141 l 436 136 q 436 141 439 138 m 507 114 l 507 119 l 504 119 l 507 114 m 436 111 l 441 109 l 441 117 l 439 117 l 436 111 m 482 114 q 488 109 483 111 q 482 114 487 111 m 441 103 l 439 95 l 444 95 l 447 100 l 441 103 m 344 92 l 349 92 l 349 98 l 347 98 l 344 92 m 458 79 l 458 84 l 455 84 l 458 79 m 455 71 l 460 68 l 463 73 l 458 76 l 455 71 m 474 76 l 477 68 l 477 76 l 474 76 m 466 71 q 458 54 458 62 l 466 71 m 444 65 q 452 60 446 60 l 444 65 m 422 52 q 431 46 425 46 l 422 52 m 379 43 l 379 49 l 376 49 l 379 43 m 458 49 q 452 38 453 45 q 458 49 458 43 z "},"O":{"ha":519,"x_min":-161,"x_max":840,"o":"m 504 779 l 512 776 l 504 773 l 504 779 m 813 681 q 824 667 819 676 l 813 681 m 659 656 q 664 640 663 650 l 659 656 m 677 646 q 686 637 683 644 q 677 646 680 641 m 650 643 q 677 624 662 633 l 686 616 l 675 610 q 664 624 673 618 l 650 643 m 626 618 l 642 602 l 626 597 q 618 613 624 605 l 626 618 m 710 610 q 715 602 714 608 l 710 610 m 292 608 l 298 589 l 290 602 l 292 608 m 691 602 l 694 594 l 688 594 l 691 602 m 336 597 l 341 586 l 330 589 l 336 597 m 629 594 l 631 586 l 626 591 l 629 594 m 306 591 l 311 578 l 325 589 l 333 578 q 344 583 340 578 l 360 572 q 368 578 365 573 l 385 556 q 398 564 392 559 l 401 559 l 414 551 q 425 543 417 543 l 436 529 l 447 534 l 450 524 l 425 513 l 441 472 l 460 464 l 466 453 l 460 450 q 471 439 464 444 q 485 445 479 440 l 490 439 q 501 429 493 433 l 515 442 l 512 434 l 515 431 q 520 442 519 435 l 528 445 l 523 456 l 539 450 l 545 456 l 545 437 l 550 418 l 566 431 l 558 412 l 542 399 l 523 396 l 526 399 l 539 410 l 536 426 l 526 431 l 526 423 l 536 415 l 526 418 l 517 426 l 507 407 l 515 401 q 509 391 514 394 l 504 377 l 515 377 q 520 363 515 370 q 526 380 521 371 l 520 385 l 528 393 l 534 388 l 553 380 l 564 372 l 553 363 l 542 361 l 531 347 l 517 355 q 523 350 518 353 l 509 339 l 509 350 l 517 358 l 507 361 q 493 366 499 361 q 488 361 490 366 q 479 353 482 359 l 471 345 q 458 331 462 340 l 452 317 l 458 315 q 466 307 460 309 l 479 315 l 477 304 l 463 293 q 469 288 467 292 q 474 279 473 285 l 485 285 l 498 282 l 504 288 l 504 279 l 498 271 l 536 260 q 528 252 531 258 l 539 250 l 542 244 l 536 247 l 531 241 l 542 239 l 531 233 l 531 241 l 526 239 l 517 233 l 523 241 l 526 241 l 523 252 l 515 252 l 517 247 l 504 252 q 496 241 502 246 l 498 252 l 493 252 l 479 239 l 482 236 l 490 239 q 479 228 485 235 l 469 217 l 455 212 l 463 225 q 452 217 456 224 l 433 165 l 420 144 l 401 127 l 298 90 l 276 76 l 257 60 l 241 41 q 230 19 235 32 q 214 35 222 26 l 197 54 l 159 84 l 116 109 q 92 114 104 113 l 83 122 l 59 130 l 29 136 l 26 152 l 32 157 l 40 168 l 29 168 l 13 155 l 18 165 l 29 179 l 24 190 l 32 187 l 35 179 l 40 171 l 51 165 l 59 176 l 64 203 l 64 483 q 83 499 66 497 l 151 496 l 254 521 l 295 543 q 309 551 300 550 l 303 564 l 309 562 l 309 567 l 303 575 l 306 591 m 683 591 l 694 586 q 683 591 686 586 m 281 589 q 290 578 287 585 l 281 589 m 374 583 q 368 589 370 584 l 374 583 m 721 586 q 715 578 720 581 l 721 586 m 621 575 l 626 564 q 621 575 621 568 m 417 570 q 422 562 421 567 l 417 570 m 393 545 q 387 551 392 549 q 393 545 389 548 m 216 540 q 211 534 216 536 l 216 540 m 414 532 q 425 521 418 526 q 414 532 422 528 m 211 488 l 211 201 l 276 163 q 287 168 282 164 l 281 160 l 281 155 l 284 155 l 300 141 l 306 155 l 303 160 l 292 165 l 295 160 l 306 179 l 298 187 q 303 201 302 194 l 306 217 l 306 252 l 303 269 l 306 290 l 306 296 q 295 301 298 297 l 300 298 l 303 301 l 295 307 l 306 315 l 303 336 l 306 342 l 306 377 l 303 385 l 306 407 l 300 437 l 287 458 l 268 475 l 241 486 l 211 488 m 832 467 q 840 458 838 465 q 832 467 833 460 m 455 458 l 452 448 l 458 450 l 455 458 m 612 461 q 607 456 612 458 l 612 461 m 474 450 l 466 445 l 469 456 l 474 450 m -12 450 l -3 442 l -17 439 q -12 450 -12 444 m 615 448 l 612 437 l 583 434 q 610 450 597 438 l 615 448 m 680 450 q 686 437 685 445 l 680 450 m 572 442 l 577 429 l 572 426 l 574 434 q 569 439 571 435 l 572 442 m 479 437 l 479 431 l 482 431 l 482 437 l 479 437 m 661 439 l 667 431 q 661 439 662 433 m 450 434 l 450 429 l 455 431 l 450 434 m 509 434 l 507 426 l 512 429 l 509 434 m 450 423 l 455 410 q 463 415 460 410 l 455 429 q 450 423 452 427 m 463 423 l 463 429 l 460 429 l 463 423 m 493 420 l 493 415 l 496 415 l 496 420 l 493 420 m 501 420 q 507 415 502 417 q 501 420 506 418 m 474 410 l 474 415 l 471 415 l 474 410 m 550 415 l 545 404 l 555 412 l 550 415 m 504 407 l 504 412 l 501 412 l 504 407 m 520 415 l 528 404 q 520 415 523 408 m 466 410 l 463 401 l 471 404 q 466 410 471 408 m 490 407 l 452 396 l 452 382 l 460 391 l 452 374 q 485 372 467 372 q 490 407 490 389 m 569 404 l 566 401 l 564 410 l 569 404 m 631 407 l 637 393 q 631 407 632 399 m 292 404 l 287 391 l 292 385 l 284 391 l 292 404 m 490 396 q 496 401 494 397 q 490 396 493 400 m 558 399 l 574 388 q 558 399 566 392 m 583 399 l 585 391 l 580 391 l 583 399 m 775 399 l 789 399 q 778 391 785 394 l 775 399 m 493 385 q 498 374 493 379 l 493 385 m 534 380 q 528 385 533 383 q 534 380 530 382 m 634 388 l 640 369 l 634 361 l 631 369 l 634 388 m 498 382 l 498 377 l 504 380 l 498 382 m 477 382 l 482 382 l 479 377 l 477 382 m 528 380 l 523 372 q 528 380 528 375 m 536 380 l 534 366 l 547 369 l 536 380 m -150 374 q -161 363 -151 366 q -150 374 -155 367 m 507 372 l 498 363 q 507 372 504 366 m 287 372 l 290 363 l 284 369 l 287 372 m 466 369 l 458 355 l 474 363 l 466 369 m -90 366 q -77 355 -82 363 q -90 366 -89 356 m 455 363 l 452 355 l 458 358 l 458 363 l 455 363 m 477 363 l 471 353 q 477 363 476 357 m 523 358 l 526 355 l 531 358 l 526 361 l 523 358 m 295 353 l 287 350 l 290 358 l 295 353 m 466 355 l 458 350 q 466 355 464 351 m 659 358 q 648 345 656 348 q 659 358 651 352 m 539 350 q 550 334 545 343 q 536 339 544 338 l 523 315 l 509 320 l 517 328 q 539 350 528 336 m 504 347 l 509 328 q 504 347 504 336 m 469 342 l 493 334 l 474 331 q 469 342 469 335 m 455 328 q 469 320 462 327 l 455 328 m 561 326 q 566 320 564 325 l 561 326 m 292 320 q 298 312 296 317 l 292 320 m -22 307 l -17 298 l -25 293 l -22 307 m 271 307 l 279 301 q 271 307 273 301 m 452 296 q 460 290 454 290 l 452 296 m 534 293 l 539 282 q 534 293 534 286 m 460 285 l 463 277 l 466 282 l 460 285 m 539 266 q 534 271 536 267 l 539 266 m 455 266 l 455 260 l 460 263 l 455 266 m 501 266 q 512 252 503 257 l 501 266 m 523 260 l 523 255 l 528 258 l 523 260 m 477 255 l 474 247 l 479 250 l 479 255 l 477 255 m 455 241 l 463 239 l 466 247 l 460 247 l 455 241 m 471 247 l 466 236 l 474 233 l 477 244 l 471 247 m 507 241 q 501 233 506 236 l 507 241 m -9 220 l 2 212 q -9 220 -5 214 m 479 214 l 482 206 l 477 212 l 479 214 m 504 214 l 509 198 l 501 193 l 504 214 m -55 203 l -39 193 l -47 184 l -55 203 m 531 198 l 536 198 l 534 193 l 531 198 m 509 195 l 526 182 l 528 165 l 523 160 l 523 165 l 520 165 l 512 179 l 509 195 m 276 190 l 281 190 l 279 184 l 276 190 m 13 187 l 18 179 q 13 187 15 182 m 290 187 q 295 176 293 183 l 290 187 m 498 182 l 501 157 l 490 174 l 498 182 m 5 179 l 10 179 l 7 174 l 5 179 m 479 165 q 471 155 477 158 l 479 165 m -36 163 l -25 155 q -36 163 -33 157 m -31 149 q -39 133 -32 140 l -31 149 m 21 146 l 24 136 l 18 138 l 21 146 m -1 138 l -12 125 q -1 138 -7 132 m -1 130 l 5 130 l 2 125 l -1 130 m -136 122 l -128 111 q -136 122 -134 115 m -117 122 l -112 109 l -117 103 l -117 109 l -120 109 l -125 119 l -117 119 l -117 122 m 67 98 l 83 79 l 75 76 q 56 90 61 77 l 67 98 m 94 95 q 86 87 92 89 l 94 95 m 67 87 l 67 81 l 70 81 l 70 87 l 67 87 m -17 87 q -1 79 -10 79 l 16 73 l 21 68 q 16 52 16 60 l -1 60 l 5 43 l -3 49 q -9 60 -4 55 l -17 62 l -9 76 l -17 87 m -3 71 q 5 62 -1 66 q -3 71 3 68 m 81 60 l 89 54 l 94 60 q 83 52 91 54 l 81 60 m 83 49 q 89 41 87 46 l 81 38 l 83 49 m -6 43 q -12 38 -7 41 l -6 43 m 7 43 q 13 38 11 43 l 5 35 l 7 43 m 791 43 q 805 22 805 37 q 791 43 795 32 m 26 41 l 32 27 l 21 35 q 26 41 24 36 m 16 38 q 26 24 20 30 l 10 24 l 16 38 m 56 5 l 62 5 l 59 0 l 56 5 z "},"P":{"ha":549,"x_min":-15,"x_max":495,"o":"m 161 554 q 202 530 180 545 l 237 500 q 251 462 248 482 l 237 470 l 229 465 l 213 467 l 186 475 l 180 467 l 186 465 l 189 446 l 178 427 l 189 413 l 202 427 l 216 429 q 208 440 209 434 q 232 429 219 437 l 178 405 q 199 397 187 397 q 191 383 193 392 l 213 394 l 227 389 q 216 408 224 399 l 218 397 l 210 397 q 218 418 212 409 l 243 427 l 235 416 q 240 410 236 413 l 227 397 l 235 386 l 243 391 l 227 378 l 210 380 q 189 372 197 380 l 224 356 q 240 364 234 361 q 248 315 248 344 l 245 277 l 248 250 q 227 237 237 245 l 232 229 l 243 234 q 227 218 237 227 l 218 210 l 224 185 q 199 180 211 185 l 191 158 l 202 166 l 191 155 l 180 153 q 189 139 187 148 l 199 144 l 194 123 l 221 147 q 202 142 212 146 l 210 155 q 224 180 215 168 l 224 158 q 240 153 231 154 q 264 174 253 160 l 275 161 l 256 144 l 248 131 q 262 123 257 129 l 254 112 q 273 120 263 114 q 281 142 279 130 l 313 144 l 286 101 q 278 93 279 100 q 292 87 286 93 l 330 96 q 321 112 328 104 l 332 117 l 354 112 q 359 128 359 119 q 376 163 372 142 l 384 180 l 368 174 q 349 191 353 175 q 357 204 354 196 l 340 196 l 343 207 q 349 215 344 212 q 343 237 344 223 q 359 242 351 237 q 346 253 354 249 l 340 280 q 354 302 344 294 q 359 294 355 296 l 373 299 l 378 269 q 392 299 388 281 q 411 318 399 311 q 425 304 419 311 q 438 318 432 310 l 433 310 l 430 318 q 408 345 425 336 l 400 329 q 381 321 390 322 q 354 334 370 330 q 343 353 344 341 l 338 405 q 305 435 328 425 l 278 456 l 397 532 l 425 546 l 435 535 q 465 497 452 521 q 484 454 476 479 q 495 399 492 429 l 495 359 l 492 351 l 495 340 l 476 329 l 481 326 l 492 329 l 495 161 l 492 150 q 463 112 483 130 q 422 90 445 100 l 395 79 l 392 87 q 373 71 389 73 l 346 39 q 319 3 330 24 l 313 -13 q 289 6 302 -5 q 251 25 272 17 l 251 -40 l 273 -146 l 302 -205 l 286 -211 l 278 -197 q 256 -157 266 -179 q 240 -130 250 -143 l 235 -146 q 213 -186 227 -165 q 178 -216 199 -201 q 134 -235 159 -227 q 83 -249 112 -244 q 23 -254 56 -253 l -15 -252 q -7 -233 -14 -241 q 50 -227 19 -232 q 85 -200 69 -220 l 99 -149 l 102 -86 l 102 20 l 107 28 l 102 31 l 102 96 q 50 106 79 105 q 28 66 34 90 l 31 52 l 28 47 q 12 74 14 54 l 9 101 l 15 131 q 34 177 22 152 q 69 207 47 192 q 102 237 93 212 l 102 391 q 94 421 99 406 l 75 432 q 53 421 64 429 l 31 408 l 26 424 l 161 554 m 172 500 q 159 484 163 494 q 172 500 168 489 m 210 484 l 213 478 l 218 481 l 218 489 l 216 489 l 210 484 m 161 481 q 170 475 163 476 l 161 481 m 197 481 l 197 475 l 202 478 l 197 481 m 227 470 l 227 475 l 224 475 l 227 470 m 297 462 l 302 454 q 297 462 302 459 m 232 454 q 237 448 235 453 l 232 454 m 273 454 q 264 446 271 448 l 273 454 m 221 446 l 227 446 l 224 440 l 221 446 m 248 443 l 256 432 q 248 443 251 435 m 267 443 l 273 432 q 267 443 269 436 m 91 427 q 96 432 96 427 l 91 427 m 335 421 l 340 421 l 340 427 l 338 427 l 335 421 m 175 424 l 180 416 q 175 424 179 421 m 248 424 l 251 410 l 243 413 l 248 424 m 137 413 q 145 394 138 404 l 151 405 l 145 410 l 153 405 l 137 413 m 232 413 l 229 402 l 235 405 l 232 413 m 194 405 q 199 399 197 404 l 194 405 m 129 394 l 134 397 l 132 399 l 129 394 m 414 394 l 414 399 l 411 399 l 414 394 m 180 383 l 180 378 l 186 380 l 180 383 m 186 361 l 186 367 l 183 367 l 186 361 m 145 356 l 148 348 l 148 356 l 145 356 m 425 351 l 427 345 l 427 351 l 425 351 m 346 342 l 346 337 l 351 340 l 346 342 m 449 329 l 454 318 l 457 329 l 452 334 l 449 329 m 463 334 q 476 326 467 327 l 463 334 m 387 326 l 392 326 l 389 332 l 387 326 m 235 321 l 240 321 l 240 326 l 237 326 l 235 321 m 441 326 l 441 321 l 446 323 l 441 326 m 213 321 l 216 313 l 216 321 l 213 321 m 227 315 l 227 321 l 224 321 l 227 315 m 346 315 q 340 307 345 310 l 346 315 m 408 313 q 416 307 411 308 l 408 313 m 237 304 l 237 310 l 235 310 l 237 304 m 381 313 l 389 310 l 381 307 l 381 313 m 395 302 q 400 307 399 302 l 395 302 m 224 299 l 224 304 l 221 304 l 224 299 m 416 304 q 425 296 419 299 l 416 304 m 408 296 l 408 302 l 406 302 l 408 296 m 414 299 l 403 288 q 414 299 412 290 m 205 294 l 202 286 l 208 283 l 210 291 l 205 294 m 438 291 q 444 286 439 288 q 438 291 443 288 m 463 291 l 460 283 l 465 283 l 465 291 l 463 291 m 164 288 l 164 283 q 164 288 167 286 m 446 288 l 444 283 l 449 283 l 449 288 l 446 288 m 406 286 l 400 267 l 411 272 q 400 256 406 265 l 411 250 q 406 245 408 249 l 414 242 l 416 250 q 435 256 424 254 l 444 264 l 438 269 q 427 280 431 271 l 406 286 m 452 286 l 449 280 l 454 280 l 454 286 l 452 286 m 357 275 l 357 269 l 362 272 l 357 275 m 381 272 l 368 258 l 376 261 l 373 256 l 384 248 l 387 253 l 406 248 l 397 256 q 381 272 392 264 m 370 269 q 359 250 361 262 l 370 269 m 416 272 l 427 264 q 416 256 420 260 l 414 267 l 416 272 m 235 261 l 235 267 l 232 267 l 235 261 m 164 258 l 170 256 l 170 264 l 167 264 l 164 258 m 381 267 l 392 256 q 381 267 384 258 m 210 261 q 216 256 211 258 q 210 261 215 258 m 170 250 l 167 242 l 172 242 l 175 248 l 170 250 m 395 248 q 389 231 389 241 l 403 237 q 395 248 400 243 m 346 248 q 340 242 345 244 l 346 248 m 362 245 l 359 239 l 365 239 l 365 245 l 362 245 m 373 239 l 373 245 l 370 245 l 373 239 m 419 242 q 425 234 420 237 l 419 242 m 384 239 q 389 220 384 230 l 384 239 m 346 229 l 349 226 l 357 231 l 349 234 l 346 229 m 427 234 l 425 226 l 430 226 l 427 234 m 186 226 l 186 231 l 183 231 l 186 226 m 400 226 l 400 231 l 397 231 l 400 226 m 411 231 l 406 220 l 408 215 l 414 226 l 411 231 m 357 229 q 368 223 361 224 l 357 229 m 395 223 l 395 229 l 392 229 l 395 223 m 183 218 l 189 215 l 191 220 l 186 223 l 183 218 m 202 223 l 205 215 l 205 223 l 202 223 m 397 223 q 403 204 398 214 l 406 220 l 397 223 m 194 218 q 186 201 186 210 l 194 218 m 362 218 l 362 212 l 368 215 l 362 218 m 446 212 q 441 218 446 216 q 446 212 442 215 m 368 210 l 373 212 l 370 215 l 368 210 m 172 212 q 180 207 174 208 l 172 212 m 229 212 q 221 199 227 205 l 229 212 m 208 199 l 213 199 l 213 204 l 210 204 l 208 199 m 61 199 q 66 193 62 195 q 61 199 66 196 m 151 199 q 159 193 153 193 l 151 199 m 107 191 l 107 196 l 104 196 l 107 191 m 186 196 q 180 185 181 192 q 186 196 185 190 m 202 193 l 197 182 l 208 191 l 202 193 m 235 196 l 240 182 q 235 196 236 189 m 414 185 l 416 177 l 416 185 l 414 185 m 232 185 q 227 177 231 180 l 232 185 m 370 177 q 365 182 370 180 q 370 177 366 180 m 56 172 l 56 177 l 53 177 l 56 172 m 259 177 l 262 180 l 256 172 l 254 180 l 259 177 m 349 174 l 340 169 l 343 180 l 349 174 m 56 169 l 53 161 l 61 163 q 56 169 60 167 m 66 169 l 61 158 q 66 169 66 163 m 378 158 l 389 161 l 384 163 l 378 158 m 414 163 q 419 158 414 160 q 414 163 418 161 m 392 161 q 381 144 388 151 q 392 136 385 139 l 408 144 q 392 161 403 153 m 281 161 q 308 147 294 156 l 297 153 l 275 150 l 281 161 m 351 161 l 354 153 l 349 158 l 351 161 m 245 155 l 243 142 l 251 153 l 245 155 m 340 155 q 346 147 345 153 l 340 155 m 229 150 l 227 142 l 232 142 l 235 150 l 229 150 m 357 147 q 349 131 355 137 l 357 147 m 292 142 q 302 136 296 138 l 292 142 m 416 142 q 400 123 407 136 q 416 142 408 131 m 218 134 l 218 139 l 216 139 l 218 134 m 267 142 q 273 125 273 135 l 267 142 m 387 134 l 381 125 q 387 134 387 127 m 414 134 l 425 125 q 414 134 419 132 m 210 128 l 221 125 l 224 128 l 210 128 m 316 123 q 308 109 314 115 l 316 123 m 243 117 l 243 112 l 248 115 l 243 117 m 275 115 l 273 106 l 278 106 l 281 112 l 275 115 m 349 115 q 335 101 341 110 q 349 115 342 106 m 251 112 l 245 104 l 256 106 q 251 112 256 109 m 283 112 l 281 104 l 289 109 l 283 112 m 302 115 l 308 101 l 297 98 l 302 115 m 357 101 l 362 98 l 362 106 l 359 106 l 357 101 m 384 106 l 381 93 l 384 87 l 389 101 q 384 106 389 104 m 172 96 l 172 101 l 170 101 l 172 96 m 178 101 q 183 93 178 96 l 178 101 m 349 96 l 349 101 l 346 101 l 349 96 m 392 98 l 395 90 l 395 98 l 392 98 m 161 96 l 164 87 l 164 96 l 161 96 m 254 96 l 259 85 q 254 96 258 91 m 311 87 l 319 85 l 316 93 q 311 87 313 92 m 245 85 q 251 90 250 85 l 245 85 m 186 87 q 208 74 195 80 l 210 87 l 197 85 l 191 87 l 186 87 m 237 79 l 237 85 l 235 85 l 237 79 m 156 82 l 156 77 l 161 79 l 156 82 m 191 82 l 183 79 l 191 71 l 191 82 m 170 79 q 175 68 171 74 q 170 79 174 75 m 197 74 l 197 79 l 194 79 l 197 74 m 178 71 q 183 77 181 72 q 178 71 180 75 m 186 71 l 172 60 q 186 44 180 54 l 194 41 l 197 44 l 186 52 l 191 58 l 186 71 m 161 63 l 161 68 l 159 68 l 161 63 m 167 55 l 167 60 l 164 60 l 167 55 m 110 58 l 123 50 q 110 58 118 56 m 132 58 q 123 39 125 48 l 113 41 l 110 36 q 121 31 116 35 q 113 17 115 26 q 118 6 117 13 l 137 20 q 148 41 143 29 l 159 50 l 145 52 l 132 58 m 218 55 q 224 50 219 52 q 218 55 223 52 m 240 55 q 235 39 239 47 l 251 41 l 240 55 m 235 52 l 232 41 l 237 44 l 235 52 m 221 44 l 216 31 l 218 25 l 224 25 l 224 28 l 229 41 l 221 44 m 142 39 l 137 25 l 134 39 l 137 44 l 142 39 m 189 41 q 194 33 189 36 l 189 41 m 208 33 l 213 28 l 210 39 l 208 33 m 110 31 q 104 36 109 34 q 110 31 106 33 z "},"Q":{"ha":536,"x_min":60,"x_max":966,"o":"m 966 625 q 958 614 965 617 q 966 625 963 617 m 298 573 l 366 513 l 407 492 q 437 481 421 488 l 483 465 q 502 443 498 460 l 480 443 l 467 437 q 488 418 475 427 l 494 413 q 488 399 490 407 l 477 391 l 486 402 l 480 413 q 469 408 474 412 l 458 391 l 472 389 q 494 380 483 387 l 499 389 l 502 399 q 513 389 505 393 l 507 372 q 521 367 514 372 l 532 361 l 526 332 q 540 323 534 330 l 524 329 l 524 332 l 521 345 l 499 353 q 505 342 500 347 l 499 340 q 486 345 489 341 l 494 361 l 477 359 q 448 326 458 349 l 448 -159 q 477 -192 453 -182 q 526 -181 500 -191 q 505 -214 525 -201 l 431 -265 l 401 -295 l 382 -309 l 369 -292 l 304 -233 l 301 123 q 296 117 298 122 l 260 93 q 225 66 247 80 q 201 50 213 60 q 165 20 187 34 l 155 12 l 146 28 q 163 39 156 32 l 149 44 q 133 36 140 43 q 100 50 118 39 l 73 85 q 60 134 66 105 l 60 380 q 76 424 65 401 q 111 454 90 438 l 233 516 l 269 541 q 298 573 286 553 m 901 573 q 906 568 904 572 q 901 573 903 568 m 884 568 l 895 559 q 884 568 886 562 m 776 538 l 787 519 l 781 522 l 773 516 l 770 519 l 762 530 q 776 538 771 530 m 857 522 q 849 505 855 513 l 857 522 m 873 513 q 868 519 869 513 l 873 513 m 922 508 q 933 505 926 506 l 914 492 l 922 508 m 803 492 q 808 470 808 484 l 806 454 q 825 473 817 460 l 830 448 l 817 437 l 806 440 l 814 451 l 800 459 l 795 446 l 803 443 l 784 440 l 779 448 q 770 454 776 453 l 776 446 q 762 456 768 449 q 776 473 768 465 l 787 465 q 800 473 795 466 l 792 467 l 795 473 l 792 475 l 800 484 q 806 478 802 481 l 808 484 l 803 492 m 819 478 q 814 484 816 479 l 819 478 m 586 465 q 594 454 592 462 l 586 465 m 621 465 l 637 451 l 629 443 q 651 435 639 437 l 667 451 q 681 443 677 450 l 697 448 q 708 437 699 439 q 703 427 707 430 q 697 408 701 418 l 684 394 l 700 399 l 705 389 l 700 386 l 713 364 l 719 378 l 730 370 l 727 351 q 738 340 732 343 l 727 337 q 719 326 724 331 l 705 332 l 692 340 l 697 334 l 692 361 l 686 370 l 673 375 l 678 389 l 659 408 q 643 394 649 404 l 635 389 l 629 402 l 616 408 l 627 421 l 610 429 l 589 427 q 583 437 589 434 q 589 443 586 439 l 602 456 l 600 446 l 605 446 l 605 448 q 621 465 613 454 m 214 456 l 214 250 l 212 242 l 214 191 q 225 150 217 171 l 247 117 l 282 136 q 301 169 294 149 l 301 212 l 293 215 l 288 223 l 301 248 q 290 264 298 257 l 288 250 q 274 283 279 265 l 285 288 l 277 302 q 285 294 282 300 q 290 267 286 281 l 293 304 q 301 340 298 320 l 301 353 l 285 348 l 266 353 q 260 340 260 348 l 244 348 l 239 364 l 252 380 q 231 394 243 390 l 225 410 q 236 399 230 407 l 255 397 l 266 410 l 271 402 l 279 378 l 285 386 l 277 408 q 296 397 286 400 l 301 413 l 279 416 l 244 435 l 214 456 m 464 435 q 469 427 464 429 l 464 435 m 475 437 q 480 432 478 437 q 475 437 477 433 m 789 437 q 800 427 796 435 l 789 437 m 651 427 l 651 432 l 648 432 l 651 427 m 727 427 l 738 418 l 727 410 l 722 421 q 727 427 724 422 m 472 421 l 464 416 q 472 421 469 416 m 670 421 q 675 410 671 415 l 670 421 m 651 413 l 651 418 l 648 418 l 651 413 m 762 421 q 773 413 765 414 l 762 402 q 754 408 760 406 l 762 421 m 646 410 l 646 416 l 643 416 l 646 410 m 667 410 l 667 416 l 665 416 l 667 410 m 684 416 l 686 408 l 689 413 l 684 416 m 453 399 l 453 405 l 450 405 l 453 399 m 575 405 q 586 389 578 397 q 600 375 594 383 l 594 361 q 575 378 587 371 q 567 375 569 375 l 578 386 q 570 397 570 389 l 575 405 m 678 402 l 673 391 q 678 402 677 395 m 266 389 l 269 391 l 260 394 q 266 389 262 391 m 518 397 l 526 394 l 518 386 l 521 394 l 518 397 m 562 391 l 559 389 l 556 397 l 562 391 m 665 397 q 656 372 659 386 l 651 364 q 640 386 644 372 l 665 397 m 483 394 l 491 391 l 486 389 l 483 394 m 258 389 l 255 380 l 263 383 q 258 389 262 387 m 694 383 l 694 389 l 692 389 l 694 383 m 852 391 q 868 380 859 385 l 852 378 l 854 389 l 852 391 m 681 380 q 686 386 684 381 q 681 380 684 385 m 274 383 l 266 367 q 271 361 267 363 l 274 383 m 602 386 q 608 380 606 385 q 602 386 604 381 m 282 375 q 288 380 287 376 l 282 375 m 260 378 l 260 372 l 266 375 l 260 378 m 296 367 l 301 356 q 296 367 300 362 m 513 367 l 505 356 q 513 367 510 359 m 635 370 l 640 353 q 635 370 636 360 m 521 364 l 515 353 l 524 348 l 526 361 l 521 364 m 575 367 q 581 361 578 366 q 575 367 576 363 m 543 356 q 537 361 538 357 l 543 356 m 279 351 l 285 353 l 282 356 l 279 351 m 494 356 l 494 351 l 499 353 l 494 356 m 556 356 q 562 351 559 355 l 553 348 l 556 356 m 654 356 q 659 342 659 351 l 654 356 m 678 351 l 684 351 l 681 345 l 678 351 m 789 351 q 784 342 788 346 l 789 351 m 271 348 l 274 340 l 269 345 l 271 348 m 285 340 l 282 337 l 279 345 l 285 340 m 551 345 q 545 340 550 342 l 551 345 m 665 345 l 667 337 l 678 342 q 670 326 671 336 l 659 332 l 654 326 l 665 345 m 741 337 l 743 329 l 738 329 l 741 337 m 290 334 l 293 326 l 288 332 l 290 334 m 583 332 l 589 332 l 586 326 l 583 332 m 621 326 l 635 315 l 618 313 l 613 315 q 618 321 614 319 l 627 315 l 621 326 m 149 310 l 149 315 l 146 315 l 149 310 m 220 310 q 225 302 224 308 l 220 310 m 252 299 l 260 296 l 255 294 l 252 299 m 296 280 l 301 277 l 301 286 l 298 286 l 296 280 m 600 286 q 589 267 596 275 l 600 286 m 629 286 l 635 286 l 632 280 l 629 286 m 106 269 l 111 269 l 111 275 l 109 275 l 106 269 m 605 277 l 616 253 l 602 231 l 591 226 l 583 234 q 594 245 588 237 l 605 277 m 117 272 l 117 261 l 125 269 l 117 272 m 236 272 l 241 264 l 231 253 l 236 272 m 301 261 q 296 267 300 264 l 301 261 m 627 267 l 632 256 l 621 256 l 627 267 m 114 256 l 114 261 l 111 261 l 114 256 m 600 256 l 605 256 l 602 261 l 600 256 m 526 250 q 521 256 522 251 l 526 250 m 608 231 l 610 223 l 605 229 l 608 231 m 697 199 l 703 199 l 700 193 l 697 199 m 648 182 l 665 174 l 673 180 l 681 172 l 675 158 l 659 144 l 656 153 l 648 163 l 656 169 q 651 174 656 172 l 648 182 m 637 177 l 643 158 q 637 177 638 166 m 670 169 l 665 153 q 670 169 670 160 m 84 166 l 84 161 l 90 163 l 84 166 m 90 161 l 98 153 l 103 161 l 95 166 l 90 161 m 684 166 l 692 158 q 684 166 686 160 m 732 163 l 735 155 l 730 161 l 732 163 m 673 153 q 686 144 680 151 q 673 153 677 144 m 665 142 l 678 128 q 684 112 680 120 l 675 106 l 662 101 l 665 106 l 662 109 l 659 128 l 646 112 l 637 123 l 640 134 l 637 136 l 646 128 q 665 142 656 133 m 659 128 q 665 134 663 129 q 659 128 662 133 m 106 120 l 117 123 l 103 125 l 106 120 m 233 120 l 239 120 l 239 125 l 236 125 l 233 120 m 665 123 l 662 117 l 670 120 l 665 123 m 114 112 l 114 117 l 111 117 l 114 112 m 122 117 l 125 109 l 127 117 l 122 117 m 106 109 q 111 104 106 106 q 106 109 110 106 m 700 112 l 705 93 l 681 98 q 700 112 690 102 m 141 106 q 133 93 134 102 q 141 106 140 98 m 222 93 l 228 93 l 228 98 l 225 98 l 222 93 m 152 79 l 152 85 l 149 85 l 152 79 m 125 68 l 117 63 q 125 68 123 64 m 201 58 l 198 50 l 203 52 l 203 58 l 201 58 m 125 55 q 133 44 126 49 q 125 55 131 50 m 138 39 q 146 31 143 36 l 138 39 m 149 25 q 155 31 153 26 l 149 25 m 155 20 l 160 22 l 157 25 l 155 20 z "},"R":{"ha":524,"x_min":20,"x_max":753,"o":"m 159 570 l 221 524 l 243 491 l 256 453 l 281 464 l 384 562 l 452 456 q 471 423 462 441 l 370 312 l 346 342 l 286 439 l 256 415 l 256 203 q 278 179 258 184 l 264 187 q 275 198 271 191 l 292 195 q 297 201 295 196 l 300 195 q 292 179 292 189 q 283 163 290 170 l 286 171 l 281 171 l 281 168 l 273 149 l 289 152 q 324 171 307 159 l 346 174 l 332 138 q 351 146 342 141 l 387 165 l 408 184 l 414 176 q 392 149 405 162 l 248 27 q 216 11 235 16 l 189 38 l 94 103 l 56 117 q 39 138 41 121 l 58 138 q 94 155 75 144 q 102 198 101 174 l 102 401 l 99 410 q 72 434 88 423 q 28 423 51 431 q 20 442 22 431 l 159 570 m 452 320 q 460 307 454 314 l 435 307 l 452 320 m 460 320 q 465 315 463 319 l 460 320 m 444 298 q 438 304 439 298 l 444 298 m 381 296 l 387 296 l 384 290 l 381 296 m 430 293 q 414 282 424 286 l 430 293 m 650 269 l 658 271 q 647 252 654 262 l 639 260 q 647 274 644 266 l 650 269 m 476 271 l 490 263 q 476 271 483 265 m 506 263 q 514 250 513 257 q 500 260 507 254 l 506 258 l 506 263 m 549 263 l 555 263 l 552 258 l 549 263 m 585 247 q 604 228 591 235 l 598 220 q 582 228 591 226 q 571 214 580 216 l 585 247 m 530 241 l 544 239 l 549 241 q 536 225 541 235 q 549 214 544 222 l 538 212 l 536 217 l 530 214 q 555 201 541 206 q 536 184 550 189 l 519 212 l 498 220 l 511 225 q 503 236 505 229 l 522 228 l 530 241 m 552 233 q 560 228 557 233 l 552 233 m 454 214 q 460 209 458 214 l 454 214 m 503 209 l 506 193 l 490 195 l 503 209 m 598 195 q 593 201 595 196 l 598 195 m 283 195 l 283 190 l 286 190 l 286 195 l 283 195 m 541 176 l 552 160 q 541 176 546 166 m 327 168 l 327 163 l 332 165 l 327 168 m 463 160 q 457 165 459 161 l 463 160 m 473 87 q 454 68 471 73 l 473 87 m 408 46 q 414 41 412 45 q 408 46 410 41 m 463 41 q 468 35 466 40 q 463 41 465 36 m 484 35 q 492 14 490 26 l 484 8 l 481 22 l 473 5 l 495 -19 q 511 -35 501 -26 l 500 -38 q 509 -73 503 -56 l 500 -98 q 487 -117 497 -108 l 484 -100 q 460 -81 470 -96 l 446 -90 l 449 -81 q 438 -57 447 -68 l 444 -24 q 433 -3 437 -14 l 435 16 l 425 8 q 435 24 428 17 l 457 27 q 484 35 471 28 m 452 19 q 457 14 452 16 q 452 19 456 16 m 460 16 l 471 8 q 460 16 467 14 m 392 16 l 397 8 q 392 16 394 11 m 446 11 l 449 3 l 449 11 l 446 11 m 514 0 q 519 -5 517 0 l 511 -8 l 514 0 m 511 -38 l 528 -43 l 525 -38 l 530 -41 l 525 -52 q 511 -38 517 -47 m 620 -46 q 631 -57 625 -50 q 620 -46 625 -54 m 503 -49 q 514 -60 509 -52 l 503 -49 m 490 -90 q 484 -84 489 -86 q 490 -90 486 -87 m 484 -98 l 490 -98 l 490 -92 l 487 -92 l 484 -98 m 739 -92 l 753 -90 l 745 -98 q 734 -90 737 -96 l 739 -92 m 514 -92 q 519 -98 517 -92 q 514 -92 516 -97 m 609 -92 q 617 -100 614 -94 l 609 -92 m 487 -122 q 492 -127 490 -122 l 487 -122 m 465 -133 l 463 -136 l 460 -127 l 465 -133 z "},"S":{"ha":551,"x_min":-77,"x_max":829,"o":"m 148 808 l 140 806 l 142 814 l 148 808 m 85 792 q 80 781 85 786 l 85 792 m 541 754 l 552 757 q 541 741 549 747 l 536 760 l 541 754 m 121 732 q 140 708 128 720 q 126 692 138 695 l 118 703 l 126 700 l 126 705 l 121 732 m 61 711 l 80 697 l 72 684 q 66 673 70 676 l 47 689 q 61 711 56 698 m 528 708 q 533 700 532 705 q 528 708 528 702 m 75 705 q 80 700 78 705 q 75 705 77 701 m 94 705 l 104 705 l 94 694 l 94 705 m 69 694 l 66 686 l 72 686 l 75 692 l 69 694 m 525 697 l 530 697 l 528 692 l 525 697 m 34 694 l 42 689 q 34 694 37 689 m 145 684 l 156 681 l 159 684 l 153 673 q 140 662 148 666 q 151 656 144 657 l 145 643 l 164 654 q 159 632 164 644 l 156 613 l 151 624 q 132 618 142 619 l 121 608 l 129 610 l 126 605 l 110 608 q 102 629 107 618 l 110 643 l 118 637 q 126 654 126 644 l 132 662 l 129 654 l 134 651 l 134 654 l 137 670 q 145 684 144 675 m 471 684 l 476 684 l 473 678 l 471 684 m 197 681 l 208 665 l 202 667 l 197 662 q 189 667 194 667 q 197 681 194 672 m 178 675 q 186 670 182 675 l 178 675 m 142 670 q 148 662 143 665 l 142 670 m 354 670 q 359 665 357 669 l 354 670 m 254 654 q 264 643 261 652 l 254 654 m 294 654 l 302 627 q 294 654 296 639 m 137 646 l 137 640 l 142 643 l 137 646 m 132 643 l 137 629 q 132 643 136 636 m 283 646 q 289 640 287 645 l 281 629 l 283 646 m 170 643 l 175 627 l 172 629 l 164 627 l 170 643 m 53 640 l 61 635 q 53 640 56 636 m 80 635 q 85 629 83 634 l 80 635 m 495 635 l 498 608 l 490 613 l 495 635 m 56 629 l 69 627 l 72 629 q 64 618 66 626 l 72 602 l 66 608 l 61 608 l 61 605 l 50 613 l 56 629 m 194 618 q 189 624 191 619 l 194 618 m 115 613 l 115 618 l 113 618 l 115 613 m 278 618 l 281 608 l 275 608 l 278 618 m 468 616 q 473 608 472 613 q 468 616 469 610 m 430 605 q 425 610 427 606 l 430 605 m 449 602 q 476 586 458 591 l 495 572 q 514 583 504 583 q 536 572 524 578 l 528 562 l 500 556 l 495 570 l 476 562 q 468 524 471 545 q 460 477 467 502 l 444 445 l 414 418 l 389 388 l 411 380 q 419 391 413 386 l 422 401 q 433 369 432 386 q 454 361 441 363 q 468 347 465 358 l 476 326 q 487 301 481 316 q 500 282 499 295 l 490 288 l 492 277 q 498 260 494 269 q 484 217 490 242 l 465 182 l 327 41 l 302 11 l 289 0 l 270 14 l 191 46 q 145 57 172 54 l 104 60 l 96 57 q 58 38 77 52 q 37 30 50 33 l 45 49 l 113 149 l 129 187 l 77 241 q 56 274 66 256 q 45 320 47 294 q 58 361 50 340 q 83 393 67 378 l 137 450 l 227 524 l 240 545 l 237 543 l 229 545 q 213 529 222 538 l 199 534 l 194 551 l 202 559 l 213 564 q 205 581 211 572 l 213 589 l 235 570 q 229 551 230 561 q 251 559 240 552 l 278 534 l 316 515 q 365 510 337 511 q 408 524 385 512 l 416 543 l 414 532 l 416 529 l 441 559 q 449 602 447 578 m 340 600 l 349 594 l 343 578 l 354 581 l 357 578 q 351 559 356 568 l 335 556 l 311 562 l 294 556 q 302 570 296 564 l 311 581 q 316 567 312 574 l 330 564 l 335 572 l 330 570 l 330 572 l 340 600 m 416 594 l 425 583 q 416 594 418 586 m 69 591 q 75 581 73 587 l 69 591 m 517 591 q 522 586 520 591 q 517 591 519 587 m 186 589 l 191 575 q 186 589 187 581 m 311 589 q 316 581 315 587 l 311 589 m 465 575 l 465 581 l 463 581 l 465 575 m 411 581 l 416 581 l 414 575 l 411 581 m 251 578 q 245 564 251 571 q 251 578 247 570 m 224 567 l 224 572 l 221 572 l 224 567 m 498 572 q 506 567 500 568 l 498 572 m 560 575 l 563 556 l 552 570 l 560 575 m 566 575 l 574 572 l 566 570 l 566 575 m 406 564 q 419 551 410 557 l 406 543 q 400 559 406 551 l 406 564 m 153 559 q 159 553 157 558 l 156 551 l 151 556 l 153 559 m 224 553 l 218 543 l 229 545 l 224 553 m 175 551 q 183 534 182 545 q 175 551 177 541 m 99 548 q 104 543 102 547 l 99 548 m 392 548 l 397 537 l 387 534 l 392 548 m 308 545 q 316 532 315 540 l 308 545 m 479 545 l 473 534 q 479 545 475 541 m 498 545 q 514 534 507 542 l 498 545 m 96 543 q 107 532 102 541 l 96 543 m 202 540 l 202 534 l 205 534 l 205 540 l 202 540 m 85 537 l 94 534 l 85 532 l 85 537 m 221 532 l 227 532 l 224 526 l 221 532 m 473 526 l 479 526 l 476 521 l 473 526 m 503 518 l 509 502 q 503 496 508 498 q 487 502 496 501 l 484 515 l 495 510 q 503 518 501 512 m 26 507 q 31 499 30 505 l 26 507 m 490 491 l 500 486 l 487 483 l 490 491 m 514 477 l 522 477 l 517 469 l 511 475 l 514 477 m 514 464 l 530 461 l 511 450 l 514 464 m 492 458 l 498 450 q 492 458 494 453 m 170 453 l 156 410 q 164 372 158 391 l 170 363 q 194 358 181 358 q 186 339 192 349 q 210 315 195 326 q 245 301 225 307 l 289 304 q 321 326 305 312 q 311 347 315 335 l 308 361 l 321 358 l 313 345 l 338 342 q 354 363 345 355 l 327 380 l 305 374 l 300 353 l 308 355 l 289 345 q 259 350 276 349 l 243 372 q 224 366 233 371 l 229 374 l 227 380 q 243 393 237 383 l 229 407 l 213 415 l 210 396 l 221 377 l 210 382 q 199 369 201 375 l 189 382 l 186 374 l 194 369 l 189 363 q 175 374 184 370 q 186 388 182 379 l 172 391 l 186 404 l 189 393 l 205 401 l 186 423 q 170 453 182 439 m 463 448 l 473 431 l 454 426 l 452 429 q 463 448 460 437 m 194 429 l 194 434 l 191 434 l 194 429 m 170 410 l 178 407 l 170 404 l 170 410 m 701 407 l 718 393 l 701 388 l 696 396 l 685 388 l 685 393 l 680 391 l 685 399 l 699 396 l 704 399 l 701 407 m 406 396 l 414 393 l 408 391 l 406 396 m 224 393 l 232 391 l 221 388 l 224 393 m 205 388 l 205 382 l 210 385 l 205 388 m 357 382 l 365 380 l 368 388 l 362 388 l 357 382 m 270 382 l 270 374 l 262 380 l 267 369 l 275 377 q 270 382 275 380 m 283 382 q 294 374 286 375 l 283 382 m 343 382 l 346 372 l 349 380 l 343 382 m 319 374 l 321 377 l 313 380 l 319 374 m 357 374 l 362 372 l 359 380 l 357 374 m 349 372 l 354 372 l 354 377 l 351 377 l 349 372 m 620 374 q 625 363 625 370 l 620 374 m 273 366 l 275 358 l 281 361 l 281 369 l 273 366 m 519 366 q 525 361 523 366 l 522 358 l 519 366 m 517 355 l 514 328 l 500 334 l 503 326 l 490 328 l 498 342 l 517 355 m 175 342 l 178 339 l 180 347 q 175 342 178 346 m 327 345 q 321 350 323 345 l 327 345 m 264 345 q 259 334 264 338 l 264 345 m 707 339 q 712 334 710 338 l 709 331 l 707 339 m 210 336 q 218 320 218 331 l 210 336 m 281 336 l 283 328 l 278 328 l 281 336 m 696 336 q 709 317 703 329 q 701 307 703 312 l 707 298 l 709 304 l 704 296 q 696 285 698 292 l 685 282 l 690 269 q 699 260 697 266 l 685 247 l 680 258 l 669 255 q 658 269 661 259 l 663 277 l 658 282 l 671 274 l 674 296 l 669 298 q 658 309 664 302 q 663 304 661 309 l 666 309 l 690 323 l 674 328 l 696 336 m 286 331 l 292 331 l 289 326 l 286 331 m 536 328 l 544 326 l 547 328 q 533 317 541 322 l 536 328 m 696 320 l 690 309 q 696 320 695 314 m 796 317 l 804 312 l 826 317 l 829 312 l 826 304 l 796 317 m 742 309 q 747 304 745 309 l 742 309 m 718 307 l 726 298 l 712 293 l 718 307 m 563 304 q 574 298 568 298 l 568 288 l 560 279 l 552 293 l 536 285 l 541 293 l 563 304 m 652 304 l 663 296 q 652 304 657 297 m 680 301 q 688 290 681 294 l 680 301 m 528 298 l 536 296 l 530 293 l 528 298 m 614 293 l 623 277 l 612 277 l 609 274 l 601 285 l 614 293 m 511 290 l 519 288 l 511 285 l 511 290 m 810 288 l 818 279 l 810 277 l 812 285 l 810 288 m 259 277 q 221 260 241 271 l 191 239 l 167 212 q 156 184 159 199 l 202 179 l 281 155 l 365 114 l 373 133 l 378 179 q 370 220 376 199 l 349 250 l 324 269 l 305 274 q 300 269 303 270 q 259 277 280 275 m 663 260 q 669 266 667 261 q 663 260 666 264 m 688 266 l 688 260 l 693 263 l 688 266 m 644 266 q 652 258 649 263 q 644 266 648 260 m 663 252 l 663 258 l 661 258 l 663 252 m 677 244 q 671 250 673 245 l 677 244 m 685 239 q 693 225 686 230 l 680 209 l 677 225 l 685 239 m 661 236 q 666 231 664 235 l 661 236 m 644 217 l 636 214 l 639 222 l 644 217 m 772 214 l 780 206 l 769 203 q 772 214 771 208 m 563 176 l 568 176 l 566 171 l 563 176 m 598 163 l 604 155 q 598 163 600 157 m 606 144 q 617 133 612 140 l 612 136 l 604 130 l 598 133 l 606 144 m 628 136 l 633 127 q 628 136 629 130 m 473 52 l 481 49 l 476 46 l 473 52 m 506 5 l 509 -19 q 492 -8 503 -13 l 487 -19 l 476 -24 l 481 -16 l 506 5 m 365 -33 q 376 -41 371 -34 l 365 -33 m 397 -33 l 406 -43 q 397 -33 399 -40 m -64 -103 q -77 -122 -68 -114 q -64 -103 -73 -112 z "},"T":{"ha":413,"x_min":12,"x_max":340,"o":"m 204 711 l 229 711 l 229 562 l 226 556 l 229 553 l 229 513 l 226 505 l 280 505 l 294 502 l 302 505 l 323 505 l 334 502 l 334 431 l 321 429 l 229 429 l 229 279 l 226 250 l 223 241 l 229 239 l 229 193 q 242 157 233 175 q 280 146 258 147 l 313 160 l 332 174 l 340 163 q 315 138 330 151 l 185 24 l 169 14 l 161 30 l 139 54 l 87 98 q 82 114 87 106 l 79 106 l 82 100 l 50 111 q 33 119 43 117 l 47 122 l 63 133 l 58 138 q 74 168 72 149 l 82 187 l 74 184 l 77 203 l 74 209 l 74 228 l 77 252 l 74 260 l 82 255 l 101 260 q 77 274 92 270 l 96 304 l 85 307 l 96 320 q 106 331 101 323 q 112 323 108 326 q 120 312 119 317 q 131 320 127 315 l 125 342 l 101 355 l 106 336 l 98 342 l 101 336 l 98 336 l 85 328 q 74 355 77 341 l 74 429 l 50 429 q 20 431 36 431 q 12 448 14 439 l 31 450 l 60 467 l 87 488 l 150 570 l 196 670 l 204 711 m 172 547 q 177 541 172 543 q 172 547 176 544 m 204 511 l 207 506 l 207 511 l 204 511 m 218 503 l 218 509 l 215 509 l 218 503 m 201 506 q 212 492 203 497 q 201 506 209 500 m 172 487 l 172 492 l 169 492 l 172 487 m 267 492 q 272 487 267 489 q 267 492 271 490 m 277 490 l 288 481 q 277 490 284 487 m 204 481 l 210 479 l 210 487 l 207 487 l 204 481 m 261 476 l 272 479 l 267 481 q 261 476 264 480 m 299 479 q 304 473 300 475 q 299 479 304 477 m 199 468 l 201 463 l 201 468 l 199 468 m 193 463 l 193 457 q 193 463 196 460 m 196 454 l 204 457 l 199 460 l 196 454 m 112 395 l 112 400 l 109 400 l 112 395 m 123 351 l 125 346 l 125 351 l 123 351 m 188 343 l 180 327 q 188 343 188 333 m 147 330 l 153 319 l 155 330 l 150 335 l 147 330 m 161 335 q 174 327 165 328 l 161 335 m 85 327 l 90 327 l 87 332 l 85 327 m 139 327 l 139 321 l 144 324 l 139 327 m 106 313 q 115 308 109 309 l 106 313 m 79 313 l 87 311 l 79 308 l 79 313 m 93 302 q 98 308 98 303 l 93 302 m 115 305 q 123 297 117 300 l 115 305 m 106 297 l 106 302 l 104 302 l 106 297 m 112 300 l 101 289 q 112 300 110 290 m 207 297 q 215 286 209 292 l 207 297 m 136 292 q 142 286 137 288 q 136 292 141 289 m 161 292 l 158 283 l 163 283 l 163 292 l 161 292 m 144 289 l 142 283 l 147 283 l 147 289 l 144 289 m 104 286 l 98 267 l 109 273 q 98 256 104 266 l 109 251 q 104 245 106 250 l 112 243 l 115 251 q 134 256 122 255 l 142 264 l 136 270 q 125 281 130 272 l 104 286 m 150 286 l 147 281 l 153 281 l 153 286 l 150 286 m 212 281 l 218 267 q 212 281 217 275 m 115 273 l 125 264 q 115 256 118 261 l 112 267 l 115 273 m 79 267 l 90 256 q 79 267 82 259 m 93 248 q 87 232 87 242 l 101 237 q 93 248 98 243 m 117 243 q 123 235 119 237 l 117 243 m 82 240 q 87 221 82 231 l 82 240 m 125 235 l 123 227 l 128 227 l 125 235 m 98 227 l 98 232 l 96 232 l 98 227 m 109 232 l 104 221 l 106 216 l 112 227 l 109 232 m 93 224 l 93 229 l 90 229 l 93 224 m 96 224 q 101 205 96 214 l 104 221 l 96 224 m 212 216 l 212 221 l 210 221 l 212 216 m 144 213 q 139 218 144 216 q 144 213 140 216 m 112 186 l 115 178 l 115 186 l 112 186 m 77 159 l 87 161 l 82 164 l 77 159 m 112 164 q 117 159 113 161 q 112 164 117 161 m 90 161 q 79 145 86 152 q 90 137 83 140 l 106 145 q 90 161 101 154 m 115 142 q 98 123 105 136 q 115 142 106 132 m 85 134 l 79 126 q 85 134 85 128 m 112 134 l 123 126 q 112 134 117 132 m 90 99 l 93 91 l 93 99 l 90 99 m 109 91 l 109 85 l 115 88 l 109 91 z "},"U":{"ha":607,"x_min":-39,"x_max":756,"o":"m 724 689 q 729 684 727 688 q 724 689 726 684 m 707 684 l 718 675 q 707 684 709 677 m 599 654 l 610 635 l 604 637 l 596 632 l 593 635 l 585 646 q 599 654 594 646 m 680 637 q 672 621 678 629 l 680 637 m 696 629 q 691 635 692 629 l 696 629 m 745 624 q 756 621 749 622 l 737 608 l 745 624 m 246 608 q 257 581 254 595 q 243 591 252 587 q 252 570 246 579 l 260 575 l 265 567 l 257 572 l 252 564 q 271 540 267 557 q 292 545 281 545 q 311 524 303 537 l 300 507 l 309 524 l 292 526 q 279 505 288 515 l 292 502 l 281 494 l 271 507 q 252 513 260 512 q 238 507 245 509 l 249 496 l 262 420 l 265 130 q 292 109 275 117 l 325 122 l 349 146 l 349 342 q 341 366 349 355 l 349 369 l 349 407 l 347 415 q 328 445 345 433 l 306 458 l 317 467 q 325 486 319 476 l 314 494 l 322 491 l 325 496 l 322 496 l 328 515 l 325 502 q 330 488 330 496 q 352 477 340 485 l 379 499 q 395 518 385 509 q 412 548 404 531 q 420 567 414 557 l 436 570 l 447 581 q 458 567 453 576 l 452 553 l 469 548 q 485 564 477 554 l 498 575 l 507 567 l 501 562 l 512 553 q 517 562 513 559 l 531 551 q 520 534 527 543 q 512 518 519 525 q 520 513 515 513 l 523 505 l 531 513 l 536 499 l 528 502 q 536 480 530 491 q 555 491 545 488 l 547 483 q 553 458 551 472 l 555 445 l 542 439 l 547 448 l 539 448 q 507 431 523 441 q 496 393 499 414 l 496 298 l 498 298 q 504 282 500 290 q 496 269 498 277 l 507 263 q 501 244 501 254 l 504 222 q 496 217 499 222 l 498 190 l 496 179 l 496 157 l 501 136 q 528 117 512 125 q 561 133 545 121 l 574 125 l 564 111 l 460 19 q 431 3 449 7 l 374 43 q 355 73 364 56 q 347 114 349 92 l 203 14 l 186 0 q 176 8 180 2 l 127 57 l 97 79 l 64 95 l 59 111 l 83 114 q 105 141 96 124 l 108 187 l 108 317 l 102 328 q 81 355 95 343 q 48 339 64 349 q 35 355 36 342 l 100 407 q 86 437 96 422 q 54 423 70 433 l 48 415 l 32 429 q 54 453 41 441 q 62 472 60 462 l 56 477 l 78 505 q 64 513 72 507 q 48 526 55 517 q 70 518 57 519 l 83 513 l 86 518 q 97 510 93 517 q 105 496 99 503 l 100 526 q 119 513 109 517 l 135 518 l 138 540 q 157 562 145 551 l 168 556 l 170 562 l 162 545 q 186 553 174 551 l 203 548 l 205 564 q 211 559 209 564 l 224 564 q 216 583 219 572 l 230 597 q 246 608 240 600 m 626 608 q 631 586 631 600 l 629 570 q 648 589 640 576 l 653 564 l 640 553 l 629 556 l 637 567 l 623 575 l 618 562 l 626 559 l 607 556 l 602 564 q 593 570 599 569 l 599 562 q 585 572 591 565 q 599 589 591 581 l 610 581 q 623 589 618 582 l 615 583 l 618 589 l 615 591 l 623 600 q 629 594 625 597 l 631 600 l 626 608 m 249 594 l 249 600 l 246 600 l 249 594 m 642 594 q 637 600 639 595 l 642 594 m 241 586 q 235 591 240 589 q 241 586 237 589 m 409 581 q 417 570 415 578 l 409 581 m 276 578 l 284 570 l 276 572 l 273 567 l 276 564 q 290 559 283 564 l 273 562 l 268 567 l 276 578 m 143 575 l 151 572 l 143 564 l 143 575 m 265 545 q 271 551 269 546 q 265 545 268 549 m 290 551 l 284 543 q 290 551 290 545 m 298 553 q 303 548 301 553 q 298 553 300 549 m 612 553 q 623 543 619 551 l 612 553 m 474 543 l 474 548 l 471 548 l 474 543 m 441 543 q 447 532 442 536 q 441 543 447 538 m 550 543 l 561 534 l 550 526 l 545 537 q 550 543 547 538 m 295 537 l 287 532 q 295 537 292 532 m 493 537 q 498 526 494 531 l 493 537 m 474 529 l 474 534 l 471 534 l 474 529 m 585 537 q 596 529 588 530 l 585 518 q 577 524 583 522 l 585 537 m 469 526 l 469 532 l 466 532 l 469 526 m 490 526 l 490 532 l 488 532 l 490 526 m 507 532 l 509 524 l 512 529 l 507 532 m 238 529 l 227 518 q 238 529 235 519 m 254 526 q 260 521 255 523 q 254 526 259 524 m 477 524 q 466 510 469 519 l 471 502 q 488 507 479 507 q 482 494 482 500 q 504 483 492 488 l 496 499 l 504 507 l 498 507 l 498 505 l 496 507 q 477 524 488 516 m 276 515 l 276 521 l 273 521 l 276 515 m 501 518 l 496 507 q 501 518 500 511 m 89 505 l 92 507 l 83 510 q 89 505 85 507 m 341 513 l 349 510 l 341 502 l 344 510 l 341 513 m 306 510 l 314 507 l 309 505 l 306 510 m 81 505 l 78 496 l 86 499 q 81 505 85 503 m 517 499 l 517 505 l 515 505 l 517 499 m 675 507 q 691 496 682 500 l 675 494 l 677 505 l 675 507 m 303 505 l 311 491 q 303 505 306 496 m 504 496 q 509 502 507 497 q 504 496 507 500 m 97 499 l 89 483 q 97 499 95 490 m 83 494 l 83 488 l 89 491 l 83 494 m 336 483 l 328 472 q 336 483 333 475 m 507 477 l 517 480 l 512 483 l 507 477 m 341 475 l 347 472 l 349 477 l 344 480 l 341 475 m 317 472 l 317 467 l 322 469 l 317 472 m 319 464 l 322 461 l 325 469 l 319 464 m 612 467 q 607 458 611 462 l 612 467 m 564 453 l 566 445 l 561 445 l 564 453 m 75 415 l 83 412 l 78 410 l 75 415 m 5 380 l 16 366 l 2 363 l 5 380 m -14 374 q -6 363 -9 371 q -14 374 -12 368 m -9 350 l -3 342 q -9 350 -7 345 m 520 315 l 526 315 l 523 309 l 520 315 m 507 282 l 515 274 q 507 282 509 276 m 555 279 l 558 271 l 553 277 l 555 279 m 16 269 l 26 266 l 16 263 l 16 269 m 523 228 l 528 209 l 504 214 q 523 228 513 218 m -33 209 q -39 214 -37 209 l -33 209 z "},"V":{"ha":543,"x_min":26,"x_max":859,"o":"m 571 621 l 579 615 q 571 621 574 616 m 519 615 q 506 591 516 602 l 519 615 m 788 612 l 791 604 l 785 604 l 788 612 m 490 580 l 495 580 l 492 574 l 490 580 m 500 574 q 492 561 498 567 l 500 574 m 519 564 q 514 569 516 564 l 519 564 m 560 564 l 563 553 l 555 553 l 560 564 m 484 555 q 490 545 488 551 l 484 555 m 175 553 q 208 536 191 547 l 229 515 l 245 485 l 248 444 l 378 534 q 406 547 390 543 l 460 490 l 465 498 q 476 515 468 509 q 495 523 486 517 l 500 515 l 503 526 l 500 528 l 511 523 q 503 498 503 513 l 498 477 q 519 493 515 477 l 528 504 l 530 488 l 536 482 l 530 469 q 541 458 534 463 q 547 444 542 450 l 560 433 q 568 422 562 427 l 574 444 l 568 439 l 582 460 l 587 447 l 601 455 l 590 471 l 614 463 q 631 471 621 469 q 620 458 623 465 l 636 452 l 639 460 q 652 444 647 455 q 677 433 663 441 l 693 425 l 699 414 l 704 420 l 715 412 q 699 401 705 408 q 712 406 705 402 l 718 395 l 728 406 l 734 395 q 718 390 726 394 l 715 398 l 696 387 l 701 395 l 699 409 q 690 398 692 406 l 685 379 q 696 363 692 372 l 707 338 q 715 349 712 342 l 707 344 l 707 352 q 734 366 721 355 l 718 379 l 731 376 l 739 363 l 720 349 l 728 333 l 718 330 l 699 336 q 693 330 696 334 l 699 319 l 690 336 l 696 347 l 685 341 l 682 349 l 685 352 q 677 341 678 347 l 661 344 q 655 333 655 338 l 642 328 l 650 341 l 636 349 l 642 338 q 650 322 643 328 l 663 336 l 674 328 l 658 317 q 636 311 646 316 l 633 303 l 636 300 q 625 311 633 308 l 612 300 l 609 311 l 593 306 l 598 314 q 593 325 594 318 l 579 317 q 568 303 571 312 q 590 309 577 309 l 576 300 l 585 295 l 574 281 q 560 260 565 271 l 549 243 l 541 241 q 525 252 532 244 l 536 243 q 541 252 537 248 l 544 262 q 528 271 536 269 q 517 254 524 262 l 522 265 l 509 252 q 498 246 502 252 q 509 276 501 260 l 514 298 q 495 292 505 297 l 509 306 q 517 300 511 301 l 511 309 l 495 314 l 500 306 l 487 319 l 487 268 q 492 243 487 254 l 487 216 l 487 176 l 479 138 q 460 113 471 126 l 330 62 l 300 45 l 278 29 l 275 13 l 267 21 l 243 2 q 218 16 231 7 l 197 40 l 118 94 l 85 108 l 50 116 l 45 135 l 66 138 q 94 154 81 142 l 102 192 l 102 409 l 99 414 q 77 436 92 426 l 47 422 q 26 433 37 425 l 53 452 l 75 474 l 175 553 m 682 534 l 688 526 q 682 534 684 528 m 690 531 l 699 507 l 704 498 l 693 490 l 699 496 l 693 512 l 690 531 m 530 523 l 541 520 l 544 523 l 533 515 l 530 523 m 560 523 q 566 517 564 522 l 560 523 m 452 520 q 460 509 459 517 l 452 520 m 492 515 l 490 507 l 495 504 l 492 515 m 555 517 q 560 498 559 509 q 568 485 563 491 q 560 471 564 479 q 552 477 556 472 l 549 471 l 547 477 q 541 485 541 479 q 549 498 543 492 q 555 517 549 508 m 511 507 q 506 512 507 507 l 511 507 m 490 504 q 495 496 491 498 l 490 504 m 590 507 q 595 501 593 506 l 587 496 l 590 507 m 498 496 l 498 490 l 503 493 l 498 496 m 460 485 l 463 482 l 471 488 l 463 490 l 460 485 m 525 490 q 530 479 525 484 q 525 490 529 486 m 582 490 q 576 479 582 484 l 582 490 m 612 490 l 623 477 l 612 471 l 606 485 q 612 490 609 486 m 471 477 l 471 482 l 468 482 l 471 477 m 688 485 q 693 474 692 481 l 688 485 m 525 474 l 525 479 l 522 479 l 525 474 m 500 474 l 500 469 l 503 469 l 503 474 l 500 474 m 517 466 q 511 471 516 469 q 517 466 513 469 m 476 458 l 484 455 l 487 460 l 481 463 l 476 458 m 528 463 l 528 458 l 533 460 l 528 463 m 625 460 q 614 450 621 456 l 620 441 q 625 460 625 450 m 490 458 l 484 450 q 490 458 489 452 m 528 452 l 528 447 l 533 450 l 528 452 m 286 444 q 254 417 267 435 l 248 393 l 248 195 q 267 159 253 176 l 330 108 l 335 154 l 335 406 l 324 420 l 311 417 q 324 431 317 422 q 286 444 308 441 m 650 439 q 644 444 649 442 q 650 439 646 441 m 528 441 l 525 433 l 530 436 l 528 441 m 544 439 q 552 431 546 433 l 544 439 m 623 436 q 628 431 623 433 l 623 436 m 490 433 q 487 412 490 420 q 492 406 488 409 l 503 417 l 490 433 m 506 428 l 506 433 l 503 433 l 506 428 m 533 431 q 517 412 524 423 l 525 401 l 517 395 q 530 401 524 396 l 547 412 l 533 414 l 538 428 l 533 431 m 511 428 l 511 412 l 519 425 l 511 428 m 544 428 q 549 422 545 425 q 544 428 549 425 m 758 431 l 769 425 l 777 431 l 764 420 l 766 404 l 755 406 q 750 420 751 412 l 758 431 m 796 431 q 804 420 802 427 l 796 431 m 576 420 l 576 425 l 574 425 l 576 420 m 617 422 l 609 417 q 617 422 614 418 m 541 414 l 547 414 l 544 420 l 541 414 m 690 414 l 690 420 l 688 420 l 690 414 m 812 422 l 815 414 l 810 412 l 812 422 m 506 417 l 506 412 l 509 412 l 509 417 l 506 417 m 585 414 q 593 409 587 410 l 585 414 m 761 414 q 766 409 762 410 q 761 414 766 412 m 549 412 l 547 406 l 552 406 l 552 412 l 549 412 m 571 412 q 576 401 572 406 q 571 412 575 407 m 791 414 l 799 409 q 791 414 794 410 m 498 409 q 487 382 490 396 q 498 360 488 370 l 490 366 l 495 376 l 506 387 l 509 376 l 506 374 l 503 355 q 509 363 509 357 l 517 385 l 522 393 q 498 409 509 398 m 506 404 l 506 409 l 503 409 l 506 404 m 623 404 l 623 409 l 620 409 l 623 404 m 487 406 l 487 401 q 487 406 490 404 m 549 404 l 544 393 l 557 401 l 549 404 m 685 398 q 680 404 684 401 q 685 398 680 401 m 791 406 l 788 395 l 791 393 l 804 398 l 815 385 l 807 406 q 815 404 812 405 q 823 387 817 395 l 834 379 l 821 368 l 818 363 l 812 368 q 804 360 810 363 l 810 371 l 785 360 l 785 368 l 783 368 l 785 371 l 766 368 l 780 363 l 788 349 q 780 360 782 355 l 764 357 l 761 368 l 764 371 q 753 382 761 378 l 769 387 l 780 382 l 785 385 l 783 387 q 791 406 785 397 m 560 401 l 557 393 l 563 393 l 563 401 l 560 401 m 536 393 l 536 398 l 533 398 l 536 393 m 604 393 q 609 382 605 387 q 604 393 609 388 m 788 385 l 780 379 q 788 385 785 380 m 541 382 l 541 376 l 544 376 l 544 382 l 541 382 m 601 376 l 606 379 l 604 382 l 601 376 m 644 376 l 644 382 l 642 382 l 644 376 m 541 371 q 547 376 545 372 q 541 371 544 375 m 560 376 l 538 357 l 549 360 l 563 368 l 555 341 q 549 349 551 344 l 536 338 l 549 336 q 533 325 543 329 l 530 333 l 536 347 l 522 344 l 519 333 q 511 341 519 340 l 517 349 l 511 352 l 503 344 l 511 317 l 528 306 l 522 306 l 519 292 l 541 295 q 547 317 543 306 l 549 328 l 566 322 l 576 333 q 568 352 574 342 l 579 355 l 579 349 q 560 376 571 363 m 595 376 l 590 368 l 601 374 l 595 376 m 625 376 l 609 363 l 617 360 l 623 366 q 636 355 627 358 l 650 352 q 639 363 647 358 l 625 376 m 568 374 l 574 366 q 568 374 573 371 m 609 374 q 604 363 605 370 l 617 371 l 609 374 m 647 374 l 644 363 l 652 366 l 647 374 m 742 376 l 750 371 q 742 376 745 372 m 791 374 q 796 368 791 370 q 791 374 795 372 m 850 376 q 856 371 854 376 l 850 376 m 671 371 l 680 363 q 671 371 677 368 m 601 366 l 595 357 q 601 366 600 360 m 593 357 l 593 363 l 590 363 l 593 357 m 604 357 l 612 352 l 609 363 l 604 357 m 690 363 l 685 352 l 696 357 q 690 363 694 360 m 829 363 l 837 333 l 818 328 l 804 341 q 802 330 802 337 l 796 336 l 783 330 q 761 352 775 340 l 783 347 l 785 336 l 829 363 m 669 357 l 663 349 q 669 357 667 352 m 791 355 l 799 352 l 793 349 l 791 355 m 736 352 q 753 347 744 347 l 745 336 l 731 338 q 736 352 736 344 m 780 347 l 780 341 q 780 347 783 344 m 758 341 l 769 344 l 755 336 l 750 338 l 755 347 l 758 341 m 487 341 l 487 328 q 498 341 494 332 l 492 341 l 495 336 l 487 341 m 582 341 l 579 333 l 585 333 l 587 341 l 582 341 m 593 341 q 606 333 598 336 l 593 341 m 590 330 l 590 336 l 587 336 l 590 330 m 631 330 l 636 333 l 633 336 l 631 330 m 503 333 l 506 325 l 509 333 l 503 333 m 576 325 l 576 330 l 574 330 l 576 325 m 663 330 q 669 325 664 327 q 663 330 667 328 m 582 328 q 587 322 583 324 q 582 328 587 325 m 685 330 q 680 325 684 328 l 685 330 m 734 330 l 745 328 l 747 330 q 736 319 743 327 q 728 328 731 321 l 734 325 l 734 330 m 557 325 q 552 317 553 322 q 557 325 557 319 m 845 328 q 853 322 850 327 l 842 314 l 845 328 m 785 325 l 799 317 q 785 325 791 318 m 777 317 q 766 303 773 309 l 777 317 m 549 311 q 568 298 556 302 l 549 311 m 557 306 l 563 306 l 563 311 l 560 311 l 557 306 m 547 306 l 544 300 l 549 298 l 552 303 l 547 306 m 650 303 q 658 295 658 301 q 647 290 652 294 l 650 303 m 628 300 q 614 284 623 291 l 628 300 m 674 300 l 669 290 q 674 300 670 295 m 688 295 q 693 290 691 294 l 685 279 q 699 287 692 281 l 718 295 l 718 290 l 712 284 l 704 290 l 712 273 l 707 271 l 693 273 q 682 287 687 278 l 688 295 m 604 292 q 593 281 600 287 l 604 292 m 528 281 q 522 287 527 285 q 528 281 524 284 m 720 290 l 728 287 l 718 284 l 720 290 m 538 281 q 547 273 541 276 l 538 281 m 804 281 q 818 273 812 279 l 804 281 m 557 268 l 557 273 l 555 273 l 557 268 m 506 268 l 506 262 l 511 265 l 506 268 m 753 271 l 761 257 l 753 252 l 750 262 l 753 271 m 796 262 q 812 238 806 252 q 818 243 816 239 l 834 238 l 831 222 l 821 195 l 823 173 l 821 165 q 840 151 830 160 q 826 146 833 151 l 812 168 l 815 151 l 810 157 l 812 165 l 804 157 l 802 143 l 796 151 q 788 157 793 156 q 772 178 782 169 l 758 168 l 755 184 l 761 178 l 772 195 l 769 208 l 783 205 l 785 211 l 791 208 l 799 216 l 793 235 l 796 262 m 804 249 q 799 254 804 252 q 804 249 800 252 m 747 249 l 764 241 l 774 227 l 761 233 l 755 230 l 747 214 q 761 222 754 216 q 780 216 770 221 l 769 219 l 769 211 l 761 214 l 766 222 l 750 208 l 745 186 l 753 181 l 747 162 q 715 170 732 163 q 720 178 720 173 q 742 200 731 186 l 726 197 q 709 189 716 197 l 701 200 q 718 216 711 205 q 736 238 725 229 l 747 230 l 755 243 l 745 238 l 747 249 m 663 243 q 677 235 672 242 q 661 216 670 226 l 655 227 l 663 243 m 544 233 q 549 227 547 232 l 547 224 l 544 233 m 666 227 l 663 219 l 669 222 l 669 227 l 666 227 m 856 230 l 859 216 l 850 219 l 856 230 m 509 227 q 514 205 513 218 l 509 227 m 804 219 l 810 208 l 812 216 l 804 219 m 742 214 l 747 203 q 742 214 747 209 m 723 208 l 726 200 l 728 205 l 723 208 m 812 208 l 821 203 q 812 208 819 207 m 633 208 l 623 184 l 636 176 l 631 157 l 606 159 l 604 157 l 595 159 l 601 151 l 609 130 l 601 124 q 585 92 591 109 l 571 89 q 579 105 578 95 q 552 94 566 102 l 555 113 l 568 143 q 590 154 577 150 q 601 168 593 161 q 609 176 608 169 q 628 168 617 170 q 598 181 615 178 l 609 197 q 633 208 623 198 m 810 203 l 807 195 l 812 195 l 815 203 l 810 203 m 745 200 l 742 195 l 747 195 l 747 200 l 745 200 m 574 192 q 579 186 577 191 l 576 184 l 571 189 l 574 192 m 726 186 l 718 184 l 720 192 l 726 186 m 707 189 l 693 176 q 704 189 696 183 l 707 189 m 783 176 l 783 181 l 780 181 l 783 176 m 785 181 l 791 170 q 785 181 789 176 m 671 181 l 669 159 l 663 176 l 671 181 m 742 178 l 739 168 l 747 170 l 742 178 m 821 168 l 821 173 l 818 173 l 821 168 m 658 173 q 639 157 651 163 l 658 173 m 609 162 q 614 168 613 163 q 609 162 612 166 m 677 170 l 682 170 l 680 165 l 677 170 m 699 168 q 704 162 702 167 q 699 168 700 163 m 769 168 l 761 140 l 772 154 q 764 140 769 147 q 750 154 755 145 l 769 168 m 690 165 l 693 154 l 685 149 l 690 165 m 674 162 q 680 146 677 155 l 669 149 l 674 162 m 829 159 l 821 151 q 829 159 826 153 m 718 159 q 726 138 724 149 l 715 127 q 707 97 713 113 l 699 119 q 674 127 688 124 l 688 135 l 701 151 q 718 159 710 153 m 547 151 q 541 146 546 148 l 547 151 m 788 146 q 783 151 784 146 l 788 146 m 682 146 l 685 138 l 680 143 l 682 146 m 574 135 l 574 140 l 571 140 l 574 135 m 701 138 l 696 135 l 699 127 l 701 138 m 780 140 l 783 121 l 777 124 l 780 130 l 777 132 l 772 130 l 780 140 m 764 130 q 769 111 768 121 l 777 105 l 761 97 l 755 102 l 745 89 q 728 105 736 95 l 736 113 q 758 119 748 114 l 755 113 q 764 130 762 120 m 585 119 l 590 119 l 590 124 l 587 124 l 585 119 m 704 124 q 709 119 705 121 q 704 124 709 122 m 655 111 q 650 116 652 111 l 655 111 m 690 116 q 685 102 690 109 l 690 116 m 595 111 l 604 108 l 593 105 l 595 111 m 617 94 l 614 92 l 612 100 l 617 94 m 745 92 q 739 97 744 95 l 745 92 m 764 86 l 780 78 q 761 67 770 71 l 750 81 l 761 78 l 764 86 m 563 83 l 574 83 q 566 75 568 79 l 563 83 m 663 78 l 666 62 l 658 73 q 663 78 661 73 m 582 75 l 585 67 l 579 73 l 582 75 m 568 70 l 579 67 l 568 56 q 560 48 566 50 l 568 70 m 633 70 q 639 64 637 69 q 633 70 635 66 m 628 62 l 633 62 l 631 56 l 628 62 m 636 62 q 647 40 646 52 l 631 21 q 623 7 623 15 l 604 -12 l 612 -36 l 617 -44 l 609 -79 l 612 -85 q 601 -74 606 -81 l 579 -63 q 547 -55 563 -60 l 530 -66 l 511 -87 l 495 -74 l 506 -79 l 500 -68 l 490 -71 l 471 -52 l 487 -36 l 468 -25 l 481 -25 l 500 -22 q 511 -12 506 -18 l 506 -6 l 517 -17 l 530 -9 q 514 10 521 -1 q 530 26 517 22 q 541 35 534 33 l 544 21 q 522 10 532 17 l 538 -9 q 552 2 545 0 l 579 26 q 566 37 574 33 q 579 45 573 39 l 574 56 l 595 59 l 593 51 l 609 37 q 598 13 606 25 q 620 40 613 20 q 636 62 630 48 m 582 43 l 579 37 l 585 35 l 585 43 l 582 43 m 595 35 q 601 40 599 35 q 595 35 598 39 m 525 35 l 517 29 l 519 40 l 525 35 m 625 37 l 623 29 l 631 32 q 625 37 630 35 m 587 35 q 595 24 590 28 l 587 35 m 623 26 q 628 21 623 23 q 623 26 627 24 m 473 26 l 481 21 l 471 16 l 473 26 m 281 24 l 302 7 q 297 -9 301 -2 q 286 -3 292 -4 q 294 7 292 0 q 281 24 286 14 m 593 21 l 590 16 l 595 13 l 598 21 l 593 21 m 514 16 l 514 10 l 519 13 l 514 16 m 392 16 l 406 10 q 395 5 399 9 l 392 16 m 444 13 q 452 2 450 9 q 479 -9 465 -1 l 481 -17 l 476 -17 l 468 -9 l 457 -3 l 460 -17 l 460 -31 q 454 -20 457 -23 q 444 -28 450 -27 q 435 -6 439 -18 q 444 13 441 1 m 416 10 l 425 5 q 416 10 419 5 m 438 10 l 441 2 l 435 7 l 438 10 m 574 5 l 574 -1 l 576 -1 l 576 5 l 574 5 m 400 5 q 414 -9 408 0 l 400 -20 l 406 -3 l 400 5 m 525 -3 q 519 2 524 0 l 525 -3 m 446 -3 q 452 -9 447 -7 q 446 -3 451 -6 m 422 -6 l 425 -14 l 419 -14 l 422 -6 m 522 -12 l 519 -14 l 517 -6 l 522 -12 m 338 -9 q 362 -28 351 -14 q 338 -9 346 -24 m 571 -17 q 566 -12 570 -13 q 571 -17 567 -14 m 576 -20 l 576 -14 l 574 -14 l 576 -20 m 549 -17 l 549 -22 l 555 -20 l 549 -17 m 579 -20 l 560 -28 q 579 -20 571 -27 m 555 -22 l 557 -31 l 560 -22 l 555 -22 m 593 -22 q 598 -28 593 -26 q 593 -22 597 -25 m 604 -28 l 604 -22 l 601 -22 l 604 -28 m 595 -31 q 606 -39 600 -36 l 595 -31 m 490 -33 l 484 -44 q 490 -33 490 -39 m 555 -44 l 563 -41 l 557 -39 l 555 -44 m 490 -47 q 495 -41 494 -46 l 490 -47 m 530 -41 l 533 -50 l 533 -41 l 530 -41 m 595 -47 l 601 -47 l 598 -41 l 595 -47 m 612 -44 l 606 -52 q 612 -44 611 -50 m 552 -47 l 557 -55 q 552 -47 557 -50 m 479 -50 q 487 -55 481 -53 q 479 -50 485 -51 m 538 -50 l 538 -55 l 541 -55 l 541 -50 l 538 -50 m 463 -50 l 468 -58 q 463 -50 463 -55 m 346 -52 q 351 -71 351 -60 q 346 -52 347 -62 m 593 -60 l 601 -58 l 595 -55 l 593 -60 m 528 -63 q 533 -58 531 -62 l 528 -63 m 514 -68 q 509 -63 513 -64 q 514 -68 510 -66 m 481 -74 l 492 -82 q 481 -74 486 -79 m 536 -77 q 530 -87 536 -83 l 536 -77 m 582 -77 q 571 -90 578 -83 l 582 -77 m 582 -87 l 593 -101 l 576 -109 l 568 -117 l 552 -106 l 568 -93 q 574 -101 570 -97 l 582 -87 m 528 -96 q 519 -115 526 -106 l 528 -96 m 528 -109 l 536 -109 l 530 -117 l 528 -109 m 555 -117 q 549 -125 554 -122 l 555 -117 z "},"W":{"ha":773,"x_min":-134,"x_max":808,"o":"m 588 857 l 596 849 q 588 857 591 852 m 422 694 l 431 681 q 422 694 424 686 m 404 675 q 414 648 406 662 q 420 643 416 644 q 428 632 422 637 l 450 629 l 444 618 l 455 613 l 444 605 l 439 600 l 447 594 l 455 602 l 450 589 q 458 581 456 587 l 450 572 l 452 581 l 450 586 l 444 581 l 428 591 q 409 597 418 592 l 390 610 l 385 621 q 395 629 389 627 l 390 643 q 382 654 388 650 l 390 659 l 404 675 m 401 637 l 401 643 l 398 643 l 401 637 m 387 637 l 385 635 l 382 643 l 387 637 m 417 629 l 417 635 l 414 635 l 417 629 m 471 627 q 488 613 480 622 q 493 597 488 606 l 501 589 l 504 570 l 496 564 q 485 581 492 575 l 460 618 q 471 627 467 621 m 452 624 l 458 624 l 455 618 l 452 624 m 501 621 l 509 618 l 501 616 l 501 621 m 401 610 l 406 610 l 406 616 l 404 616 l 401 610 m 409 616 l 409 610 l 414 613 l 409 616 m 789 613 l 808 608 l 797 602 q 786 591 794 595 l 767 586 l 775 591 l 789 613 m 374 602 q 366 589 372 594 l 374 602 m 311 591 l 319 589 l 314 586 l 311 591 m 794 589 q 789 583 793 585 l 794 589 m 569 581 l 574 581 l 572 575 l 569 581 m 300 572 l 311 567 l 303 562 l 300 572 m 634 562 l 661 537 l 683 510 l 699 483 q 713 448 707 467 q 718 404 718 429 l 715 168 l 713 160 q 694 130 705 144 l 664 111 l 591 87 l 526 54 l 498 30 q 474 11 488 19 l 441 30 l 414 52 l 393 57 q 379 68 380 58 l 366 71 q 341 92 356 82 l 303 103 q 322 130 304 121 l 311 144 q 322 152 317 146 l 333 182 l 333 279 l 322 271 l 311 288 l 295 279 l 306 288 l 295 301 l 309 312 l 306 298 l 333 285 l 330 296 l 333 323 l 322 339 q 328 363 322 351 l 333 380 l 330 426 q 306 450 321 440 l 271 442 q 246 418 258 433 l 246 317 l 252 296 l 246 288 q 254 255 254 273 l 265 231 l 249 236 l 246 190 l 249 160 q 262 125 253 142 l 287 119 q 281 103 287 112 q 265 81 271 96 l 276 79 q 268 73 274 74 q 273 57 269 65 l 268 60 l 260 54 l 252 43 l 238 76 l 200 46 l 176 19 l 162 8 l 154 24 l 108 76 q 78 92 96 86 q 56 100 68 100 q 40 133 47 114 l 18 122 l 26 155 l 45 144 q 40 152 45 149 l 45 155 q 56 149 50 150 l 75 136 l 73 144 l 75 146 l 89 155 q 94 144 90 149 l 100 165 l 100 174 l 97 174 l 100 198 l 100 209 l 97 212 l 100 217 l 100 241 l 83 250 l 62 255 q 43 269 54 262 l 35 271 q 26 255 28 264 l 7 244 q -6 260 3 254 l -17 241 q -36 252 -26 249 l -28 263 l -31 271 q -36 266 -33 271 q -20 290 -30 278 q -39 301 -28 298 l -50 315 l -36 312 l -20 304 l -1 315 q 7 298 1 306 l -1 296 l 5 285 q 13 296 12 290 l 5 320 l 10 307 q 29 315 21 307 q 40 331 37 320 l 56 355 l 78 345 l 67 336 l 78 339 q 83 334 79 336 l 86 353 l 94 345 q 100 388 100 364 q 92 429 98 407 q 51 437 73 435 l 21 420 q 16 426 18 422 l 18 442 l 140 532 l 168 548 l 214 496 l 233 464 l 238 450 q 257 456 247 452 l 406 553 l 455 502 l 474 472 q 496 456 479 457 l 607 540 q 634 562 621 549 m 526 553 l 542 548 l 534 545 l 526 553 m 474 545 l 482 548 l 471 534 l 469 548 l 474 545 m 512 537 l 536 532 l 528 526 l 512 537 m 740 537 l 748 524 q 740 537 740 528 m 694 532 q 686 521 693 524 q 694 532 691 524 m 721 526 l 724 518 l 718 524 l 721 526 m 710 524 q 715 518 713 523 l 710 524 m 493 521 q 498 515 496 520 l 493 521 m 238 518 l 246 510 q 238 518 241 513 m 523 448 l 507 426 l 490 429 l 488 415 l 488 372 l 490 372 l 504 380 l 512 374 l 520 366 l 531 380 l 520 374 l 523 380 l 520 382 l 526 391 l 531 385 q 539 393 534 391 l 536 380 l 542 369 l 536 372 l 531 366 q 553 377 542 368 l 558 358 q 553 353 557 355 q 534 345 545 347 l 545 363 l 534 358 q 528 350 528 355 l 507 347 l 509 361 l 496 355 l 488 331 l 496 315 l 488 282 l 488 190 q 493 149 488 171 l 572 114 l 572 399 l 569 407 l 572 410 q 558 442 568 427 l 523 448 m 547 385 q 542 391 544 386 l 547 385 m 314 372 q 322 361 320 369 l 314 372 m 488 369 l 488 363 l 493 366 l 488 369 m 48 366 l 56 363 l 48 355 l 48 366 m 517 345 q 528 334 524 342 l 517 345 m 83 331 l 83 326 l 86 326 l 86 331 l 83 331 m 81 323 q 75 328 80 326 q 81 323 77 326 m 97 328 q 81 315 87 324 q 70 326 75 317 l 56 312 q 67 304 62 310 l 59 307 l 62 301 q 70 309 67 303 l 75 304 q 70 290 71 296 l 81 296 l 97 290 l 100 298 l 97 328 m 51 298 l 51 304 l 48 304 l 51 298 m -6 296 l -3 298 l -12 301 q -6 296 -10 298 m 290 298 l 287 296 l 284 304 l 290 298 m -14 296 l -17 288 l -9 290 q -14 296 -9 294 m 67 290 l 67 296 l 64 296 l 67 290 m 2 290 l -6 274 q -1 269 -5 271 l 2 290 m 10 282 q 16 288 15 283 l 10 282 m 97 288 l 94 279 l 100 279 l 100 288 l 97 288 m -12 285 l -12 279 l -6 282 l -12 285 m 26 274 q 32 279 31 274 q 26 274 29 278 m 51 271 l 56 271 l 56 277 l 54 277 l 51 271 m 59 277 l 59 271 l 64 274 l 59 277 m 249 271 l 246 258 l 252 255 l 254 260 l 249 271 m 303 274 q 309 269 307 273 q 303 274 304 270 m 94 269 l 89 260 l 100 255 q 94 269 100 262 m 271 263 q 265 269 267 264 l 271 263 m 7 258 l 13 260 l 10 263 l 7 258 m 284 263 q 290 258 288 262 l 281 255 l 284 263 m 517 258 q 512 250 516 253 l 517 258 m -1 255 l 2 247 l -3 252 l -1 255 m 252 247 l 254 250 l 246 252 q 252 247 248 250 m 279 252 q 273 247 278 249 l 279 252 m 18 241 l 21 233 l 16 239 l 18 241 m 311 239 l 317 239 l 314 233 l 311 239 m -50 233 l -39 228 l -47 222 l -50 233 m 24 220 q 40 203 34 215 l 37 179 l 29 165 l 18 171 l 16 155 l 7 165 l -3 190 l 13 195 l 16 193 l 13 187 q 21 179 15 181 l 21 190 l 18 212 q 24 220 23 214 m -52 217 q -47 209 -47 215 l -52 217 m -20 206 l -12 203 l -17 201 l -20 206 m 62 203 q 75 176 70 191 l 62 179 l 59 198 l 62 203 m 24 187 l 29 184 l 29 193 l 26 193 l 24 187 m 328 193 q 317 174 324 182 l 328 193 m -36 179 l -31 171 l -41 160 l -36 179 m 29 168 q 24 174 28 172 q 29 168 25 171 m -90 171 l -79 157 l -93 155 l -90 171 m 40 171 l 48 168 l 40 165 l 40 171 m 328 163 l 333 163 l 330 168 l 328 163 m -109 165 q -101 155 -104 162 q -109 165 -106 159 m 86 152 q 81 138 81 146 l 86 152 m -104 141 l -98 133 q -104 141 -102 136 m 393 65 l 393 60 l 395 60 l 395 65 l 393 65 m -79 60 l -68 57 l -79 54 l -79 60 m 393 49 l 406 35 q 412 19 408 27 l 404 14 l 390 8 l 393 14 l 390 16 l 387 35 l 374 19 l 366 30 l 368 41 l 366 43 l 374 35 q 393 49 384 40 m 387 35 q 393 41 391 36 q 387 35 390 40 m 227 41 l 230 33 l 224 38 l 227 41 m 393 30 l 390 24 l 398 27 l 393 30 m 428 19 l 433 0 l 409 5 q 428 19 418 9 m -128 0 q -134 5 -132 0 l -128 0 z "},"X":{"ha":610,"x_min":-16,"x_max":551,"o":"m 112 618 l 117 610 q 112 618 113 612 m 345 618 l 351 618 l 348 613 l 345 618 m 527 562 l 543 562 l 541 537 l 527 477 l 513 453 l 494 431 l 470 415 l 437 410 l 402 415 l 386 410 l 391 420 l 378 423 l 375 418 l 367 429 l 337 366 q 348 336 341 351 l 454 127 l 473 106 l 484 111 q 489 103 484 106 q 519 111 503 106 l 538 119 q 546 114 543 118 l 551 103 l 351 3 q 332 19 339 6 l 264 149 l 258 163 q 250 155 254 160 l 239 125 l 226 100 l 185 0 l 174 8 l 147 22 l 117 30 l 79 27 l 58 11 q 31 3 46 4 l 60 92 l 77 117 l 96 136 l 125 146 l 158 141 l 188 130 q 215 125 201 125 l 229 149 l 245 198 l 239 206 l 185 312 l 180 326 l 166 320 l 155 307 l 174 293 l 161 296 l 169 285 l 161 288 l 158 285 l 153 307 q 147 298 151 300 l 142 307 q 128 298 136 304 l 134 277 l 125 263 l 131 260 q 115 247 127 248 q 101 241 109 246 l 104 250 l 101 255 l 120 266 l 125 285 l 120 304 l 123 315 l 115 309 q 104 296 106 305 q 109 317 104 307 l 117 328 l 101 331 q 93 317 99 323 l 90 320 l 93 328 l 101 345 q 93 350 99 349 q 79 328 84 341 l 74 347 l 79 353 l 106 363 l 112 380 q 117 385 112 385 l 134 391 l 139 382 l 147 377 l 136 355 l 142 353 l 144 355 l 161 358 l 155 374 l 125 420 q 93 429 111 426 q 66 418 81 426 l 52 407 l 50 420 q 63 442 54 431 l 166 537 q 188 553 176 546 l 220 545 l 242 529 l 277 483 l 315 404 q 332 393 321 395 l 389 534 q 408 551 394 547 l 432 534 l 459 524 l 492 518 l 516 532 l 527 562 m 508 553 l 516 548 l 505 545 l 508 553 m 323 529 q 334 518 330 526 l 323 529 m 318 526 q 329 510 322 517 l 321 513 l 318 507 l 315 510 l 302 513 l 318 526 m 546 491 q 541 496 543 492 l 546 491 m 321 420 q 326 415 324 420 l 321 420 m 120 412 l 128 410 l 120 407 l 120 412 m 370 410 l 375 410 l 372 404 l 370 410 m 402 410 q 416 396 414 408 q 394 401 404 397 l 402 410 m 136 388 l 131 380 q 136 388 135 382 m -16 380 l -7 374 q -16 380 -13 375 m 408 380 l 413 380 l 410 374 l 408 380 m 120 369 q 115 374 119 372 q 120 369 116 372 m 136 374 q 142 369 137 371 q 136 374 140 372 m 413 372 q 418 366 416 371 q 413 372 414 366 m 12 366 q 17 361 15 366 q 12 366 14 361 m 79 350 l 87 347 l 85 355 l 79 350 m 125 334 l 125 339 l 123 339 l 125 334 m 161 339 q 147 317 152 330 q 161 339 157 326 m 125 326 l 112 317 q 128 312 119 317 l 125 326 m 74 315 q 68 320 71 315 l 74 315 m 109 282 q 115 277 113 281 l 112 274 l 106 279 l 109 282 m 82 271 q 77 263 81 267 l 82 271 m 123 269 l 123 263 l 125 263 l 125 269 l 123 269 m 120 260 q 128 255 122 255 l 120 260 m 74 255 l 79 255 l 77 250 l 74 255 m 489 160 l 497 149 q 489 160 491 153 z "},"Y":{"ha":521,"x_min":-1,"x_max":707,"o":"m 382 536 l 412 517 l 450 460 l 460 425 l 466 385 l 466 10 l 471 -31 l 479 -22 q 474 -36 479 -29 l 479 -71 l 504 -139 q 515 -166 512 -151 q 493 -153 503 -162 l 458 -93 l 433 -147 q 409 -166 422 -155 l 385 -182 q 363 -201 373 -190 q 382 -210 372 -203 l 404 -212 l 393 -218 l 406 -223 l 412 -218 l 404 -226 l 412 -239 l 401 -239 q 390 -234 393 -237 q 382 -220 388 -226 l 385 -229 l 382 -226 l 363 -229 q 357 -220 363 -223 q 349 -231 355 -226 l 344 -248 q 330 -256 338 -254 l 333 -250 l 319 -245 l 317 -258 l 306 -277 q 298 -283 301 -278 q 281 -277 290 -278 q 254 -272 269 -272 q 281 -256 269 -265 l 292 -237 l 281 -245 l 292 -231 l 271 -229 q 279 -242 272 -236 l 271 -245 q 268 -256 270 -252 q 252 -264 258 -257 q 235 -258 243 -262 l 230 -248 l 238 -256 l 243 -248 l 249 -231 l 238 -237 l 233 -234 l 243 -231 l 246 -215 l 238 -215 l 219 -220 l 214 -223 l 216 -220 q 211 -212 216 -214 l 208 -220 l 189 -237 l 178 -229 q 170 -212 176 -218 q 154 -196 164 -203 l 124 -180 l 102 -153 q 92 -117 96 -136 q 100 -79 94 -100 l 119 -52 l 154 -39 l 184 -36 l 195 -39 l 224 -55 q 243 -41 236 -52 l 252 -55 l 241 -60 l 249 -77 q 262 -106 254 -92 q 276 -115 269 -108 l 271 -128 l 279 -131 l 276 -120 l 281 -123 l 292 -131 l 295 -123 l 306 -128 l 309 -117 l 311 -74 l 295 -77 q 281 -60 286 -71 l 295 -74 l 306 -36 l 300 -17 q 314 16 310 -4 q 309 37 313 26 q 314 43 313 38 q 306 48 311 47 l 292 40 l 265 35 l 257 56 l 238 32 q 243 26 241 31 q 238 18 239 24 q 252 7 246 15 q 238 2 245 3 q 208 -6 224 -4 l 186 2 l 181 -3 l 184 10 q 162 5 173 9 q 135 13 149 7 q 111 35 124 24 l 89 59 l 62 81 l 29 94 l 24 111 l 45 116 q 70 135 58 123 l 73 181 l 73 309 l 70 317 q 43 333 59 327 q 16 311 29 323 l -1 325 l 7 336 l 59 376 q 73 393 66 383 l 67 404 q 37 412 54 410 q 13 398 26 404 l -1 412 l 13 420 l 140 526 l 159 531 l 165 528 l 197 498 l 216 471 l 227 436 l 227 425 l 330 496 l 355 517 q 382 536 369 526 m 273 428 l 230 404 l 227 379 l 227 143 q 265 119 241 123 l 300 127 q 295 108 300 118 q 273 89 281 102 q 295 70 279 75 l 300 62 q 295 56 297 61 q 314 78 311 60 l 314 387 l 311 393 l 311 404 q 273 428 298 424 m 680 208 q 691 195 686 203 l 680 208 m 526 184 q 531 168 530 177 l 526 184 m 545 173 q 553 165 550 171 q 545 173 547 168 m 517 170 q 545 151 529 160 l 553 143 l 542 138 q 531 151 540 146 l 517 170 m 493 146 l 509 130 l 493 124 q 485 140 491 132 l 493 146 m 577 138 q 583 130 581 136 l 577 138 m 558 130 l 561 121 l 555 121 l 558 130 m 496 121 l 498 113 l 493 119 l 496 121 m 550 119 l 561 113 q 550 119 553 113 m 588 113 q 583 105 587 109 l 588 113 m 488 102 l 493 92 q 488 102 488 96 m 284 97 q 290 89 288 94 l 284 97 m 260 92 l 249 81 q 260 92 257 83 m 260 73 q 254 78 259 76 l 260 73 m 243 67 q 238 73 243 71 q 243 67 239 70 m 254 67 l 260 67 l 257 73 l 254 67 m 222 59 q 214 43 216 52 q 222 59 221 49 m 235 59 l 230 48 l 238 45 l 238 56 l 235 59 m 281 59 q 292 48 286 54 q 281 59 290 55 m 224 48 l 222 40 l 230 45 l 224 48 m 268 43 l 268 48 l 265 48 l 268 43 m 89 37 q 83 43 85 38 l 89 37 m 200 40 q 205 32 200 35 l 200 40 m 219 40 l 216 35 l 222 35 l 219 40 m 211 37 q 205 13 210 26 l 219 16 q 227 26 227 18 q 211 37 218 31 m 192 29 l 178 13 l 192 18 l 205 16 q 192 29 200 24 m 203 26 l 203 21 l 208 24 l 203 26 m 192 10 l 192 16 l 189 16 l 192 10 m 268 18 l 276 13 q 268 18 271 14 m 211 7 l 214 -1 l 214 7 l 211 7 m 222 7 l 227 -3 q 222 7 227 3 m 290 2 q 284 -3 289 -1 l 290 2 m 699 -6 q 707 -14 705 -8 q 699 -6 701 -13 m 309 -14 l 306 -22 l 311 -22 l 311 -14 l 309 -14 m 479 -12 q 474 -17 479 -14 l 479 -12 m 260 -17 q 254 -25 259 -22 l 260 -17 m 547 -22 q 553 -36 552 -28 l 547 -22 m 295 -36 l 298 -33 l 292 -41 l 290 -33 l 295 -36 m 528 -33 l 534 -41 q 528 -33 529 -39 m 238 -41 l 230 -52 l 233 -39 l 230 -36 l 238 -41 m 273 -39 l 281 -41 l 271 -44 l 273 -39 m 309 -41 l 303 -58 q 309 -63 304 -60 l 311 -47 l 311 -41 l 309 -41 m 67 -55 q 62 -63 66 -60 l 67 -55 m 498 -66 l 504 -79 q 498 -66 499 -73 m 642 -74 l 656 -74 q 645 -82 652 -79 l 642 -74 m 501 -85 l 507 -104 l 501 -112 l 498 -104 l 501 -85 m 260 -109 l 254 -117 q 260 -109 259 -115 m 526 -115 q 515 -128 524 -124 q 526 -115 518 -120 m 257 -128 l 252 -142 q 257 -147 252 -144 q 268 -153 263 -147 q 284 -169 277 -157 l 271 -177 q 292 -169 282 -175 l 298 -150 l 295 -144 q 276 -136 286 -138 q 257 -128 266 -134 m 298 -128 l 295 -136 l 303 -142 l 298 -128 m 43 -142 q 48 -147 46 -142 l 43 -142 m 260 -144 q 265 -155 260 -151 q 260 -144 264 -149 m 243 -147 q 249 -153 244 -151 q 243 -147 248 -150 m 246 -161 l 254 -166 l 257 -155 l 252 -155 l 246 -161 m 265 -161 l 271 -169 q 265 -161 269 -163 m 249 -163 q 243 -172 244 -166 l 249 -163 m 54 -172 q 48 -166 50 -171 l 54 -172 m 197 -174 l 205 -174 l 214 -169 l 203 -169 l 197 -174 m 222 -169 l 219 -177 l 224 -177 l 224 -169 l 222 -169 m 197 -180 q 192 -174 197 -176 q 197 -180 193 -177 m 254 -174 l 246 -188 q 254 -174 253 -182 m 224 -182 l 230 -180 l 227 -177 l 224 -182 m 262 -177 q 268 -182 263 -180 l 262 -177 m 214 -182 l 214 -188 l 219 -185 l 214 -182 m 401 -180 l 406 -191 q 401 -180 401 -186 m 241 -185 q 246 -191 241 -189 q 241 -185 245 -188 m 40 -188 l 54 -204 q 40 -188 44 -199 m 406 -207 q 401 -201 403 -206 l 406 -207 m 368 -207 q 379 -220 370 -216 l 368 -207 m 298 -210 l 300 -215 l 300 -210 l 298 -210 m 195 -212 q 200 -218 195 -216 q 195 -212 199 -215 m 287 -212 l 287 -218 l 292 -215 l 287 -212 m 390 -212 l 390 -218 l 395 -215 l 390 -212 m 252 -220 l 252 -215 l 249 -215 l 252 -220 m 298 -218 l 292 -226 q 298 -218 298 -223 m 344 -218 l 341 -226 l 347 -223 l 347 -218 l 344 -218 m 254 -223 q 260 -239 255 -231 q 254 -223 260 -232 m 314 -223 l 319 -231 l 322 -223 l 314 -223 m 292 -231 q 298 -226 296 -231 q 292 -231 295 -227 m 322 -231 l 330 -234 l 333 -226 l 328 -226 l 322 -231 m 338 -226 l 333 -237 l 341 -239 l 344 -229 l 338 -226 m 374 -231 q 368 -239 373 -236 l 374 -231 m 197 -237 l 211 -237 l 195 -245 l 197 -237 m 249 -239 l 246 -248 l 252 -245 l 252 -239 l 249 -239 m 303 -242 l 303 -248 l 309 -245 l 303 -242 m 298 -245 q 303 -250 298 -248 q 298 -245 302 -248 m 252 -248 q 260 -258 254 -254 l 265 -248 l 257 -253 q 252 -248 256 -250 m 314 -253 l 314 -248 l 311 -248 l 314 -253 m 287 -253 l 281 -267 l 295 -264 q 287 -253 292 -257 m 347 -258 l 349 -267 l 344 -261 l 347 -258 m 371 -258 l 376 -275 l 368 -280 l 371 -258 m 165 -264 l 176 -269 l 165 -272 l 162 -267 l 165 -264 m 300 -272 l 306 -272 l 306 -267 l 303 -267 l 300 -272 m 241 -269 q 230 -277 237 -275 q 241 -269 236 -275 m 181 -275 l 192 -280 l 197 -277 l 192 -288 l 178 -283 l 173 -313 l 178 -318 l 176 -329 q 162 -307 172 -317 l 170 -299 q 165 -288 170 -292 l 181 -275 m 398 -275 l 404 -275 l 401 -280 l 398 -275 m 376 -277 l 393 -291 l 395 -307 l 390 -313 l 390 -307 l 387 -307 l 379 -294 l 376 -277 m 143 -283 l 149 -283 l 146 -288 l 143 -283 m 157 -286 q 162 -296 160 -289 l 157 -286 m 290 -288 l 298 -291 l 300 -288 l 295 -302 l 290 -288 m 366 -291 l 368 -315 l 357 -299 l 366 -291 m 151 -304 l 132 -329 l 124 -348 q 105 -356 116 -355 l 97 -334 l 108 -321 l 124 -310 l 135 -318 l 132 -310 l 135 -313 q 151 -304 144 -311 m 97 -307 q 111 -315 105 -309 l 97 -307 m 214 -307 q 233 -321 231 -315 l 211 -332 l 216 -323 l 219 -313 l 216 -310 l 205 -315 l 214 -307 m 347 -307 q 338 -318 344 -314 l 347 -307 m 124 -321 l 121 -340 l 127 -340 l 127 -337 l 130 -323 l 124 -321 m 143 -321 l 146 -329 l 140 -323 l 143 -321 m 130 -348 q 140 -353 136 -348 l 124 -356 l 130 -348 m 659 -429 q 672 -451 672 -436 q 659 -429 663 -441 z "},"Z":{"ha":485,"x_min":-201,"x_max":705,"o":"m 277 545 q 301 526 288 537 l 345 479 l 361 452 l 372 420 l 374 390 l 372 382 l 358 352 l 315 309 l 288 292 q 266 279 276 288 l 320 265 l 328 268 l 358 284 l 393 292 l 423 295 l 423 284 q 393 271 410 276 l 361 260 q 339 243 348 254 q 353 233 347 241 l 374 214 l 393 189 l 418 146 l 437 78 l 437 -3 l 418 -68 q 404 -90 413 -80 l 396 -81 l 393 -95 l 407 -98 l 396 -95 l 396 -103 q 385 -130 393 -116 l 374 -155 q 366 -174 367 -163 l 374 -182 l 363 -179 l 350 -190 q 345 -182 350 -184 l 298 -209 l 266 -220 l 244 -222 l 236 -220 l 222 -209 l 217 -217 l 206 -225 l 168 -220 l 141 -206 q 157 -195 150 -203 l 212 -209 l 239 -195 l 250 -171 l 228 -163 l 236 -179 l 228 -176 l 217 -182 l 220 -174 l 231 -157 l 236 -141 q 228 -127 231 -136 q 220 -122 222 -127 q 209 -106 216 -113 l 203 -114 q 187 -106 197 -108 l 190 -100 l 184 -98 l 187 -79 q 195 -84 193 -79 l 190 -98 l 214 -95 q 225 -79 218 -85 q 217 -62 223 -71 l 203 -57 l 198 -62 l 201 -65 q 187 -57 193 -63 l 193 -62 l 198 -60 l 184 -52 l 182 -62 l 187 -62 l 184 -65 l 176 -84 l 182 -81 l 171 -92 l 152 -87 q 125 -81 140 -86 l 122 -68 l 130 -65 l 119 -65 l 117 -68 q 119 -90 119 -77 l 111 -95 l 114 -79 l 106 -76 l 103 -71 l 92 -81 l 87 -68 l 54 -71 l 57 -52 l 49 -49 l 57 -30 l 60 10 q 52 26 60 20 q 60 40 54 35 l 73 59 l 98 81 l 95 86 l 87 81 q 76 100 83 92 l 73 116 q 90 135 82 122 l 84 149 q 106 135 95 144 l 117 113 q 133 102 123 106 q 127 116 133 110 l 133 113 l 125 127 q 130 140 125 134 l 125 146 l 138 170 l 157 186 q 174 214 167 199 l 179 203 l 193 208 q 217 222 203 215 l 231 227 q 220 238 228 233 l 193 241 l 184 238 l 160 219 q 144 205 153 210 l 114 192 q 92 216 102 201 l 100 235 l 127 252 l 193 271 l 217 292 l 231 319 l 231 349 l 228 360 l 217 385 l 195 406 l 160 414 q 125 406 144 412 l 100 393 l 92 409 l 103 417 q 127 436 115 425 l 277 545 m 24 371 l 16 368 l 19 376 l 24 371 m -38 355 q -43 344 -39 349 l -38 355 m 418 317 l 429 319 q 418 303 426 310 l 412 322 l 418 317 m -3 295 q 16 271 5 282 q 3 254 15 258 l -5 265 l 3 262 l 3 268 l -3 295 m 228 279 l 228 273 l 231 273 l 231 279 l 228 279 m -62 273 l -43 260 l -52 246 q -57 235 -54 239 l -76 252 q -62 273 -68 260 m 225 271 l 222 262 l 228 265 l 228 271 l 225 271 m 404 271 q 410 262 408 268 q 404 271 405 264 m -49 268 q -43 262 -45 267 q -49 268 -47 263 m -30 268 l -19 268 l -30 257 l -30 268 m 225 260 q 231 265 229 260 l 225 260 m -54 257 l -57 249 l -52 249 l -49 254 l -54 257 m 401 260 l 407 260 l 404 254 l 401 260 m -90 257 l -81 252 q -90 257 -87 252 m 304 249 q 309 243 304 245 q 304 249 309 246 m 22 246 l 33 243 l 35 246 l 30 235 q 16 224 24 229 q 27 219 20 220 l 22 205 l 41 216 q 35 195 41 206 l 33 176 l 27 186 q 8 181 18 182 l -3 170 l 5 173 l 3 168 l -14 170 q -22 192 -16 181 l -14 205 l -5 200 q 3 216 3 206 l 8 224 l 5 216 l 11 214 l 11 216 l 14 233 q 22 246 20 237 m 73 243 l 84 227 l 79 230 l 73 224 q 65 230 71 229 q 73 243 71 235 m 54 238 q 62 233 59 237 l 54 238 m 19 233 q 24 224 20 228 l 19 233 m 239 214 l 203 192 q 176 162 189 179 l 155 130 q 136 121 146 125 l 144 111 l 133 67 l 152 70 l 144 59 l 160 56 l 182 48 l 190 26 q 179 10 186 18 q 190 -3 182 1 l 179 -5 l 193 -38 q 201 -46 199 -40 l 209 -38 l 225 -46 q 247 -60 235 -54 l 277 -49 l 277 -16 l 279 -8 l 277 -5 l 279 2 l 277 29 l 285 21 q 309 26 296 25 l 328 24 q 342 16 336 22 l 347 40 q 336 54 345 48 l 331 59 q 317 73 323 64 l 304 64 l 312 45 l 307 32 l 288 45 l 298 56 l 288 75 q 266 97 276 82 l 271 135 q 260 181 264 155 q 239 214 256 200 m 336 214 l 339 208 l 339 214 l 336 214 m 350 205 l 350 211 l 347 211 l 350 205 m 14 208 l 14 203 l 19 205 l 14 208 m 334 208 q 355 192 340 194 q 334 208 347 201 m 8 205 l 14 192 q 8 205 13 199 m 160 208 q 165 203 163 208 l 157 192 l 160 208 m 46 205 l 52 189 l 49 192 l 41 189 l 46 205 m -71 203 l -62 197 q -71 203 -67 199 m -43 197 q -38 192 -40 197 l -43 197 m 304 189 l 304 195 l 301 195 l 304 189 m -68 192 l -54 189 l -52 192 q -60 181 -57 189 l -52 165 l -57 170 l -62 170 l -62 168 l -73 176 l -68 192 m 336 184 l 342 181 l 342 189 l 339 189 l 336 184 m 345 189 l 347 181 l 347 189 l 345 189 m 71 181 q 65 186 67 182 l 71 181 m -8 176 l -8 181 l -11 181 l -8 176 m 331 170 l 334 165 l 334 170 l 331 170 m 326 165 l 326 159 q 326 165 328 162 m 328 157 l 336 159 l 331 162 l 328 157 m 217 162 l 225 157 l 220 140 l 231 143 l 233 140 q 228 121 233 132 l 212 119 l 187 124 l 171 119 q 179 132 173 127 l 187 143 q 193 130 189 137 l 206 127 l 212 135 l 206 132 l 206 135 l 217 162 m -54 154 q -49 143 -51 150 l -54 154 m 62 151 l 68 138 q 62 151 64 143 m 187 151 q 193 143 192 149 l 187 151 m 133 138 l 125 127 l 136 121 l 144 132 q 133 138 140 136 m 100 130 l 100 135 l 98 135 l 100 130 m 437 138 l 439 119 l 429 132 l 437 138 m 442 138 l 450 135 l 442 132 l 442 138 m 95 121 l 95 116 l 100 119 l 95 121 m 109 121 l 106 113 l 114 116 q 109 121 113 119 m 30 121 q 35 116 33 121 l 33 113 l 27 119 l 30 121 m 52 113 q 60 97 59 108 q 52 113 54 104 m -24 111 q -19 105 -21 110 l -24 111 m 106 108 l 106 97 l 114 105 l 106 108 m 184 108 q 193 94 191 102 l 184 108 m -27 105 q -16 94 -21 103 l -27 105 m 79 102 l 79 97 l 81 97 l 81 102 l 79 102 m -38 100 l -30 97 l -38 94 l -38 100 m 415 92 l 415 97 l 412 97 l 415 92 m 317 94 l 317 89 l 323 92 l 317 94 m 323 89 l 331 81 l 336 89 l 328 94 l 323 89 m 111 86 q 119 81 114 82 l 111 86 m 92 67 q 98 73 96 68 q 92 67 95 71 m 296 70 l 296 64 l 301 67 l 296 70 m -98 70 q -92 62 -94 67 l -98 70 m 127 54 l 125 37 l 127 32 l 141 40 q 127 54 134 45 m 133 51 l 133 45 l 136 45 l 136 51 l 133 51 m 165 48 l 160 35 l 174 40 l 165 48 m 355 45 l 358 37 l 361 45 l 355 45 m 391 45 l 388 37 l 396 40 q 391 45 395 43 m 144 37 l 149 35 l 152 43 l 146 43 l 144 37 m 144 37 l 133 29 q 144 37 139 31 m 174 32 l 174 37 l 171 37 l 174 32 m 60 29 q 54 35 59 33 l 60 29 m 122 35 q 130 21 123 27 l 122 35 m 152 35 l 146 26 l 157 29 q 152 35 157 32 m 372 35 q 377 21 372 27 l 380 35 l 372 35 m 363 32 q 372 24 366 24 l 363 32 m 76 24 l 81 24 l 79 29 l 76 24 m 155 26 q 144 10 149 20 l 152 0 l 160 26 l 155 26 m 171 26 l 179 21 q 171 26 177 25 m 412 26 l 412 21 l 418 24 l 412 26 m 92 18 l 92 24 l 90 24 l 92 18 m 133 21 l 125 16 q 133 21 130 16 m 347 21 l 336 10 q 347 21 344 12 m 119 16 q 136 0 125 7 q 119 16 134 12 m 163 16 q 179 5 169 8 q 163 16 172 12 m 385 7 l 385 13 l 382 13 l 385 7 m 160 2 l 165 2 l 165 7 l 163 7 l 160 2 m 374 2 l 369 -16 q 374 2 374 -8 m 144 0 l 141 -11 l 149 -8 l 144 0 m 157 0 q 174 -8 165 -7 q 157 0 166 -3 m 345 -8 l 345 -3 l 342 -3 l 345 -8 m 355 -8 l 361 -8 l 358 -3 l 355 -8 m 125 -5 l 127 -14 l 127 -5 l 125 -5 m 133 -11 l 133 -5 l 130 -5 l 133 -11 m 290 -11 l 296 -14 l 296 -5 l 293 -5 l 290 -11 m 309 -11 l 317 -19 l 320 -11 l 315 -5 q 309 -11 312 -7 m 323 -11 l 326 -8 l 317 -5 l 323 -11 m 366 -11 l 366 -5 l 363 -5 l 366 -11 m 117 -8 l 119 -33 l 114 -38 l 122 -41 l 125 -38 q 117 -8 123 -24 m 263 -11 q 258 -5 260 -11 l 263 -11 m 111 -16 l 111 -11 l 109 -11 l 111 -16 m 179 -16 q 174 -11 178 -13 q 179 -16 175 -14 m 282 -11 l 279 -16 l 285 -16 l 285 -11 l 282 -11 m 146 -14 l 146 -19 l 152 -16 l 146 -14 m 345 -16 l 350 -30 q 345 -16 349 -22 m 361 -16 q 366 -33 361 -25 l 369 -49 l 366 -54 q 361 -62 361 -58 q 377 -54 369 -61 q 385 -41 379 -47 l 396 -38 q 391 -30 395 -34 q 380 -19 383 -26 l 363 -22 l 363 -16 l 361 -16 m 141 -19 q 149 -24 143 -24 l 141 -19 m 130 -27 l 130 -22 l 127 -22 l 130 -27 m 179 -27 l 182 -30 l 190 -24 l 182 -22 l 179 -27 m 152 -24 l 157 -38 q 152 -24 157 -31 m 46 -27 l 54 -30 l 46 -33 l 46 -27 m 65 -35 l 65 -30 l 62 -30 l 65 -35 m 138 -30 q 125 -43 129 -35 l 144 -46 l 152 -38 l 138 -30 m 336 -30 q 345 -43 339 -37 q 336 -30 344 -35 m 106 -33 l 106 -38 l 111 -35 l 106 -33 m 578 -30 l 594 -43 l 578 -49 l 572 -41 l 562 -49 l 562 -43 l 556 -46 l 562 -38 l 575 -41 l 581 -38 l 578 -30 m 372 -33 q 380 -41 376 -35 l 372 -33 m 98 -38 q 103 -43 98 -42 l 106 -41 l 98 -38 m 130 -35 l 138 -38 l 133 -41 l 130 -35 m 179 -41 l 176 -49 l 184 -52 l 179 -41 m 382 -46 q 388 -41 386 -45 l 382 -46 m 117 -43 q 111 -54 112 -48 l 125 -52 q 117 -43 121 -46 m 190 -46 q 198 -52 192 -51 l 190 -46 m 220 -46 l 203 -57 l 217 -60 l 225 -57 l 220 -46 m 355 -46 l 355 -52 l 358 -52 l 358 -46 l 355 -46 m 388 -52 l 393 -49 l 391 -46 l 388 -52 m 157 -54 q 152 -49 157 -51 q 157 -54 153 -52 m -5 -49 q 11 -68 5 -56 q -5 -49 -2 -63 m 160 -52 q 168 -62 162 -61 l 160 -52 m 347 -57 l 347 -52 l 345 -52 l 347 -57 m 71 -60 q 65 -54 70 -56 q 71 -60 66 -57 m 100 -54 l 90 -60 l 95 -71 l 100 -54 m 146 -54 l 146 -62 l 138 -57 l 144 -68 l 152 -60 q 146 -54 151 -57 m 46 -54 l 52 -76 q 68 -81 58 -80 l 73 -76 q 81 -81 75 -80 q 71 -87 77 -86 q 52 -100 62 -96 l 57 -92 l 52 -90 q 41 -106 43 -96 l 52 -114 l 65 -100 l 57 -111 q 62 -117 58 -114 q 57 -122 61 -121 l 35 -114 l 22 -122 l 19 -111 l 30 -95 q 35 -87 35 -92 l 33 -65 q 46 -54 41 -63 m 236 -57 q 241 -68 237 -63 l 236 -57 m 71 -62 l 73 -65 l 79 -62 l 73 -60 l 71 -62 m 225 -65 l 231 -65 l 231 -60 l 228 -60 l 225 -65 m 382 -60 l 380 -68 l 385 -68 l 388 -60 l 382 -60 m 109 -62 q 114 -73 109 -68 l 109 -62 m 401 -62 l 396 -71 l 407 -65 l 401 -62 m -22 -62 q -11 -73 -16 -66 l -22 -62 m 496 -62 q 502 -73 501 -66 l 496 -62 m 149 -71 l 152 -79 l 157 -76 l 157 -68 l 149 -71 m 388 -68 l 385 -79 l 391 -81 l 396 -73 l 388 -68 m 407 -76 l 407 -71 l 404 -71 l 407 -76 m 404 -81 q 399 -76 404 -78 q 404 -81 400 -79 m 233 -81 q 239 -92 233 -89 q 233 -81 238 -87 m 247 -87 q 266 -111 254 -100 q 247 -87 264 -96 m 95 -87 l 111 -114 l 100 -117 l 98 -133 l 111 -119 l 125 -114 l 114 -130 q 98 -146 105 -136 l 84 -152 l 79 -136 l 84 -141 l 87 -138 l 100 -117 l 87 -122 q 79 -98 87 -110 l 95 -87 m 203 -92 q 198 -87 200 -92 l 203 -92 m 363 -95 l 363 -90 l 361 -90 l 363 -95 m 92 -92 q 103 -106 96 -100 l 92 -92 m 141 -92 q 136 -103 140 -99 l 141 -92 m 345 -100 l 350 -103 l 350 -95 l 347 -95 l 345 -100 m 236 -100 l 233 -106 l 239 -106 l 239 -100 l 236 -100 m 583 -98 q 589 -103 587 -98 l 586 -106 l 583 -98 m 119 -100 q 125 -111 123 -104 l 114 -109 l 119 -100 m 157 -100 l 160 -109 l 155 -109 l 157 -100 m 572 -100 q 586 -119 580 -109 q 578 -130 580 -125 l 583 -138 l 586 -133 l 581 -141 q 572 -152 574 -145 l 562 -155 l 567 -168 q 575 -176 574 -171 l 562 -190 l 556 -179 l 545 -182 q 534 -168 538 -178 l 540 -160 l 534 -155 l 548 -163 l 551 -141 l 545 -138 q 534 -127 541 -135 q 540 -133 538 -129 l 543 -127 l 567 -114 l 551 -109 l 572 -100 m 5 -103 q 14 -111 10 -106 l 5 -103 m 33 -111 l 33 -106 l 30 -106 l 33 -111 m 163 -106 l 168 -106 l 165 -111 l 163 -106 m 8 -111 l 5 -119 l 3 -109 l 8 -111 m 68 -109 l 73 -109 l 71 -114 l 68 -109 m 412 -109 l 420 -111 l 423 -109 q 410 -119 418 -115 l 412 -109 m 222 -119 l 222 -114 l 220 -114 l 222 -119 m 54 -122 l 54 -117 l 52 -117 l 54 -122 m 572 -117 l 567 -127 q 572 -117 572 -123 m 260 -119 l 252 -125 l 260 -127 l 260 -119 m 35 -119 q 41 -130 39 -124 l 35 -119 m 673 -119 l 681 -125 l 703 -119 l 705 -125 l 703 -133 l 673 -119 m 618 -127 q 624 -133 622 -128 l 618 -127 m 594 -130 l 602 -138 l 589 -144 l 594 -130 m 127 -133 l 133 -149 l 117 -144 l 127 -133 m 144 -133 l 155 -146 l 136 -141 l 144 -133 m 168 -138 q 163 -133 165 -138 l 168 -138 m 439 -133 q 450 -138 444 -138 l 445 -149 l 437 -157 l 429 -144 l 412 -152 l 418 -144 l 439 -133 m 529 -133 l 540 -141 q 529 -133 534 -140 m 556 -136 q 564 -146 557 -142 l 556 -136 m 404 -138 l 412 -141 l 407 -144 l 404 -138 m 491 -144 l 499 -160 l 488 -160 l 486 -163 l 477 -152 l 491 -144 m 388 -146 l 396 -149 l 388 -152 l 388 -146 m 236 -152 q 241 -157 237 -155 l 244 -155 l 236 -152 m 686 -149 l 694 -157 l 686 -160 l 689 -152 l 686 -149 m 111 -152 l 133 -157 l 138 -152 l 141 -160 l 138 -163 l 122 -187 q 114 -179 115 -185 l 111 -152 m 122 -155 q 133 -160 127 -159 l 122 -155 m 98 -155 q 103 -171 103 -162 l 98 -155 m 250 -163 l 255 -171 q 250 -163 254 -165 m 540 -176 q 545 -171 543 -176 q 540 -176 543 -172 m 564 -171 l 564 -176 l 570 -174 l 564 -171 m 521 -171 q 529 -179 526 -174 q 521 -171 524 -177 m 146 -174 q 138 -187 145 -181 l 146 -174 m 540 -184 l 540 -179 l 537 -179 l 540 -184 m 133 -182 q 127 -201 133 -192 l 133 -182 m 553 -193 q 548 -187 550 -193 l 553 -193 m 331 -195 q 339 -201 336 -197 l 331 -195 m 562 -198 q 570 -212 562 -207 l 556 -228 l 553 -212 l 562 -198 m 537 -201 q 543 -206 541 -201 l 537 -201 m 241 -206 l 241 -212 l 247 -209 l 241 -206 m 336 -209 q 347 -228 345 -216 l 336 -209 m 521 -220 l 513 -222 l 515 -214 l 521 -220 m 648 -222 l 656 -231 l 646 -233 q 648 -222 648 -230 m 439 -260 l 445 -260 l 442 -266 l 439 -260 m 475 -274 l 480 -282 q 475 -274 476 -280 m 483 -293 q 494 -304 489 -296 l 488 -301 l 480 -307 l 475 -304 l 483 -293 m 505 -301 l 510 -309 q 505 -301 506 -307 m 350 -385 l 358 -388 l 353 -391 l 350 -385 m 382 -431 l 385 -456 q 369 -445 379 -450 l 363 -456 l 353 -461 l 358 -453 l 382 -431 m 241 -469 q 252 -477 248 -471 l 241 -469 m 274 -469 l 282 -480 q 274 -469 276 -477 m -187 -540 q -201 -559 -191 -551 q -187 -540 -196 -549 z "},"[":{"ha":386,"x_min":0,"x_max":0,"o":""},"\\":{"ha":386,"x_min":0,"x_max":0,"o":""},"]":{"ha":386,"x_min":0,"x_max":0,"o":""},"^":{"ha":652,"x_min":0,"x_max":0,"o":""},"_":{"ha":772,"x_min":0,"x_max":0,"o":""},"`":{"ha":463,"x_min":0,"x_max":0,"o":""}}}
